<svg width="30" height="30" viewBox="0 0 30 30" fill="none" xmlns="http://www.w3.org/2000/svg">
<g clip-path="url(#clip0_7171_9549)">
<path d="M8.37795 29.0248V27.2925C8.37724 26.7739 7.97113 26.3466 7.45332 26.3195V24.8153C8.28149 24.641 8.87481 23.9107 8.876 23.0644V21.6163H13.5032C14.0265 21.6158 14.4505 21.192 14.4512 20.6688V8.32739C14.4505 7.80433 14.0268 7.38036 13.5037 7.37988H5.94084C5.41778 7.38036 4.99381 7.80433 4.99333 8.32739V14.6724L1.71375 17.3885C1.70422 17.3963 1.69493 17.4049 1.68612 17.4137C1.35671 17.7476 1.17259 18.1981 1.17354 18.667V26.3169H0.97561C0.437071 26.3173 0.000714561 26.7537 0 27.2925V29.0248C0.000714561 29.5633 0.437071 29.9997 0.97561 30.0004H7.40234C7.94112 29.9997 8.37748 29.5633 8.37795 29.0248ZM5.94084 8.11183H13.5037C13.6228 8.11183 13.7193 8.20853 13.7195 8.32762V20.669C13.7193 20.7883 13.6228 20.8848 13.5037 20.885H6.08279C6.0504 20.7881 6.03301 20.6869 6.03111 20.5847L6.04135 20.4063L7.45189 18.9957C8.01043 18.436 8.01043 17.5295 7.45189 16.9695L7.20036 16.718C7.06912 16.5867 6.86023 16.5746 6.71446 16.6899L5.72504 17.4733V8.32762C5.72528 8.20853 5.82174 8.11183 5.94084 8.11183ZM1.90525 18.667C1.90477 18.396 2.00886 18.1352 2.19607 17.9391L4.99333 15.6223V18.0523L3.29792 19.3949C3.19479 19.4759 3.14286 19.6057 3.16192 19.7355C3.18074 19.8651 3.26767 19.9747 3.38939 20.0228C3.51134 20.0711 3.64972 20.0504 3.75214 19.9687L6.91335 17.4656L6.93431 17.4866C7.20775 17.7607 7.20775 18.2042 6.93431 18.4782L5.42564 19.9871C5.36204 20.0507 5.32417 20.1352 5.31893 20.225L5.29988 20.5542C5.2994 20.5611 5.29916 20.5682 5.29916 20.5754C5.30083 20.8386 5.36085 21.0984 5.47471 21.3357C5.70479 21.8297 5.66168 22.4075 5.36061 22.8617C5.3206 22.9218 5.29916 22.9923 5.29916 23.0647V23.7759C5.29916 23.9779 5.46303 24.1417 5.66502 24.1417C5.86724 24.1417 6.03087 23.9779 6.03087 23.7759V23.1699C6.3074 22.7024 6.40982 22.1522 6.32003 21.6165H8.14453V23.0644C8.14382 23.6477 7.67102 24.1205 7.0877 24.1213C6.88572 24.1213 6.72185 24.2849 6.72185 24.4871V26.3169H1.90525V18.667ZM0.731707 29.0248V27.2925C0.731707 27.1577 0.840797 27.0486 0.97561 27.0486H7.40234C7.53716 27.0486 7.64625 27.1577 7.64625 27.2925V29.0248C7.64625 29.1596 7.53716 29.2687 7.40234 29.2687H0.97561C0.840797 29.2687 0.731707 29.1596 0.731707 29.0248Z" fill="#0D8BFF"/>
<path d="M1.90866 27.2268C1.51589 27.2187 1.15718 27.4492 1.00117 27.8101C0.845393 28.1709 0.92328 28.5901 1.19839 28.8707C1.47349 29.1513 1.89103 29.2378 2.25474 29.0891C2.61869 28.9405 2.8564 28.5866 2.8564 28.1938C2.86092 27.6653 2.43719 27.2327 1.90866 27.2268ZM1.90866 28.4289C1.81171 28.4372 1.71954 28.3853 1.67666 28.2979C1.63355 28.2105 1.64856 28.1057 1.71453 28.034C1.78027 27.9623 1.88341 27.9382 1.97416 27.9737C2.06491 28.009 2.12469 28.0964 2.12469 28.1938C2.12969 28.3181 2.03323 28.4232 1.90866 28.4289Z" fill="#0D8BFF"/>
<path d="M9.71989 17.544C11.5282 17.544 12.9942 16.078 12.9942 14.2697C12.9942 12.4612 11.5282 10.9951 9.71989 10.9951C7.91135 10.9951 6.44531 12.4612 6.44531 14.2697C6.44769 16.0771 7.9123 17.5419 9.71989 17.544ZM9.71989 11.7266C11.124 11.7266 12.2625 12.8649 12.2625 14.2692C12.2625 15.6736 11.124 16.8119 9.71989 16.8119C8.31555 16.8119 7.17702 15.6736 7.17702 14.2692C7.17893 12.8656 8.31626 11.7283 9.71989 11.7266Z" fill="#0D8BFF"/>
<path d="M8.69407 16.1193C8.72123 16.1193 8.74838 16.1164 8.77482 16.1103C8.7853 16.1079 8.79506 16.1045 8.80531 16.1022C8.8065 16.1022 8.80769 16.1022 8.80888 16.1017C8.98752 16.0669 9.17235 16.105 9.32265 16.2072C9.74685 16.4937 10.2925 16.5297 10.751 16.3013L10.9061 16.2239C11.024 16.1662 11.1021 16.0495 11.1102 15.9185C11.1186 15.7873 11.0559 15.6617 10.9461 15.5896C10.8363 15.5174 10.6963 15.5098 10.5793 15.5693L10.424 15.6467C10.2023 15.7573 9.93788 15.7399 9.73256 15.6013C9.69112 15.5734 9.64848 15.5477 9.60442 15.5243C9.72875 15.3295 9.79973 15.1053 9.81021 14.8745C9.81164 14.8445 9.81212 14.8148 9.81307 14.7847H9.97551C10.1777 14.7847 10.3414 14.6211 10.3414 14.4189C10.3414 14.2169 10.1777 14.053 9.97551 14.053H9.78973C9.77853 13.9301 9.76329 13.8082 9.74447 13.6867L9.73995 13.6577C9.71922 13.5362 9.76901 13.4133 9.86833 13.3404C9.96789 13.2675 10.0998 13.2573 10.2096 13.3135C10.3192 13.3699 10.3876 13.4833 10.3861 13.6067V13.7422C10.3861 13.9444 10.55 14.1081 10.752 14.1081C10.9542 14.1081 11.1179 13.9444 11.1179 13.7422V13.6067C11.1207 13.2075 10.8982 12.8407 10.5429 12.6585C10.1877 12.4763 9.75995 12.5098 9.43745 12.7452C9.11471 12.9803 8.95227 13.3773 9.01705 13.7713L9.02182 13.8003C9.03492 13.8839 9.04611 13.9682 9.05492 14.0528H8.83484C8.63286 14.0528 8.46899 14.2167 8.46899 14.4187C8.46899 14.6206 8.63286 14.7845 8.83484 14.7845H9.08041C9.07993 14.8036 9.08041 14.8229 9.07946 14.8419C9.0666 15.1103 8.87628 15.3373 8.61404 15.3962C8.43207 15.4369 8.30988 15.6082 8.33036 15.7935C8.35085 15.9788 8.50733 16.1191 8.69383 16.1191L8.69407 16.1193Z" fill="#0D8BFF"/>
<path d="M29.0225 0H22.5958C22.057 0.000714561 21.6206 0.437071 21.6201 0.97561V2.70794C21.6209 3.22647 22.027 3.65377 22.5448 3.68093V5.18507C21.7166 5.35942 21.1233 6.0897 21.1221 6.93598V8.38415H16.4949C15.9716 8.38462 15.5476 8.80835 15.5469 9.33165V21.673C15.5476 22.1961 15.9713 22.62 16.4944 22.6205H24.0573C24.5803 22.62 25.0043 22.1961 25.0048 21.673V15.328L28.2843 12.6119C28.2939 12.6041 28.3032 12.5955 28.312 12.5867C28.6414 12.2528 28.8255 11.8024 28.8246 11.3334V3.68355H29.0225C29.561 3.68307 29.9974 3.24671 29.9981 2.70794V0.97561C29.9974 0.437071 29.561 0.000714561 29.0225 0ZM24.0573 21.8886H16.4944C16.3753 21.8886 16.2788 21.7919 16.2786 21.6728V9.33141C16.2788 9.21208 16.3753 9.11561 16.4944 9.11538H23.9153C23.9477 9.21232 23.9651 9.31355 23.967 9.41573L23.9567 9.59413L22.5462 11.0049C21.9877 11.5646 21.9877 12.4712 22.5462 13.0312L22.7977 13.2827C22.9292 13.4139 23.1381 13.4261 23.2836 13.3108L24.2731 12.5272V21.6728C24.2728 21.7919 24.1764 21.8886 24.0573 21.8886ZM28.0928 11.3334C28.0933 11.6044 27.9892 11.8652 27.802 12.0613L25.0048 14.3781V11.9479L26.7002 10.6055C26.8033 10.5245 26.8552 10.3947 26.8362 10.2649C26.8174 10.1353 26.7304 10.0257 26.6087 9.97761C26.4868 9.92926 26.3484 9.94998 26.246 10.0317L23.0847 12.5348L23.0638 12.5138C22.7903 12.2397 22.7903 11.7962 23.0638 11.5222L24.5727 10.0133C24.6361 9.94974 24.6742 9.86519 24.6792 9.77539L24.6982 9.44622C24.6987 9.43931 24.6989 9.43216 24.6989 9.42502C24.6975 9.16158 24.6375 8.90172 24.5234 8.66425C24.2933 8.17049 24.3367 7.59265 24.6375 7.13843C24.6775 7.07841 24.6989 7.00767 24.6989 6.9355V6.22475C24.6989 6.02253 24.5351 5.8589 24.3331 5.8589C24.1309 5.8589 23.9672 6.02253 23.9672 6.22475V6.83046C23.6907 7.29802 23.5883 7.84823 23.6781 8.38391H21.8538V6.93598C21.8543 6.35266 22.3271 5.87986 22.9104 5.87914C23.1124 5.87914 23.2762 5.71551 23.2762 5.51329V3.68355H28.0928V11.3334ZM29.2664 2.70794C29.2664 2.84275 29.1573 2.95184 29.0225 2.95184H22.5958C22.4609 2.95184 22.3518 2.84275 22.3518 2.70794V0.97561C22.3518 0.840796 22.4609 0.731707 22.5958 0.731707H29.0225C29.1573 0.731707 29.2664 0.840796 29.2664 0.97561V2.70794Z" fill="#0D8BFF"/>
<path d="M28.0885 0.839074C27.6955 0.830975 27.3368 1.06154 27.181 1.42239C27.025 1.783 27.1029 2.20221 27.378 2.4828C27.6531 2.76362 28.0706 2.84984 28.4344 2.70145C28.7983 2.55282 29.036 2.19888 29.036 1.80587C29.0408 1.27757 28.6168 0.845028 28.0885 0.839074ZM28.0885 2.0412C27.9913 2.04954 27.8992 1.99761 27.8563 1.9102C27.8132 1.82278 27.8284 1.71798 27.8942 1.64629C27.9599 1.57459 28.063 1.55054 28.1538 1.58579C28.2445 1.62128 28.3043 1.70869 28.3043 1.80587C28.3093 1.93044 28.2128 2.03548 28.0885 2.0412Z" fill="#0D8BFF"/>
<path d="M20.2743 12.4561C18.466 12.4561 17 13.9221 17 15.7304C17 17.5389 18.466 19.005 20.2743 19.005C22.0829 19.005 23.5489 17.5389 23.5489 15.7304C23.5465 13.923 22.0819 12.4582 20.2743 12.4561ZM20.2743 18.2735C18.8702 18.2735 17.7317 17.1352 17.7317 15.7309C17.7317 14.3265 18.8702 13.1882 20.2743 13.1882C21.6787 13.1882 22.8172 14.3265 22.8172 15.7309C22.8153 17.1345 21.678 18.2718 20.2743 18.2735Z" fill="#0D8BFF"/>
<path d="M20.7345 14.4827H20.9886C21.1906 14.4827 21.3545 14.3188 21.3545 14.1168C21.3545 13.9146 21.1906 13.751 20.9886 13.751H20.7345C19.9758 13.7519 19.2946 14.2152 19.0152 14.9205H18.702C18.5 14.9205 18.3362 15.0843 18.3362 15.2863C18.3362 15.4885 18.5 15.6522 18.702 15.6522H18.8866C18.8876 15.6898 18.8897 15.727 18.8926 15.7636H18.7018C18.4998 15.7636 18.3359 15.9275 18.3359 16.1295C18.3359 16.3317 18.4998 16.4954 18.7018 16.4954H19.1169C19.4428 17.0837 20.0618 17.4488 20.7342 17.4493H20.9884C21.1904 17.4493 21.3542 17.2854 21.3542 17.0834C21.3542 16.8812 21.1904 16.7176 20.9884 16.7176H20.7342C20.4941 16.7173 20.2605 16.6395 20.0683 16.4954H20.6823C20.8845 16.4954 21.0482 16.3317 21.0482 16.1295C21.0482 15.9275 20.8845 15.7636 20.6823 15.7636H19.6302C19.6248 15.7267 19.6212 15.6896 19.6195 15.6522H20.6825C20.8848 15.6522 21.0484 15.4885 21.0484 15.2863C21.0484 15.0843 20.8848 14.9205 20.6825 14.9205H19.8494C20.0602 14.6449 20.3874 14.4829 20.7345 14.4827Z" fill="#0D8BFF"/>
<path d="M19.5078 29.5922C19.5078 29.7941 19.6717 29.958 19.8737 29.958C20.0756 29.958 20.2395 29.7941 20.2395 29.5922V27.3356C20.2395 27.1334 20.0756 26.9697 19.8737 26.9697C19.6717 26.9697 19.5078 27.1334 19.5078 27.3356V29.5922Z" fill="#0D8BFF"/>
<path d="M19.8737 26.1699C20.0756 26.1699 20.2395 26.006 20.2395 25.8041V25.1881C20.2395 24.9861 20.0756 24.8223 19.8737 24.8223C19.6717 24.8223 19.5078 24.9861 19.5078 25.1881V25.8041C19.5078 26.006 19.6717 26.1699 19.8737 26.1699Z" fill="#0D8BFF"/>
<path d="M22.5547 28.372C22.5547 28.574 22.7186 28.7379 22.9205 28.7379C23.1225 28.7379 23.2864 28.574 23.2864 28.372V26.7252C23.2864 26.523 23.1225 26.3594 22.9205 26.3594C22.7186 26.3594 22.5547 26.523 22.5547 26.7252V28.372Z" fill="#0D8BFF"/>
<path d="M22.9205 25.5609C23.1225 25.5609 23.2864 25.3971 23.2864 25.1951V23.9694C23.2864 23.7674 23.1225 23.6035 22.9205 23.6035C22.7186 23.6035 22.5547 23.7674 22.5547 23.9694V25.1951C22.5547 25.3971 22.7186 25.5609 22.9205 25.5609Z" fill="#0D8BFF"/>
<path d="M16.4531 28.3725C16.4531 28.5745 16.617 28.7384 16.819 28.7384C17.021 28.7384 17.1848 28.5745 17.1848 28.3725V27.2135C17.1848 27.0113 17.021 26.8477 16.819 26.8477C16.617 26.8477 16.4531 27.0113 16.4531 27.2135V28.3725Z" fill="#0D8BFF"/>
<path d="M16.819 26.2926C17.021 26.2926 17.1848 26.1288 17.1848 25.9268V23.9694C17.1848 23.7674 17.021 23.6035 16.819 23.6035C16.617 23.6035 16.4531 23.7674 16.4531 23.9694V25.9268C16.4531 26.1288 16.617 26.2926 16.819 26.2926Z" fill="#0D8BFF"/>
<path d="M9.91921 0.761361C9.91921 0.55938 9.75557 0.395508 9.55335 0.395508C9.35137 0.395508 9.1875 0.55938 9.1875 0.761361V3.01794C9.1875 3.21992 9.35137 3.38379 9.55335 3.38379C9.75557 3.38379 9.91921 3.21992 9.91921 3.01794V0.761361Z" fill="#0D8BFF"/>
<path d="M9.55335 4.18262C9.35137 4.18262 9.1875 4.34625 9.1875 4.54847V5.16418C9.1875 5.3664 9.35137 5.53004 9.55335 5.53004C9.75557 5.53004 9.91921 5.3664 9.91921 5.16418V4.54847C9.91921 4.34625 9.75557 4.18262 9.55335 4.18262Z" fill="#0D8BFF"/>
<path d="M6.87233 1.98011C6.87233 1.77813 6.7087 1.61426 6.50648 1.61426C6.3045 1.61426 6.14062 1.77813 6.14062 1.98011V3.62693C6.14062 3.82891 6.3045 3.99278 6.50648 3.99278C6.7087 3.99278 6.87233 3.82891 6.87233 3.62693V1.98011Z" fill="#0D8BFF"/>
<path d="M6.50648 4.79297C6.3045 4.79297 6.14062 4.9566 6.14062 5.15882V6.38429C6.14062 6.58651 6.3045 6.75014 6.50648 6.75014C6.7087 6.75014 6.87233 6.58651 6.87233 6.38429V5.15882C6.87233 4.9566 6.7087 4.79297 6.50648 4.79297Z" fill="#0D8BFF"/>
<path d="M12.9661 1.98011C12.9661 1.77813 12.8024 1.61426 12.6002 1.61426C12.3982 1.61426 12.2344 1.77813 12.2344 1.98011V3.13912C12.2344 3.34111 12.3982 3.50498 12.6002 3.50498C12.8024 3.50498 12.9661 3.34111 12.9661 3.13912V1.98011Z" fill="#0D8BFF"/>
<path d="M12.6002 4.06152C12.3982 4.06152 12.2344 4.22516 12.2344 4.42738V6.38455C12.2344 6.58677 12.3982 6.75041 12.6002 6.75041C12.8024 6.75041 12.9661 6.58677 12.9661 6.38455V4.42738C12.9661 4.22516 12.8024 4.06152 12.6002 4.06152Z" fill="#0D8BFF"/>
</g>
<defs>
<clipPath id="clip0_7171_9549">
<rect width="30" height="30" fill="white"/>
</clipPath>
</defs>
</svg>
