<svg width="24" height="24" viewBox="0 0 24 24" fill="none" xmlns="http://www.w3.org/2000/svg">
<path d="M10.1272 6.19291C9.89942 5.62343 9.34785 5.25 8.7345 5.25H6.67105C5.88623 5.25 5.25 5.88626 5.25 6.67108C5.25 13.3421 10.6581 18.75 17.3291 18.75C18.1139 18.75 18.75 18.1138 18.75 17.329L18.7499 15.2655C18.7499 14.6522 18.3764 14.1006 17.8069 13.8729L15.8303 13.0822C15.3188 12.8775 14.7364 12.9698 14.3131 13.3225L13.8023 13.748C13.2063 14.2447 12.33 14.205 11.7814 13.6564L10.3435 12.2186C9.79495 11.6701 9.75542 10.7937 10.2521 10.1977L10.6776 9.68698C11.0303 9.26372 11.1225 8.6812 10.9179 8.16965L10.1272 6.19291Z" stroke="#0D8BFF" stroke-width="1.5" stroke-linecap="round" stroke-linejoin="round"/>
</svg>
