<svg width="18" height="18" viewBox="0 0 18 18" fill="none" xmlns="http://www.w3.org/2000/svg">
<path d="M11.25 11.25H13.35C14.1901 11.25 14.61 11.25 14.9308 11.0865C15.2131 10.9427 15.4429 10.7133 15.5867 10.431C15.7502 10.1102 15.7502 9.69012 15.7502 8.85004V4.65002C15.7502 3.80994 15.7502 3.3899 15.5867 3.06903C15.4429 2.78679 15.2131 2.5573 14.9308 2.41349C14.61 2.25 14.1902 2.25 13.3501 2.25H9.15015C8.31007 2.25 7.88972 2.25 7.56885 2.41349C7.2866 2.5573 7.0573 2.78679 6.91349 3.06903C6.75 3.3899 6.75 3.80998 6.75 4.65005V6.75005M2.25 13.3501V9.15005C2.25 8.30998 2.25 7.8899 2.41349 7.56903C2.5573 7.28679 2.7866 7.0573 3.06885 6.91349C3.38972 6.75 3.81007 6.75 4.65015 6.75H8.85015C9.69023 6.75 10.11 6.75 10.4308 6.91349C10.7131 7.0573 10.9429 7.28679 11.0867 7.56903C11.2502 7.8899 11.2502 8.30994 11.2502 9.15002V13.35C11.2502 14.1901 11.2502 14.6102 11.0867 14.931C10.9429 15.2133 10.7131 15.4427 10.4308 15.5865C10.11 15.75 9.69023 15.75 8.85015 15.75H4.65015C3.81007 15.75 3.38972 15.75 3.06885 15.5865C2.7866 15.4427 2.5573 15.2133 2.41349 14.931C2.25 14.6102 2.25 14.1901 2.25 13.3501Z" stroke="#BABABA" stroke-width="1.5" stroke-linecap="round" stroke-linejoin="round"/>
</svg>
