<svg width="24" height="24" viewBox="0 0 24 24" fill="none" xmlns="http://www.w3.org/2000/svg">
<rect x="3" y="3" width="18" height="19" fill="white"/>
<g clip-path="url(#clip0_7131_9181)">
<path fill-rule="evenodd" clip-rule="evenodd" d="M3.75 0C1.67894 0 0 1.67894 0 3.75V20.25C0 22.3211 1.67894 24 3.75 24H20.25C22.3211 24 24 22.3211 24 20.25V3.75C24 1.67894 22.3211 0 20.25 0H3.75ZM12.0643 18C12.1457 15.3428 12.2143 14.13 13.1572 13.1572C14.13 12.2143 15.3428 12.15 18 12.0643C18 14.46 17.9914 16.2514 17.1343 17.1343C16.2514 17.9914 14.5414 18 12.0643 18ZM6.86572 17.1343C6.00857 16.2514 6 14.46 6 12.0643C8.65718 12.1457 9.87 12.2143 10.8428 13.1572C11.7857 14.13 11.85 15.3428 11.9357 18C9.45855 18 7.74855 17.9914 6.86572 17.1343ZM6.86572 6.86572C7.74855 6.00857 9.46283 6 11.9357 6C11.8543 8.65718 11.7857 9.87 10.8428 10.8428C9.87 11.7857 8.65718 11.85 6 11.9357C6 9.54 6.00857 7.74855 6.86572 6.86572ZM12.0643 6C12.1457 8.65718 12.2143 9.87 13.1572 10.8428C14.13 11.7857 15.3428 11.85 18 11.9357C18 9.54 17.9914 7.74855 17.1343 6.86572C16.2514 6.00857 14.5414 6 12.0643 6Z" fill="#0D8BFF"/>
</g>
<defs>
<clipPath id="clip0_7131_9181">
<rect width="24" height="24" rx="6" fill="white"/>
</clipPath>
</defs>
</svg>
