<svg width="24" height="24" viewBox="0 0 24 24" fill="none" xmlns="http://www.w3.org/2000/svg">
<g clip-path="url(#clip0_7131_9176)">
<rect width="24" height="24" rx="6" fill="white"/>
<path d="M16.8216 8.502L10.7357 13.4765L10.4493 13.7111C10.3864 13.761 10.3453 13.8333 10.3348 13.9129L10.2707 14.442L10.0948 15.9284C10.0964 15.9465 10.0908 15.9644 10.0791 15.9784C10.0675 15.9923 10.0508 16.0011 10.0327 16.0027C10.0146 16.0043 9.99666 15.9987 9.98272 15.9871C9.96879 15.9754 9.96004 15.9587 9.95841 15.9406L9.46341 14.4543L8.95205 12.9338C8.93023 12.8657 8.93302 12.7921 8.95994 12.7258C8.98685 12.6595 9.03618 12.6047 9.09932 12.5711L15.432 8.94109L16.6239 8.25928C16.797 8.15837 16.9743 8.37655 16.8216 8.502Z" fill="#0D8BFF"/>
<path d="M20.7273 0H3.27273C2.40475 0 1.57232 0.344804 0.95856 0.95856C0.344804 1.57232 0 2.40475 0 3.27273L0 20.7273C0 21.5953 0.344804 22.4277 0.95856 23.0414C1.57232 23.6552 2.40475 24 3.27273 24H20.7273C21.5953 24 22.4277 23.6552 23.0414 23.0414C23.6552 22.4277 24 21.5953 24 20.7273V3.27273C24 2.40475 23.6552 1.57232 23.0414 0.95856C22.4277 0.344804 21.5953 0 20.7273 0ZM19.485 6.94636L17.1423 17.2977C17.0318 17.7832 16.4155 18.0027 15.9832 17.7068L12.4459 15.3068L10.6445 17.01C10.5711 17.0789 10.4819 17.1289 10.3848 17.1555C10.2877 17.1822 10.1855 17.1848 10.0871 17.163C9.9888 17.1412 9.89725 17.0958 9.82044 17.0306C9.74363 16.9655 9.68387 16.8826 9.64636 16.7891L8.99591 14.88L8.34546 12.9709L4.85864 12.0164C4.76115 11.9951 4.67342 11.9422 4.60909 11.8659C4.54477 11.7896 4.50745 11.6942 4.50294 11.5945C4.49843 11.4948 4.52698 11.3964 4.58415 11.3147C4.64133 11.2329 4.72392 11.1723 4.81909 11.1423L18.2891 6.28909L18.5373 6.20045C19.0595 6.01773 19.5995 6.44045 19.485 6.94636Z" fill="#0D8BFF"/>
</g>
<defs>
<clipPath id="clip0_7131_9176">
<rect width="24" height="24" rx="6" fill="white"/>
</clipPath>
</defs>
</svg>
