<svg width="12" height="12" viewBox="0 0 12 12" fill="none" xmlns="http://www.w3.org/2000/svg">
<path d="M11.8928 5.82006C11.8723 5.78559 11.3788 4.9664 10.4101 4.14407C9.12195 3.05062 7.59696 2.47263 6 2.47263C4.40304 2.47263 2.87805 3.05059 1.58991 4.14405C0.621141 4.9664 0.127711 5.78559 0.10718 5.82006L0 5.99999L0.10718 6.17992C0.127711 6.2144 0.621164 7.03359 1.58991 7.85592C2.87805 8.94937 4.40304 9.52736 6 9.52736C7.59696 9.52736 9.12195 8.94939 10.4101 7.85594C11.3789 7.03359 11.8723 6.21442 11.8928 6.17995L12 5.99999L11.8928 5.82006ZM9.95501 7.31981C8.7791 8.31801 7.44844 8.82412 6 8.82412C4.55963 8.82412 3.23524 8.32331 2.06358 7.33553C1.43562 6.8061 1.02094 6.26995 0.830977 5.99966C1.01813 5.73274 1.4243 5.2071 2.04499 4.6802C3.2209 3.682 4.55156 3.17589 6 3.17589C7.44037 3.17589 8.76476 3.6767 9.93642 4.66448C10.5644 5.19391 10.979 5.73006 11.169 6.00034C10.9819 6.26725 10.5757 6.79288 9.95501 7.31981Z" fill="#7F7F7F"/>
<path d="M6.00251 3.70062C4.73461 3.70062 3.70312 4.73211 3.70312 6.00001C3.70312 7.2679 4.73461 8.29939 6.00251 8.29939C7.27041 8.29939 8.30189 7.2679 8.30189 6.00001C8.30189 4.73211 7.27041 3.70062 6.00251 3.70062ZM6.00251 7.59615C5.12238 7.59615 4.40637 6.88013 4.40637 6.00001C4.40637 5.11988 5.12238 4.40386 6.00251 4.40386C6.88263 4.40386 7.59865 5.11988 7.59865 6.00001C7.59865 6.88013 6.88263 7.59615 6.00251 7.59615Z" fill="#7F7F7F"/>
<path d="M6.00137 6.46233C6.25669 6.46233 6.46367 6.25535 6.46367 6.00002C6.46367 5.7447 6.25669 5.53772 6.00137 5.53772C5.74604 5.53772 5.53906 5.7447 5.53906 6.00002C5.53906 6.25535 5.74604 6.46233 6.00137 6.46233Z" fill="#7F7F7F"/>
</svg>
