<svg width="18" height="18" viewBox="0 0 18 18" fill="none" xmlns="http://www.w3.org/2000/svg">
<path d="M11.7803 10.7197C11.4874 10.4268 11.0126 10.4268 10.7197 10.7197C10.4268 11.0126 10.4268 11.4874 10.7197 11.7803L11.7803 10.7197ZM15.2197 16.2803C15.5126 16.5732 15.9874 16.5732 16.2803 16.2803C16.5732 15.9874 16.5732 15.5126 16.2803 15.2197L15.2197 16.2803ZM7.5 12.75V12C5.01472 12 3 9.98528 3 7.5H2.25H1.5C1.5 10.8137 4.18629 13.5 7.5 13.5V12.75ZM2.25 7.5H3C3 5.01472 5.01472 3 7.5 3V2.25V1.5C4.18629 1.5 1.5 4.18629 1.5 7.5H2.25ZM7.5 2.25V3C9.98528 3 12 5.01472 12 7.5H12.75H13.5C13.5 4.18629 10.8137 1.5 7.5 1.5V2.25ZM12.75 7.5H12C12 9.98528 9.98528 12 7.5 12V12.75V13.5C10.8137 13.5 13.5 10.8137 13.5 7.5H12.75ZM11.25 11.25L10.7197 11.7803L15.2197 16.2803L15.75 15.75L16.2803 15.2197L11.7803 10.7197L11.25 11.25Z" fill="#0D8BFF"/>
</svg>
