<svg width="16" height="15" viewBox="0 0 16 15" fill="none" xmlns="http://www.w3.org/2000/svg">
<path d="M6.92099 0.927052C7.22034 0.00574183 8.52375 0.00574088 8.8231 0.927052L9.86394 4.13043C9.99781 4.54245 10.3818 4.82141 10.815 4.82141L14.1832 4.82141C15.152 4.82141 15.5547 6.06103 14.771 6.63043L12.0461 8.61023C11.6956 8.86487 11.5489 9.31624 11.6828 9.72826L12.7236 12.9316C13.023 13.853 11.9685 14.6191 11.1848 14.0497L8.45983 12.0699C8.10934 11.8152 7.63474 11.8152 7.28426 12.0699L4.5593 14.0497C3.77559 14.6191 2.72111 13.853 3.02046 12.9316L4.0613 9.72826C4.19517 9.31624 4.04852 8.86487 3.69803 8.61023L0.973072 6.63043C0.189358 6.06103 0.592132 4.82141 1.56086 4.82141L4.92909 4.82141C5.36231 4.82141 5.74627 4.54245 5.88015 4.13043L6.92099 0.927052Z" fill="#FFD000"/>
</svg>
