<svg width="28" height="28" viewBox="0 0 28 28" fill="none" xmlns="http://www.w3.org/2000/svg">
<g clip-path="url(#clip0_6398_4340)">
<path d="M21.7527 11.9682C21.6728 11.8852 21.5674 11.8311 21.4533 11.8146V11.8302L16.6257 11.1294L14.4663 6.73264C14.3384 6.47608 14.0267 6.37174 13.7701 6.49963C13.6692 6.54992 13.5874 6.63174 13.5371 6.73264L11.3777 11.1086L6.55008 11.8094C6.26639 11.8505 6.06972 12.1139 6.11092 12.3977C6.12747 12.5117 6.18152 12.6171 6.26458 12.697L9.75809 16.1023L8.93273 20.9091C8.88575 21.192 9.0769 21.4593 9.35968 21.5063C9.47103 21.5248 9.58536 21.5065 9.68541 21.4542L13.9991 19.1909L18.318 21.4594C18.572 21.5923 18.8857 21.494 19.0186 21.2401C19.0709 21.1401 19.0892 21.0257 19.0707 20.9143L18.2453 16.1075L21.7388 12.7022C21.9453 12.5034 21.9516 12.1748 21.7527 11.9682ZM17.3265 15.5573C17.2046 15.6757 17.1483 15.8463 17.176 16.0141L17.8664 20.0578L14.2327 18.1475C14.0816 18.0682 13.9011 18.0682 13.7499 18.1475L10.1163 20.0578L10.8067 16.0141C10.8343 15.8463 10.778 15.6757 10.6561 15.5573L7.71804 12.697L11.7774 12.1053C11.9462 12.0799 12.0917 11.9732 12.1667 11.8198L13.9991 8.15496L15.8159 11.8302C15.8909 11.9836 16.0364 12.0903 16.2053 12.1157L20.2646 12.7074L17.3265 15.5573Z" fill="#0D8BFF"/>
<path d="M27.8962 13.3407L25.6485 10.5636L25.9859 7.03892C26.0025 6.81441 25.8725 6.60476 25.6641 6.51982L22.373 5.17536L20.8988 1.95697C20.8025 1.74875 20.5808 1.62839 20.3537 1.66109L16.8498 2.18018L13.9636 0.103803C13.7791 -0.0346009 13.5253 -0.0346009 13.3407 0.103803L10.5636 2.35149L7.03892 2.01407C6.81311 1.99824 6.60301 2.13055 6.51982 2.3411L5.17536 5.62698L1.95697 7.10121C1.74875 7.1975 1.62839 7.41915 1.66109 7.64626L2.18018 11.1502L0.103803 14.0363C-0.0346009 14.2209 -0.0346009 14.4747 0.103803 14.6592L2.29958 17.4364L1.96216 20.9611C1.94633 21.1869 2.07864 21.397 2.28919 21.4801L5.62698 22.8246L7.10121 26.043C7.1975 26.2512 7.41915 26.3716 7.64626 26.3389L11.1502 25.8198L14.0363 27.8962C14.2209 28.0346 14.4747 28.0346 14.6592 27.8962L17.4364 25.7004L20.9611 26.0378C21.1856 26.0544 21.3952 25.9244 21.4801 25.716L22.8246 22.373L26.043 20.8988C26.2512 20.8025 26.3715 20.5808 26.3389 20.3537L25.8198 16.8498L27.8962 13.9636C28.0346 13.7791 28.0346 13.5253 27.8962 13.3407ZM24.8387 16.419C24.7626 16.5277 24.731 16.6614 24.7504 16.7927L25.2332 20.1149L22.1757 21.5113C22.0548 21.5673 21.96 21.6677 21.911 21.7916L20.6704 24.9062L17.3274 24.5895C17.1951 24.5774 17.0632 24.6164 16.9588 24.6985L14.3218 26.7749L11.5862 24.8283C11.4985 24.7649 11.3933 24.7304 11.2851 24.7297H11.2124L7.89023 25.2124L6.49387 22.1602C6.43787 22.0392 6.33749 21.9444 6.21355 21.8954L3.09898 20.6548L3.41563 17.3118C3.42776 17.1795 3.38877 17.0477 3.30662 16.9433L1.23024 14.3063L3.17685 11.5706C3.25296 11.4619 3.28456 11.3281 3.26509 11.1969L2.78233 7.87466L5.83981 6.47829C5.96075 6.4223 6.05555 6.32192 6.10454 6.19798L7.34518 3.08341L10.6882 3.40006C10.8205 3.41219 10.9523 3.37319 11.0567 3.29105L13.6937 1.21467L16.4293 3.16127C16.5381 3.23739 16.6718 3.26899 16.8031 3.24952L20.1253 2.76676L21.5217 5.82423C21.5777 5.94518 21.6781 6.03998 21.802 6.08897L24.9166 7.32961L24.5999 10.6726C24.5878 10.8049 24.6268 10.9367 24.7089 11.0411L26.7853 13.6781L24.8387 16.419Z" fill="#0D8BFF"/>
</g>
<defs>
<clipPath id="clip0_6398_4340">
<rect width="28" height="28" fill="white"/>
</clipPath>
</defs>
</svg>
