<svg width="28" height="28" viewBox="0 0 28 28" fill="none" xmlns="http://www.w3.org/2000/svg">
<path d="M20.7617 0.130559C20.6807 0.0470397 20.5691 0 20.4528 0H9.62203C8.36506 0.00143999 7.34655 1.01831 7.3451 2.27327V4.31709H4.08356C2.82659 4.31853 1.80808 5.33565 1.80664 6.59036V25.7266C1.80808 26.9816 2.82659 27.9985 4.08356 27.9999H18.4244C19.6814 27.9985 20.6999 26.9816 20.7014 25.7266V23.6831H23.9629C25.2199 23.6816 26.2384 22.6645 26.2398 21.4098V5.93924C26.2398 5.8274 26.1961 5.71988 26.1182 5.63972L20.7617 0.130559ZM20.8836 1.49087L24.7913 5.50989L21.4564 5.50941C21.1403 5.50893 20.8843 5.25333 20.884 4.93797L20.8836 1.49087ZM19.8398 25.7271C19.8391 26.5071 19.2059 27.1393 18.4244 27.1402H4.08356C3.30231 27.1393 2.66914 26.5071 2.66818 25.7271V6.59036C2.66914 5.81036 3.30231 5.17821 4.08356 5.17725H7.3451V21.4098C7.34655 22.6645 8.36529 23.6816 9.62203 23.6831H19.8398V25.7271ZM23.9629 22.8229H9.62203C8.84078 22.8219 8.2076 22.1898 8.20664 21.4098V2.27327C8.2076 1.49327 8.84078 0.861115 9.62203 0.860155H20.022V4.93773C20.023 5.72804 20.6646 6.36836 21.4559 6.36932L25.3783 6.37004V21.4098C25.3773 22.1898 24.7441 22.8219 23.9629 22.8229Z" fill="#0D8BFF"/>
<path d="M22.4122 19.1183H10.8663C10.6286 19.1183 10.4355 19.311 10.4355 19.5484C10.4355 19.786 10.6286 19.9784 10.8663 19.9784H22.4122C22.6502 19.9784 22.843 19.786 22.843 19.5484C22.843 19.311 22.6502 19.1183 22.4122 19.1183Z" fill="#0D8BFF"/>
<path d="M10.8663 17.2792H17.7783C18.0163 17.2792 18.2091 17.0864 18.2091 16.8491C18.2091 16.6115 18.0163 16.419 17.7783 16.419H10.8663C10.6286 16.419 10.4355 16.6115 10.4355 16.8491C10.4355 17.0864 10.6286 17.2792 10.8663 17.2792Z" fill="#0D8BFF"/>
<path d="M14.3396 12.6859C14.3336 12.6859 14.3279 12.6849 14.3218 12.6849C14.3158 12.6849 14.3098 12.6856 14.3041 12.6859C13.5298 12.6753 12.9074 12.0463 12.9065 11.2732C12.9065 11.0356 12.7137 10.8431 12.4757 10.8431C12.2377 10.8431 12.0449 11.0356 12.0449 11.2732C12.0464 12.3623 12.8202 13.2978 13.8911 13.5052V14.213C13.8911 14.4506 14.0839 14.643 14.3218 14.643C14.5598 14.643 14.7526 14.4506 14.7526 14.213V13.5052C15.9043 13.2827 16.6983 12.2231 16.587 11.0572C16.4755 9.89131 15.4949 9.00067 14.3218 8.99995C13.5401 8.99995 12.9065 8.36732 12.9065 7.58684C12.9065 6.80637 13.5401 6.17373 14.3218 6.17373C15.1036 6.17373 15.7372 6.80637 15.7372 7.58684C15.7372 7.82444 15.93 8.01692 16.168 8.01692C16.406 8.01692 16.5988 7.82444 16.5988 7.58684C16.5973 6.49773 15.8235 5.56221 14.7526 5.35485V4.73086C14.7526 4.49326 14.5598 4.30078 14.3218 4.30078C14.0839 4.30078 13.8911 4.49326 13.8911 4.73086V5.35485C12.7394 5.57733 11.9452 6.63693 12.0567 7.80284C12.1682 8.96875 13.1488 9.85939 14.3218 9.86011C15.0944 9.86779 15.7182 10.4927 15.723 11.2641C15.7279 12.0357 15.1122 12.6686 14.3396 12.6859Z" fill="#0D8BFF"/>
</svg>
