<svg width="30" height="30" viewBox="0 0 30 30" fill="none" xmlns="http://www.w3.org/2000/svg">
<path d="M29.9 14.7L27.6 11.624L28.0575 7.80749C28.084 7.58693 27.9618 7.3753 27.7575 7.28799L24.2225 5.78049L22.712 2.24449C22.6248 2.04017 22.4131 1.91799 22.1925 1.94449L18.376 2.40249L15.3 0.0999845C15.1223 -0.0333282 14.8778 -0.0333282 14.7 0.0999845L11.624 2.40249L7.80799 1.94449C7.58743 1.91799 7.37574 2.04017 7.28849 2.24449L5.78049 5.78049L2.24499 7.28799C2.04067 7.3753 1.91849 7.58693 1.94499 7.80749L2.40249 11.624L0.0999845 14.7C-0.0333282 14.8778 -0.0333282 15.1222 0.0999845 15.3L2.40299 18.376L1.94499 22.1925C1.91849 22.4131 2.04067 22.6248 2.24499 22.712L5.77999 24.2195L7.28799 27.7555C7.37524 27.9598 7.58693 28.082 7.80749 28.0555L11.624 27.5975L14.7 29.9C14.8778 30.0333 15.1223 30.0333 15.3 29.9L18.376 27.6L22.192 28.058C22.4126 28.0845 22.6243 27.9623 22.7115 27.758L24.2195 24.222L27.755 22.7145C27.9593 22.6272 28.0815 22.4156 28.055 22.195L27.6 18.376L29.9 15.3C30.0333 15.1223 30.0333 14.8778 29.9 14.7ZM6.35749 23.379L2.98199 21.939L3.41899 18.2965C3.43443 18.1688 3.40005 18.04 3.32299 17.937L1.12449 15L3.32449 12.063C3.40155 11.96 3.43593 11.8312 3.42049 11.7035L3.27499 10.5H7.49999V23.5H6.52449C6.47793 23.4484 6.42099 23.4072 6.35749 23.379ZM26.677 17.939C26.6 18.042 26.5656 18.1708 26.581 18.2985L27.018 21.941L23.6425 23.381C23.5238 23.4315 23.4292 23.5259 23.3785 23.6445L21.939 27.02L18.2965 26.5825C18.1689 26.5673 18.0403 26.6019 17.9375 26.679L15 28.8755L12.0625 26.6755C11.9759 26.6106 11.8707 26.5755 11.7625 26.5755C11.7426 26.5755 11.7227 26.5766 11.703 26.579L8.06049 27.0165L6.98699 24.5H8.49999V23.5H21C22.1046 23.4995 22.9996 22.6037 22.9991 21.4991C22.9989 21.1035 22.8814 20.7168 22.6615 20.388C23.7038 20.0224 24.2524 18.881 23.8868 17.8388C23.8068 17.6109 23.6863 17.3994 23.531 17.2145C23.6701 17.1302 23.7984 17.0294 23.9135 16.9145C24.689 16.1483 24.6966 14.8984 23.9303 14.1229C23.8073 13.9984 23.6683 13.8908 23.517 13.803C23.8616 13.4034 24.0332 12.8832 23.994 12.357C23.8933 11.2896 22.987 10.4801 21.915 10.5H17V6.49999C16.9984 5.11999 15.88 4.00161 14.5 3.99999H13.5C13.2239 3.99999 13 4.22386 13 4.49999V6.49999C12.9975 8.70812 11.2081 10.4975 8.99999 10.5H8.49999V9.5H3.15499L2.98199 8.06099L6.35749 6.62099C6.47618 6.57049 6.57074 6.47612 6.62149 6.35749L8.06099 2.98199L11.7035 3.41949C11.8311 3.43505 11.9599 3.40049 12.0625 3.32299L15 1.12449L17.9375 3.32449C18.0402 3.40186 18.1689 3.43649 18.2965 3.42099L21.939 2.98349L23.379 6.35899C23.4296 6.47749 23.524 6.57187 23.6425 6.62249L27.018 8.06249L26.581 11.705C26.5656 11.8327 26.6 11.9615 26.677 12.0645L28.8755 15L26.677 17.939ZM16.5 11.5H21.915C22.4604 11.4854 22.9281 11.8867 22.9965 12.428C23.0201 12.7177 22.9138 13.0028 22.7065 13.2065C22.5198 13.3949 22.2653 13.5006 22 13.5H21C20.7239 13.5 20.5 13.7239 20.5 14C20.5 14.2761 20.7239 14.5 21 14.5H22.415C22.9604 14.4854 23.4281 14.8867 23.4965 15.428C23.5201 15.7177 23.4138 16.0028 23.2065 16.2065C23.0198 16.3949 22.7653 16.5006 22.5 16.5H21C20.7239 16.5 20.5 16.7239 20.5 17C20.5 17.2761 20.7239 17.5 21 17.5H22C22.5523 17.5 23 17.9477 23 18.5C23 19.0523 22.5523 19.5 22 19.5H20.5C20.2239 19.5 20 19.7239 20 20C20 20.2761 20.2239 20.5 20.5 20.5H21C21.5523 20.5 22 20.9477 22 21.5C22 22.0523 21.5523 22.5 21 22.5H8.49999V11.5H8.99999C11.7602 11.4969 13.9969 9.26018 14 6.49999V4.99999H14.5C15.3284 4.99999 16 5.67155 16 6.49999V11C16 11.2761 16.2239 11.5 16.5 11.5Z" fill="#0D8BFF"/>
</svg>
