<svg width="30" height="30" viewBox="0 0 30 30" fill="none" xmlns="http://www.w3.org/2000/svg">
<g clip-path="url(#clip0_6398_4540)">
<path d="M15 7.96875C11.123 7.96875 7.96875 11.123 7.96875 15C7.96875 18.877 11.123 22.0312 15 22.0312C18.877 22.0312 22.0312 18.877 22.0312 15C22.0312 11.123 18.877 7.96875 15 7.96875ZM15 21.0938C11.64 21.0938 8.90625 18.36 8.90625 15C8.90625 11.64 11.64 8.90625 15 8.90625C18.36 8.90625 21.0938 11.64 21.0938 15C21.0938 18.36 18.36 21.0938 15 21.0938Z" fill="#0D8BFF"/>
<path d="M15 9.84375C12.157 9.84375 9.84375 12.157 9.84375 15C9.84375 17.843 12.157 20.1562 15 20.1562C17.843 20.1562 20.1562 17.843 20.1562 15C20.1562 12.157 17.843 9.84375 15 9.84375ZM15 19.2188C12.6736 19.2188 10.7812 17.3264 10.7812 15C10.7812 12.6736 12.6736 10.7812 15 10.7812C17.3264 10.7812 19.2188 12.6736 19.2188 15C19.2188 17.3264 17.3264 19.2188 15 19.2188Z" fill="#0D8BFF"/>
<path d="M14.5312 13.5938H15.4688C15.7275 13.5938 15.9375 13.8038 15.9375 14.0625H16.875C16.875 13.2872 16.2441 12.6562 15.4688 12.6562V11.7188H14.5312V12.6562C13.7559 12.6562 13.125 13.2872 13.125 14.0625C13.125 14.8378 13.7559 15.4688 14.5312 15.4688H15.4688C15.7275 15.4688 15.9375 15.6788 15.9375 15.9375C15.9375 16.1962 15.7275 16.4062 15.4688 16.4062H14.5312C14.2725 16.4062 14.0625 16.1962 14.0625 15.9375H13.125C13.125 16.7128 13.7559 17.3438 14.5312 17.3438V18.2812H15.4688V17.3438C16.2441 17.3438 16.875 16.7128 16.875 15.9375C16.875 15.1622 16.2441 14.5312 15.4688 14.5312H14.5312C14.2725 14.5312 14.0625 14.3212 14.0625 14.0625C14.0625 13.8038 14.2725 13.5938 14.5312 13.5938Z" fill="#0D8BFF"/>
<path d="M28.125 20.1562H24.375C23.5997 20.1562 22.9688 20.7872 22.9688 21.5625V28.125C22.9688 28.9003 23.5997 29.5312 24.375 29.5312H28.125C28.9003 29.5312 29.5312 28.9003 29.5312 28.125V21.5625C29.5312 20.7872 28.9003 20.1562 28.125 20.1562ZM24.375 21.0938H28.125C28.3837 21.0938 28.5938 21.3038 28.5938 21.5625V22.0312H23.9062V21.5625C23.9062 21.3038 24.1163 21.0938 24.375 21.0938ZM28.5938 22.9688V26.7188H23.9062V22.9688H28.5938ZM28.125 28.5938H24.375C24.1163 28.5938 23.9062 28.3837 23.9062 28.125V27.6562H28.5938V28.125C28.5938 28.3837 28.3837 28.5938 28.125 28.5938Z" fill="#0D8BFF"/>
<path d="M11.5814 24.15L10.1967 23.9522L10.118 23.7159C9.59531 22.1475 8.13375 21.0938 6.48 21.0938H5.66391C3.87844 21.0938 2.355 22.3064 1.93922 24.0155L1.75125 24.0783C0.984375 24.3342 0.46875 25.0491 0.46875 25.8572V27.1875C0.46875 27.9628 1.09969 28.5938 1.875 28.5938H2.60438C2.92969 29.1516 3.52781 29.5312 4.21875 29.5312C4.90969 29.5312 5.50781 29.1516 5.83313 28.5938H8.22937C8.55469 29.1516 9.15281 29.5312 9.84375 29.5312C10.5347 29.5312 11.1328 29.1516 11.4581 28.5938H12.1875C12.9628 28.5938 13.5938 27.9628 13.5938 27.1875V26.4698C13.5938 25.3111 12.7284 24.3136 11.5814 24.15ZM4.21875 28.5938C3.70172 28.5938 3.28125 28.1733 3.28125 27.6562C3.28125 27.1392 3.70172 26.7188 4.21875 26.7188C4.73578 26.7188 5.15625 27.1392 5.15625 27.6562C5.15625 28.1733 4.73578 28.5938 4.21875 28.5938ZM9.84375 28.5938C9.32672 28.5938 8.90625 28.1733 8.90625 27.6562C8.90625 27.1392 9.32672 26.7188 9.84375 26.7188C10.3608 26.7188 10.7812 27.1392 10.7812 27.6562C10.7812 28.1733 10.3608 28.5938 9.84375 28.5938ZM12.6562 27.1875C12.6562 27.4462 12.4462 27.6562 12.1875 27.6562H11.7188C11.7188 26.6222 10.8778 25.7812 9.84375 25.7812C8.80969 25.7812 7.96875 26.6222 7.96875 27.6562H6.09375C6.09375 26.6222 5.25281 25.7812 4.21875 25.7812C3.18469 25.7812 2.34375 26.6222 2.34375 27.6562H1.875C1.61625 27.6562 1.40625 27.4462 1.40625 27.1875V25.8572C1.40625 25.4531 1.66406 25.0959 2.0475 24.968L2.76 24.7303L2.80641 24.4519C3.03984 23.0494 4.24172 22.0312 5.66391 22.0312H6.48C7.72922 22.0312 8.83359 22.8272 9.22875 24.0127L9.49078 24.7983L11.4487 25.0786C12.1373 25.1761 12.6562 25.7742 12.6562 26.4698V27.1875Z" fill="#0D8BFF"/>
<path d="M26.7188 0.46875H22.9688C21.4177 0.46875 20.1562 1.73016 20.1562 3.28125V5.15625H22.0312V9.84375H27.6562V5.15625H29.5312V3.28125C29.5312 1.73016 28.2698 0.46875 26.7188 0.46875ZM25.7812 1.40625C25.7812 1.92328 25.3608 2.34375 24.8438 2.34375C24.3267 2.34375 23.9062 1.92328 23.9062 1.40625H25.7812ZM28.5938 4.21875H27.6562V3.28125H26.7188V8.90625H22.9688V3.28125H22.0312V4.21875H21.0938V3.28125C21.0938 2.24719 21.9347 1.40625 22.9688 1.40625C22.9688 2.44031 23.8097 3.28125 24.8438 3.28125C25.8778 3.28125 26.7188 2.44031 26.7188 1.40625C27.7528 1.40625 28.5938 2.24719 28.5938 3.28125V4.21875Z" fill="#0D8BFF"/>
<path d="M1.875 7.96875H3.28125V8.90625H2.34375V9.84375H8.90625V8.90625H7.96875V7.96875H9.375C10.1503 7.96875 10.7812 7.33781 10.7812 6.5625V1.875C10.7812 1.09969 10.1503 0.46875 9.375 0.46875H1.875C1.09969 0.46875 0.46875 1.09969 0.46875 1.875V6.5625C0.46875 7.33781 1.09969 7.96875 1.875 7.96875ZM7.03125 8.90625H4.21875V7.96875H7.03125V8.90625ZM9.375 7.03125H1.875C1.61625 7.03125 1.40625 6.82125 1.40625 6.5625V6.09375H9.84375V6.5625C9.84375 6.82125 9.63375 7.03125 9.375 7.03125ZM1.875 1.40625H9.375C9.63375 1.40625 9.84375 1.61625 9.84375 1.875V5.15625H1.40625V1.875C1.40625 1.61625 1.61625 1.40625 1.875 1.40625Z" fill="#0D8BFF"/>
<path d="M22.9688 16.4062H25.7812V19.2188H26.7188V15.4688H22.9688V16.4062Z" fill="#0D8BFF"/>
<path d="M24.375 10.7812V13.5938H22.9688V14.5312H25.3125V10.7812H24.375Z" fill="#0D8BFF"/>
<path d="M7.03125 13.5938H6.09375V10.7812H5.15625V14.5312H7.03125V13.5938Z" fill="#0D8BFF"/>
<path d="M5.15625 20.1562H6.09375V16.4062H7.03125V15.4688H5.15625V20.1562Z" fill="#0D8BFF"/>
</g>
<defs>
<clipPath id="clip0_6398_4540">
<rect width="30" height="30" fill="white"/>
</clipPath>
</defs>
</svg>
