<svg width="31" height="30" viewBox="0 0 31 30" fill="none" xmlns="http://www.w3.org/2000/svg">
<g clip-path="url(#clip0_6398_4575)">
<path d="M15.7754 3.34619H18.8392V3.98313H15.7754V3.34619Z" fill="#0D8BFF"/>
<path d="M20.0762 5.70667H23.6217V6.34361H20.0762V5.70667Z" fill="#0D8BFF"/>
<path d="M23.6211 1.66003H26.4617V2.29698H23.6211V1.66003Z" fill="#0D8BFF"/>
<path d="M11.3558 8.328H10.7189V9.52973H5.47679V8.328H4.83984V10.1667H11.3558V8.328Z" fill="#0D8BFF"/>
<path d="M11.3558 11.3717H10.7189V12.5734H5.47679V11.3717H4.83984V13.2104H11.3558V11.3717Z" fill="#0D8BFF"/>
<path d="M11.3558 14.4153H10.7189V15.617H5.47679V14.4153H4.83984V16.254H11.3558V14.4153Z" fill="#0D8BFF"/>
<path d="M8.28456 18.6607H5.47679V17.459H4.83984V19.2977H8.28456V18.6607Z" fill="#0D8BFF"/>
<path d="M4.83984 20.5026V22.3412H8.28456V21.7043H5.47679V20.5026H4.83984Z" fill="#0D8BFF"/>
<path d="M18.0223 19.9044C16.7145 19.9044 15.6504 20.9686 15.6504 22.2763C15.6504 23.5843 16.7145 24.6484 18.0223 24.6484C19.3302 24.6484 20.3941 23.5843 20.3941 22.2763C20.3941 20.9686 19.3302 19.9044 18.0223 19.9044ZM18.0223 24.0115C17.0656 24.0115 16.2873 23.2329 16.2873 22.2763C16.2873 21.3196 17.0656 20.5414 18.0223 20.5414C18.9789 20.5414 19.7572 21.3196 19.7572 22.2763C19.7572 23.2329 18.9789 24.0115 18.0223 24.0115Z" fill="#0D8BFF"/>
<path d="M18.1125 21.9708C17.9254 21.9158 17.8935 21.8792 17.8908 21.876C17.8908 21.876 17.8875 21.8685 17.8856 21.8481C17.8796 21.7799 17.9147 21.6996 17.9923 21.6844C17.996 21.6836 17.9998 21.6831 18.0037 21.6829C18.0393 21.6784 18.0662 21.6946 18.0826 21.7088C18.1095 21.7326 18.1247 21.7667 18.1247 21.8023V21.8185L18.7616 21.821V21.8043C18.7621 21.5856 18.6688 21.3773 18.5051 21.2323C18.4551 21.188 18.3998 21.1519 18.3414 21.1231V20.8419H17.7044V21.1129C17.4083 21.246 17.2205 21.5595 17.2514 21.9046C17.2949 22.3947 17.7261 22.5214 17.9331 22.5821C18.1587 22.6482 18.16 22.6938 18.161 22.7269C18.1627 22.7926 18.1269 22.8475 18.0717 22.864C18.062 22.8667 18.0523 22.8689 18.0426 22.8702C18.0067 22.8747 17.9794 22.8585 17.9629 22.8441C17.9358 22.8204 17.9204 22.7863 17.9204 22.7505H17.2834C17.2834 22.9692 17.3777 23.1777 17.542 23.3223C17.5917 23.3661 17.6465 23.4021 17.7044 23.4307V23.7111H18.3414V23.4414C18.6225 23.3175 18.8066 23.0292 18.7977 22.7092C18.7825 22.1673 18.2782 22.0195 18.1125 21.9708Z" fill="#0D8BFF"/>
<path d="M11.1885 19.529C11.1885 19.7815 10.9838 19.9865 10.731 19.9865C10.4782 19.9865 10.2734 19.7815 10.2734 19.529C10.2734 19.2762 10.4782 19.0714 10.731 19.0714C10.9838 19.0714 11.1885 19.2762 11.1885 19.529Z" fill="#0D8BFF"/>
<path d="M25.7474 19.529C25.7474 19.7815 25.5424 19.9865 25.2896 19.9865C25.037 19.9865 24.832 19.7815 24.832 19.529C24.832 19.2762 25.037 19.0714 25.2896 19.0714C25.5424 19.0714 25.7474 19.2762 25.7474 19.529Z" fill="#0D8BFF"/>
<path d="M11.1885 27.7908C11.1885 28.0433 10.9838 28.2484 10.731 28.2484C10.4785 28.2484 10.2734 28.0433 10.2734 27.7908C10.2734 27.538 10.4785 27.3333 10.731 27.3333C10.9838 27.3333 11.1885 27.538 11.1885 27.7908Z" fill="#0D8BFF"/>
<path d="M25.7469 27.7908C25.7469 28.0433 25.5421 28.2484 25.2893 28.2484C25.0368 28.2484 24.832 28.0433 24.832 27.7908C24.832 27.538 25.0368 27.3333 25.2893 27.3333C25.5421 27.3333 25.7469 27.538 25.7469 27.7908Z" fill="#0D8BFF"/>
<path d="M21.1504 21.9579H23.9109V22.5948H21.1504V21.9579Z" fill="#0D8BFF"/>
<path d="M12.1094 21.9579H14.896V22.5948H12.1094V21.9579Z" fill="#0D8BFF"/>
<path d="M13.6035 25.2684H22.4085V25.9054H13.6035V25.2684Z" fill="#0D8BFF"/>
<path d="M13.6035 26.4216H22.4085V27.0586H13.6035V26.4216Z" fill="#0D8BFF"/>
<path d="M26.781 28.6549V18.0371H20.3473V12.5219H19.7104V18.0371H18.9816V12.5219H18.3447V18.0371H17.4079V12.5219H16.771V18.0371H15.8905V12.5219H15.2535V18.0371H14.4683V12.5219H13.8314V18.0371H9.2394V28.6549H8.41585V24.8606H7.77891V28.6549H5.47621V23.8746H8.28399V23.2377H4.83927V28.6549H3.91969V6.95757H12.2751V17.0817H12.912V11.3751H21.2669V17.0817H21.9039V10.7382H20.3473V8.3265H13.8314V10.7382H12.912V6.32062H11.8765V3.90895H10.7128V2.04515H8.41585V0.796143H7.77891V2.04515H5.48169V3.90895H4.31802V6.32062H3.28274V28.6549H0V29.2919H3.28274V29.2921H12.5936V29.2919H30.0637V28.6549H26.781ZM14.4683 8.96344H19.7104V10.7382H14.4683V8.96344ZM6.11863 2.68209H10.0759V3.90895H6.11863V2.68209ZM4.95497 4.54589H11.2396V6.32062H4.95497V4.54589ZM26.144 28.6549H9.87634V18.6741H26.144V28.6549Z" fill="#0D8BFF"/>
</g>
<defs>
<clipPath id="clip0_6398_4575">
<rect width="30.0637" height="30" fill="white"/>
</clipPath>
</defs>
</svg>
