<svg width="30" height="30" viewBox="0 0 30 30" fill="none" xmlns="http://www.w3.org/2000/svg">
<path d="M6.46387 4.64363C6.57626 4.59705 6.67232 4.51819 6.73991 4.41703C6.80749 4.31586 6.84356 4.19693 6.84356 4.07527C6.84356 3.95361 6.80749 3.83467 6.73991 3.73351C6.67232 3.63234 6.57626 3.55349 6.46387 3.50691C5.80586 3.23445 5.66524 3.09382 5.39278 2.43581C5.34641 2.3232 5.26763 2.2269 5.16644 2.15913C5.06525 2.09136 4.94621 2.05518 4.82442 2.05518C4.70263 2.05518 4.58359 2.09136 4.48239 2.15913C4.3812 2.2269 4.30242 2.3232 4.25606 2.43581C3.98301 3.09382 3.8459 3.23445 3.18438 3.50691C3.07198 3.55349 2.97593 3.63234 2.90834 3.73351C2.84076 3.83467 2.80469 3.95361 2.80469 4.07527C2.80469 4.19693 2.84076 4.31586 2.90834 4.41703C2.97593 4.51819 3.07198 4.59705 3.18438 4.64363C3.82891 4.91082 3.98887 5.07078 4.25606 5.71531C4.30264 5.8277 4.38149 5.92376 4.48266 5.99134C4.58382 6.05893 4.70275 6.095 4.82442 6.095C4.94608 6.095 5.06501 6.05893 5.16618 5.99134C5.26734 5.92376 5.3462 5.8277 5.39278 5.71531C5.65938 5.07078 5.81992 4.91082 6.46387 4.64363ZM4.82325 5.25886C4.542 4.64128 4.25723 4.35652 3.64024 4.07527C4.26543 3.79285 4.54141 3.5157 4.82442 2.89226C5.10684 3.5157 5.3834 3.79285 6.00742 4.07527C5.39278 4.35652 5.10508 4.64128 4.82442 5.25886H4.82325Z" fill="#0D8BFF"/>
<path d="M27.042 16.4327C26.384 16.1597 26.2434 16.0196 25.9709 15.3616C25.9243 15.2492 25.8455 15.1532 25.7443 15.0856C25.6431 15.018 25.5242 14.9819 25.4025 14.9819C25.2809 14.9819 25.1619 15.018 25.0608 15.0856C24.9596 15.1532 24.8808 15.2492 24.8342 15.3616C24.5611 16.0202 24.4211 16.1603 23.7625 16.4333C23.6501 16.4799 23.5541 16.5587 23.4865 16.6599C23.4189 16.7611 23.3828 16.88 23.3828 17.0017C23.3828 17.1233 23.4189 17.2423 23.4865 17.3434C23.5541 17.4446 23.6501 17.5234 23.7625 17.57C24.407 17.8372 24.567 17.9972 24.8342 18.6411C24.8808 18.7535 24.9596 18.8496 25.0608 18.9172C25.1619 18.9847 25.2809 19.0208 25.4025 19.0208C25.5242 19.0208 25.6431 18.9847 25.7443 18.9172C25.8455 18.8496 25.9243 18.7535 25.9709 18.6411C26.2375 17.9966 26.3981 17.8366 27.042 17.5694C27.1546 17.5231 27.2509 17.4443 27.3187 17.3431C27.3865 17.2419 27.4226 17.1229 27.4226 17.0011C27.4226 16.8793 27.3865 16.7602 27.3187 16.6591C27.2509 16.5579 27.1546 16.4791 27.042 16.4327ZM25.4014 18.1841C25.1201 17.5671 24.8354 17.2823 24.2184 17.0011C24.8424 16.7187 25.1184 16.4421 25.4014 15.8181C25.6838 16.4421 25.9604 16.7187 26.5844 17.0011C25.9686 17.2853 25.6832 17.5671 25.4025 18.1841H25.4014Z" fill="#0D8BFF"/>
<path d="M22.6592 21.3493H20.0981C19.9893 21.3493 19.885 21.3925 19.8081 21.4694C19.7311 21.5464 19.6879 21.6507 19.6879 21.7595V22.5253L17.9143 22.994L13.7934 21.2298C13.7805 21.2245 13.7676 21.2198 13.7541 21.2157C13.4967 21.1348 13.2208 21.1338 12.9628 21.2128C12.7047 21.2918 12.4767 21.4472 12.3087 21.6584C12.1407 21.8696 12.0407 22.1267 12.0217 22.3959C12.0028 22.6651 12.0658 22.9337 12.2026 23.1663H11.9682C11.5841 23.1669 11.2013 23.1203 10.8286 23.0274L7.8098 22.2739C7.3509 22.1598 6.86608 22.2182 6.44735 22.4379C6.02862 22.6576 5.70512 23.0234 5.53824 23.4659C5.37136 23.9083 5.37272 24.3966 5.54206 24.8382C5.7114 25.2797 6.03693 25.6437 6.45687 25.861L9.55121 27.4577C9.9969 27.6878 10.491 27.8083 10.9926 27.8093H19.6879V28.2646C19.6879 28.3733 19.7311 28.4777 19.8081 28.5546C19.885 28.6315 19.9893 28.6747 20.0981 28.6747H22.6569C22.7657 28.6747 22.87 28.6315 22.9469 28.5546C23.0238 28.4777 23.067 28.3733 23.067 28.2646V21.7606C23.0673 21.6521 23.0246 21.5478 22.9481 21.4707C22.8717 21.3936 22.7678 21.3499 22.6592 21.3493ZM19.6879 26.9872H10.9926C10.6221 26.9869 10.2569 26.8983 9.92738 26.7288L6.83305 25.131C6.59155 25.006 6.40434 24.7967 6.30697 24.5428C6.20959 24.2889 6.20883 24.0081 6.30481 23.7536C6.4008 23.4992 6.58686 23.2889 6.82767 23.1626C7.06849 23.0363 7.34729 23.0028 7.61117 23.0685L10.6299 23.8226C11.0671 23.9315 11.5159 23.9866 11.9664 23.9866H13.3727L14.22 24.3968C14.2749 24.4231 14.3349 24.4371 14.3957 24.4378C14.4887 24.438 14.5789 24.4067 14.6517 24.349C14.7246 24.2912 14.7756 24.2104 14.7965 24.1199C14.8174 24.0293 14.8069 23.9344 14.7668 23.8505C14.7267 23.7667 14.6593 23.699 14.5756 23.6585L13.1243 22.9554C13.0088 22.8988 12.9185 22.8012 12.8712 22.6816C12.8238 22.5621 12.8227 22.4291 12.8681 22.3088C12.9135 22.1885 13.0022 22.0894 13.1167 22.031C13.2312 21.9725 13.3635 21.9589 13.4875 21.9927L17.7192 23.805C17.8032 23.8409 17.8968 23.8477 17.9852 23.8243L19.6844 23.3731L19.6879 26.9872ZM22.2467 27.8526H20.5082V22.169H22.2467V27.8526Z" fill="#0D8BFF"/>
<path d="M6.26175 11.1036C6.25867 12.2012 6.47188 13.2887 6.88919 14.3038C7.3065 15.319 7.91974 16.242 8.69388 17.0201C9.46801 17.7983 10.3879 18.4162 11.4009 18.8387C12.4139 19.2612 13.5003 19.48 14.5979 19.4825H14.6207C15.737 19.4863 16.8426 19.2645 17.8711 18.8306C18.8996 18.3966 19.8299 17.7594 20.6061 16.9571C21.5948 15.9436 22.3099 14.6956 22.6844 13.3302L22.7371 13.3079L22.7073 13.2399C23.0297 12.0056 23.0654 10.7138 22.8115 9.46352C22.5576 8.21326 22.0209 7.03769 21.2425 6.02689C20.4641 5.01609 19.4647 4.19688 18.3207 3.63201C17.1768 3.06715 15.9188 2.77162 14.643 2.76807C14.5024 2.76807 14.3641 2.76807 14.2328 2.77686C13.4025 2.81414 12.5825 2.9757 11.8 3.25615C10.618 3.68248 9.5464 4.36822 8.66409 5.26299C7.1283 6.81944 6.26553 8.91701 6.26175 11.1036ZM8.05765 14.8378C7.14273 13.2164 6.85835 11.3145 7.25902 9.49639C7.72777 10.428 8.16019 11.4733 8.10628 11.8759L8.09046 11.9931L8.14906 12.0962C8.17835 12.1466 8.8639 13.3173 10.4055 13.7849C10.4641 14.0017 10.3727 14.6913 10.2022 15.3083L10.1582 15.4677L10.2532 15.603C10.2772 15.6376 10.8303 16.4233 11.4965 16.8071C11.5721 16.9513 11.6993 17.3438 11.2463 17.8653C9.9069 17.1944 8.79704 16.1407 8.05765 14.8378ZM20.8346 6.8585C21.7037 8.11915 22.1656 9.61581 22.1582 11.147C22.1575 11.4338 22.1404 11.7204 22.1073 12.0054C21.9063 11.6685 21.8114 11.6351 21.7328 11.6087C21.5934 11.5612 20.8926 11.2331 20.3043 10.9325C20.2082 10.8833 20.1502 10.854 20.3307 10.4005C20.3738 10.302 20.408 10.1998 20.4326 10.0952C20.4912 9.80225 20.2856 9.47061 20.0483 9.08857C19.9504 8.93096 19.7869 8.66728 19.7723 8.57998C19.6809 8.01807 18.9028 7.75264 18.0789 7.47256C16.9071 7.07236 16.0282 6.66631 15.4809 6.26494C15.4484 6.24323 15.4198 6.21607 15.3965 6.18467C15.4223 6.07979 15.6977 5.85478 15.8319 5.7458C16.1102 5.51846 16.3504 5.32217 16.3504 5.03506C16.3534 4.89209 16.5596 4.37646 16.7805 3.90537C18.4288 4.39924 19.8591 5.44108 20.8346 6.8585ZM9.24769 5.83838C10.0433 5.03148 11.0095 4.41302 12.0754 4.02842C12.7813 3.77531 13.5212 3.62974 14.2703 3.59658C14.3828 3.59072 14.4994 3.58838 14.6172 3.58838H14.6407C15.1254 3.58987 15.6089 3.63814 16.0844 3.73252C15.9016 4.13037 15.6807 4.66123 15.6508 4.96885C15.5681 5.05262 15.48 5.13091 15.3871 5.20322C15.0725 5.45986 14.684 5.77979 14.6922 6.20986C14.6987 6.44834 14.8246 6.65869 15.0666 6.83506C15.6819 7.28447 16.5936 7.71396 17.8528 8.14053C18.2201 8.26533 18.983 8.52549 19.0803 8.7042C19.1196 8.92803 19.2731 9.17588 19.4512 9.46182C19.5491 9.62002 19.7096 9.879 19.7366 9.98506C19.7248 10.0249 19.6991 10.0894 19.678 10.1427C19.5532 10.4567 19.2608 11.1909 19.985 11.5612C20.4678 11.8079 21.1516 12.1349 21.4311 12.2479C21.5219 12.3745 21.7071 12.7419 21.8887 13.1362C21.6592 13.9687 21.2875 14.7553 20.7901 15.4612C20.558 15.7903 20.3003 16.1007 20.0196 16.3894C19.3195 17.113 18.4805 17.6878 17.5529 18.0791C16.6253 18.4705 15.6281 18.6704 14.6213 18.6669H14.6002C13.681 18.6641 12.77 18.4927 11.9125 18.1612C12.6467 17.1587 12.0297 16.3384 12.0244 16.3284L11.9764 16.2669L11.9073 16.2312C11.4971 16.0208 11.1004 15.5532 10.9252 15.3282C10.9692 15.1478 11.0371 14.8472 11.0817 14.5366C11.1291 14.1979 11.2575 13.2997 10.6715 13.1304C9.924 12.9161 9.26997 12.4572 8.8141 11.8272C8.8182 10.9337 7.94046 9.24268 7.54495 8.52607C7.5555 8.49678 7.56605 8.46748 7.57718 8.4376C7.94749 7.46459 8.51641 6.57939 9.24769 5.83838Z" fill="#0D8BFF"/>
<path d="M12.3643 12.6662L14.0635 14.0039C14.2221 14.1289 14.4182 14.1969 14.6201 14.1969C14.8221 14.1969 15.0182 14.1289 15.1768 14.0039L16.876 12.6645C17.114 12.4783 17.3063 12.2403 17.4383 11.9686C17.5703 11.6969 17.6385 11.3986 17.6377 11.0965V10.81C17.6368 10.4605 17.5385 10.1183 17.3539 9.82159C17.1693 9.52492 16.9056 9.28559 16.5925 9.13046C16.2794 8.97533 15.9292 8.91056 15.5813 8.94341C15.2335 8.97625 14.9016 9.10542 14.6231 9.31641C14.3444 9.10448 14.0121 8.97459 13.6636 8.94135C13.3151 8.90812 12.9643 8.97287 12.6506 9.12831C12.3369 9.28375 12.0729 9.5237 11.8882 9.82113C11.7036 10.1186 11.6056 10.4616 11.6055 10.8117V11.0982C11.6043 11.4001 11.672 11.6983 11.8035 11.97C11.935 12.2417 12.1268 12.4799 12.3643 12.6662ZM12.4229 10.8117C12.4228 10.5931 12.4904 10.3798 12.6164 10.2011C12.7424 10.0224 12.9206 9.88714 13.1266 9.81381C13.3325 9.74049 13.5562 9.73273 13.7667 9.79159C13.9773 9.85046 14.1645 9.97307 14.3026 10.1426C14.341 10.1897 14.3895 10.2276 14.4444 10.2536C14.4993 10.2797 14.5593 10.2932 14.6201 10.2932C14.6809 10.2932 14.7409 10.2797 14.7959 10.2536C14.8508 10.2276 14.8992 10.1897 14.9377 10.1426C15.0758 9.97307 15.263 9.85046 15.4735 9.79159C15.6841 9.73273 15.9077 9.74049 16.1137 9.81381C16.3197 9.88714 16.4979 10.0224 16.6239 10.2011C16.7499 10.3798 16.8175 10.5931 16.8174 10.8117V11.0982C16.8177 11.2762 16.7776 11.4519 16.6999 11.612C16.6222 11.7721 16.5091 11.9124 16.3692 12.0223L14.6729 13.3594C14.6586 13.3705 14.6411 13.3765 14.6231 13.3765C14.605 13.3765 14.5875 13.3705 14.5733 13.3594L12.874 12.0199C12.7341 11.91 12.621 11.7697 12.5433 11.6096C12.4656 11.4495 12.4255 11.2738 12.4258 11.0959L12.4229 10.8117Z" fill="#0D8BFF"/>
</svg>
