<svg width="30" height="30" viewBox="0 0 30 30" fill="none" xmlns="http://www.w3.org/2000/svg">
<g clip-path="url(#clip0_7088_11777)">
<path d="M10.5254 12.5441C10.8737 12.5441 11.1562 12.2617 11.1562 11.9133C11.1562 11.5649 10.8737 11.2825 10.5254 11.2825C10.177 11.2825 9.89453 11.5649 9.89453 11.9133C9.89453 12.2617 10.177 12.5441 10.5254 12.5441Z" fill="#0D8BFF"/>
<path d="M14.6425 12.5441C14.9909 12.5441 15.2734 12.2617 15.2734 11.9133C15.2734 11.5649 14.9909 11.2825 14.6425 11.2825C14.2941 11.2825 14.0117 11.5649 14.0117 11.9133C14.0117 12.2617 14.2941 12.5441 14.6425 12.5441Z" fill="#0D8BFF"/>
<path d="M6.63604 10.1143H18.2595C18.8751 10.1143 19.376 9.61347 19.376 8.99783C19.376 8.38218 18.8751 7.88132 18.2595 7.88132H18.1395V6.7875C18.1395 4.51025 16.6925 2.48566 14.5389 1.7496C14.3093 1.67085 14.0595 1.79367 13.981 2.0233C13.9025 2.25298 14.025 2.50277 14.2547 2.58123C16.0526 3.19576 17.2606 4.88613 17.2606 6.7875V7.88132H15.3642C15.1214 7.88132 14.9247 8.07802 14.9247 8.32078C14.9247 8.56353 15.1214 8.76023 15.3642 8.76023H18.2595C18.3905 8.76023 18.4971 8.86681 18.4971 8.99783C18.4971 9.12884 18.3905 9.23542 18.2595 9.23542H6.63604C6.50502 9.23542 6.39844 9.12884 6.39844 8.99783C6.39844 8.86681 6.50502 8.76023 6.63604 8.76023H10.0606C10.3033 8.76023 10.5001 8.56353 10.5001 8.32078C10.5001 8.07802 10.3033 7.88132 10.0606 7.88132H7.66066V6.7875C7.66066 4.66277 9.15041 2.86195 11.1892 2.43761V6.75287C11.1892 6.99562 11.3859 7.19232 11.6286 7.19232C11.8713 7.19232 12.0681 6.99562 12.0681 6.75287V1.66687H12.8633V5.04404C12.8633 5.28679 13.06 5.48349 13.3027 5.48349C13.5454 5.48349 13.7422 5.28679 13.7422 5.04404V1.22742C13.7422 0.984663 13.5454 0.787964 13.3027 0.787964H11.6286C11.3859 0.787964 11.1892 0.984663 11.1892 1.22742V1.54417C8.655 1.98187 6.78176 4.1806 6.78176 6.78755V7.88138H6.63604C6.02039 7.88138 5.51953 8.38224 5.51953 8.99789C5.51953 9.61353 6.02039 10.1143 6.63604 10.1143Z" fill="#0D8BFF"/>
<path d="M13.2988 5.85547C13.0561 5.85547 12.8594 6.05217 12.8594 6.29492V6.75289C12.8594 6.99564 13.0561 7.19234 13.2988 7.19234C13.5415 7.19234 13.7383 6.99564 13.7383 6.75289V6.29492C13.7383 6.05217 13.5415 5.85547 13.2988 5.85547Z" fill="#0D8BFF"/>
<path d="M27.7498 21.0494C27.7498 20.6245 27.4042 20.2788 26.9793 20.2788C26.9596 20.2788 26.9404 20.2803 26.9212 20.2817L26.1321 19.3121C26.1516 19.2443 26.1627 19.173 26.1627 19.0991C26.1627 18.6741 25.817 18.3285 25.3921 18.3285C25.2394 18.3285 25.0973 18.3737 24.9774 18.4506L23.364 17.7794C23.289 17.4324 22.9801 17.1714 22.611 17.1714C22.3204 17.1714 22.0671 17.3332 21.9359 17.5712L20.2565 17.9643C20.1199 17.8412 19.9397 17.7655 19.7417 17.7655C19.3168 17.7655 18.9711 18.1112 18.9711 18.5362C18.9711 18.5921 18.9774 18.6465 18.9888 18.699L17.9977 19.7613C17.9617 19.7561 17.9252 19.7526 17.8878 19.7526C17.4629 19.7526 17.1172 20.0983 17.1172 20.5232C17.1172 20.8207 17.2871 21.0789 17.5346 21.2073L17.7024 22.4832C17.5477 22.6242 17.4499 22.8267 17.4499 23.052C17.4499 23.477 17.7955 23.8226 18.2204 23.8226C18.3658 23.8226 18.5013 23.7814 18.6175 23.7112L19.8148 24.2473C19.882 24.6042 20.1956 24.8754 20.5717 24.8754C20.8407 24.8754 21.0777 24.7365 21.2155 24.527L22.5191 24.492C22.6596 24.6823 22.8846 24.8064 23.1388 24.8064C23.2834 24.8064 23.4185 24.7656 23.5343 24.696L24.4 25.0861L25.6265 25.9496C25.7024 26.0031 25.791 26.0298 25.8795 26.0298C25.9701 26.0298 26.0608 26.0018 26.1377 25.9459C26.2898 25.8354 26.3548 25.6405 26.2994 25.4609L25.9567 24.3489L26.1973 23.8725C26.6005 23.8482 26.9214 23.5134 26.9214 23.1042C26.9214 22.9484 26.8746 22.8035 26.7948 22.6821L27.1504 21.8001C27.4931 21.7221 27.7498 21.4154 27.7498 21.0494ZM18.9773 22.9095C18.9329 22.6733 18.7807 22.4752 18.5737 22.3679L18.4117 21.1368L20.4553 21.7424C20.489 21.8442 20.5436 21.9363 20.6137 22.0145L20.2893 23.3885C20.2493 23.4044 20.2111 23.4236 20.1747 23.4456L18.9773 22.9095ZM25.9527 22.3604L24.8837 21.4547L26.3325 21.4784L25.9796 22.3535C25.9705 22.3556 25.9616 22.358 25.9527 22.3604ZM24.643 20.5718L25.2905 19.8622C25.3238 19.8666 25.3576 19.8697 25.392 19.8697C25.4117 19.8697 25.4309 19.8682 25.4502 19.8668L26.0425 20.5947L24.643 20.5718ZM22.5813 19.1986L23.0447 20.5354C23.011 20.5805 22.9819 20.6292 22.9586 20.6812L21.9082 20.8803L22.5813 19.1986ZM23.1212 21.545L22.8754 22.9738L21.9467 21.7677L23.1212 21.545ZM24.6412 19.27L23.8404 20.1474L23.3472 18.7243L24.639 19.2618C24.6396 19.2645 24.6405 19.2672 24.6412 19.27ZM21.1471 20.4167L20.4138 18.9121C20.4304 18.8826 20.4449 18.8517 20.4575 18.82L21.9236 18.4768L21.1471 20.4167ZM20.354 20.7957L18.6936 20.3036L19.6268 19.3034L20.354 20.7957ZM21.1445 23.5911L21.4019 22.5007L22.2636 23.6197L21.1913 23.6485C21.1766 23.6287 21.161 23.6095 21.1445 23.5911ZM23.9643 21.8278L25.255 22.9214L23.6932 23.4044L23.9643 21.8278ZM25.0646 24.4385L24.3784 24.1124L25.2236 23.851L25.0923 24.111C25.0411 24.2125 25.0311 24.3299 25.0646 24.4385Z" fill="#0D8BFF"/>
<path d="M12.7303 28.5178C12.8943 28.5178 13.0511 28.4504 13.1639 28.3313L15.495 25.8725C15.6624 25.6967 15.6555 25.4186 15.4797 25.2512C15.304 25.0838 15.0258 25.0907 14.8585 25.2665L13.789 26.39L15.1823 22.4896C15.5388 26.2005 18.7091 29.102 22.5285 29.0281C26.4082 28.953 29.5633 25.7842 29.6222 21.9042C29.6836 17.8625 26.4137 14.555 22.3858 14.555C19.7281 14.555 17.4007 15.9953 16.1423 18.1362L15.7359 16.1119C15.8072 15.9602 15.8562 15.8368 15.8852 15.7589C16.4165 15.1342 17.196 13.9542 17.3091 13.0663L17.3774 12.531C17.4388 12.0492 17.5743 11.5735 17.8277 11.1591C17.9709 10.9248 17.8685 10.6118 17.598 10.5145C17.3977 10.4424 17.1735 10.5352 17.0668 10.7193C16.7737 11.2251 16.5876 11.7755 16.5138 12.3555L16.4373 12.9551C16.385 13.365 15.9568 14.3462 15.1684 15.2442C15.1286 15.2895 15.0987 15.3424 15.0802 15.3997C15.0733 15.4212 14.37 17.5453 12.5665 17.5453C10.7521 17.5453 9.84268 15.3066 9.83401 15.2847C9.81701 15.2414 9.79323 15.201 9.76358 15.1652C9.23635 14.5276 8.636 13.5363 8.56194 12.9551L8.46895 12.2257C8.40684 11.7383 8.26287 11.2649 8.04315 10.8255L7.96047 10.6601C7.85998 10.4591 7.62573 10.3515 7.41414 10.4271C7.16055 10.5176 7.05028 10.805 7.16694 11.0382L7.25717 11.2187C7.4326 11.5695 7.54756 11.9475 7.59713 12.3366L7.69012 13.0662C7.80221 13.9454 8.60137 15.1256 9.04434 15.6739C9.06719 15.7267 9.10428 15.8084 9.15485 15.9098L8.90858 18.8668L3.16328 20.573C1.74356 20.9328 0.743713 22.1559 0.673987 23.6204L0.437971 28.7391C0.426839 28.9816 0.61428 29.1871 0.856741 29.1984C0.863655 29.1987 0.870452 29.1988 0.877307 29.1988C1.11069 29.1988 1.3051 29.0152 1.31594 28.7797L1.5519 23.6615C1.60317 22.5845 2.34033 21.685 3.38629 21.4232C3.39244 21.4217 3.3986 21.42 3.40469 21.4182L7.63686 20.1613L6.61809 21.7442C6.55604 21.8406 6.52756 21.9571 6.54912 22.0696C6.59049 22.2858 6.77565 22.4304 6.9819 22.4304H8.34467L7.68063 23.515C7.57293 23.6909 7.60205 23.918 7.75059 24.0609L12.2065 28.3507C12.3179 28.4579 12.4664 28.5178 12.621 28.5178H12.7303ZM14.4874 21.8223L13.4007 20.4472L15.212 19.7939L14.4874 21.8223ZM9.99719 19.7564L11.9406 20.4457L10.7813 21.8572L9.99719 19.7564ZM12.6709 20.9413L14.1387 22.7985L12.6685 26.9138L11.1366 22.8094L12.6709 20.9413ZM12.5665 18.4243C13.5232 18.4243 14.3799 17.9983 15.0558 17.1897L15.3789 18.7994L12.6763 19.7741L9.79979 18.7538L9.93795 17.0951C10.685 17.9645 11.591 18.4243 12.5665 18.4243ZM9.51239 21.7761C9.43463 21.6374 9.28803 21.5515 9.12901 21.5515H7.78739L8.92908 19.7777L9.0533 19.7408L11.5901 26.5377L8.61467 23.6728L9.50389 22.2204C9.58686 22.0847 9.59014 21.9149 9.51239 21.7761ZM22.3858 28.1506C18.8798 28.1506 16.0275 25.2983 16.0275 21.7922C16.0275 18.2862 18.8798 15.4339 22.3858 15.4339C25.8919 15.4339 28.7442 18.2862 28.7442 21.7922C28.7442 25.2983 25.8919 28.1506 22.3858 28.1506Z" fill="#0D8BFF"/>
<path d="M3.71345 25.2563C3.70566 25.2057 3.68914 25.1569 3.66458 25.112L2.98906 23.8784C2.8724 23.6655 2.60539 23.5874 2.39251 23.704C2.17964 23.8206 2.1016 24.0877 2.21814 24.3006L2.85658 25.4664L3.37349 28.8262C3.40689 29.0435 3.5941 29.1989 3.80726 29.1989C3.82947 29.1989 3.85197 29.1973 3.87464 29.1937C4.11453 29.1568 4.27906 28.9324 4.24214 28.6925L3.71345 25.2563Z" fill="#0D8BFF"/>
</g>
<defs>
<clipPath id="clip0_7088_11777">
<rect width="30" height="30" fill="white"/>
</clipPath>
</defs>
</svg>
