<svg width="30" height="30" viewBox="0 0 30 30" fill="none" xmlns="http://www.w3.org/2000/svg">
<path d="M24.3291 26.6601H22.1475V22.9237C22.1475 22.815 22.1043 22.7106 22.0274 22.6337C21.9505 22.5568 21.8461 22.5136 21.7374 22.5136H18.796C18.031 21.1113 17.5287 19.215 17.3018 17.9126L20.5746 19.6331C20.6424 19.6687 20.7187 19.6847 20.7951 19.6791C20.8714 19.6736 20.9447 19.6468 21.0066 19.6019C21.0685 19.5569 21.1166 19.4955 21.1454 19.4246C21.1742 19.3537 21.1827 19.2761 21.1697 19.2007L20.1047 12.9926L24.6153 8.59569C24.67 8.54226 24.7087 8.47458 24.727 8.40031C24.7453 8.32604 24.7425 8.24813 24.7188 8.17538C24.6952 8.10264 24.6517 8.03795 24.5932 7.98864C24.5347 7.93933 24.4636 7.90735 24.3879 7.89631L18.1535 6.99045L15.3668 1.34202C15.333 1.27336 15.2806 1.21555 15.2155 1.17513C15.1505 1.1347 15.0755 1.11328 14.999 1.11328C14.9224 1.11328 14.8474 1.1347 14.7824 1.17513C14.7174 1.21555 14.665 1.27336 14.6311 1.34202L11.8435 6.99045L5.60908 7.89631C5.53334 7.90726 5.46217 7.9392 5.40364 7.9885C5.34511 8.03781 5.30155 8.10251 5.27789 8.17529C5.25423 8.24807 5.25142 8.32603 5.26977 8.40032C5.28813 8.47462 5.32691 8.54229 5.38174 8.59569L9.89229 12.9926L8.82869 19.2007C8.81575 19.2761 8.82417 19.3537 8.853 19.4246C8.88183 19.4955 8.92992 19.5569 8.99183 19.6019C9.05374 19.6468 9.12701 19.6736 9.20334 19.6791C9.27967 19.6847 9.35603 19.6687 9.42377 19.6331L12.6966 17.9126C12.4699 19.215 11.9674 21.1113 11.2024 22.5136H8.2608C8.15202 22.5136 8.0477 22.5568 7.97078 22.6337C7.89386 22.7106 7.85065 22.815 7.85065 22.9237V26.6601H5.66908C5.5603 26.6601 5.45598 26.7034 5.37906 26.7803C5.30214 26.8572 5.25893 26.9615 5.25893 27.0703V28.4765C5.25893 28.5853 5.30214 28.6897 5.37906 28.7666C5.45598 28.8435 5.5603 28.8867 5.66908 28.8867H24.3288C24.4376 28.8867 24.542 28.8435 24.6189 28.7666C24.6958 28.6897 24.739 28.5853 24.739 28.4765V27.0703C24.739 26.9616 24.6958 26.8573 24.619 26.7804C24.5421 26.7034 24.4378 26.6602 24.3291 26.6601ZM10.7384 12.9185C10.7497 12.853 10.745 12.7858 10.7246 12.7225C10.7042 12.6593 10.6687 12.6019 10.6212 12.5555L6.55057 8.58842L12.1756 7.77116C12.2414 7.76167 12.3039 7.73629 12.3578 7.69721C12.4116 7.65813 12.4551 7.60653 12.4845 7.54686L14.9991 2.45014L17.5142 7.54686C17.5436 7.60648 17.587 7.65806 17.6408 7.69714C17.6946 7.73621 17.757 7.76162 17.8228 7.77116L23.4478 8.58842L19.3779 12.5555C19.3304 12.6019 19.2949 12.6593 19.2745 12.7225C19.2541 12.7858 19.2494 12.853 19.2607 12.9185L20.2217 18.5201L16.9777 16.8152L16.9713 16.8119L15.1901 15.8744C15.1312 15.8435 15.0657 15.8273 14.9992 15.8273C14.9327 15.8273 14.8672 15.8435 14.8083 15.8744L9.77768 18.5203L10.7384 12.9185ZM13.5985 17.4375L14.9991 16.702L16.3997 17.4375C16.6365 19.1928 17.1328 20.9032 17.8723 22.5126H12.1259C12.8655 20.9032 13.3618 19.1928 13.5985 17.4375ZM8.67096 23.3339H21.3272V26.6601H8.67096V23.3339ZM23.9189 28.0664H6.07924V27.4805H23.9187L23.9189 28.0664Z" fill="#0D8BFF"/>
</svg>
