<svg width="30" height="30" viewBox="0 0 30 30" fill="none" xmlns="http://www.w3.org/2000/svg">
<g clip-path="url(#clip0_6398_4519)">
<path d="M8.37795 29.0244V27.2921C8.37724 26.7736 7.97113 26.3463 7.45332 26.3191V24.815C8.28149 24.6406 8.87481 23.9103 8.876 23.0641V21.6159H13.5032C14.0265 21.6154 14.4505 21.1917 14.4512 20.6684V8.32702C14.4505 7.80396 14.0268 7.37999 13.5037 7.37952H5.94084C5.41778 7.37999 4.99381 7.80396 4.99333 8.32702V14.6721L1.71375 17.3881C1.70422 17.396 1.69493 17.4045 1.68612 17.4133C1.35671 17.7473 1.17259 18.1977 1.17354 18.6667V26.3165H0.97561C0.437071 26.317 0.000714561 26.7533 0 27.2921V29.0244C0.000714561 29.563 0.437071 29.9993 0.97561 30H7.40234C7.94112 29.9993 8.37748 29.563 8.37795 29.0244ZM5.94084 8.11146H13.5037C13.6228 8.11146 13.7193 8.20817 13.7195 8.32726V20.6686C13.7193 20.788 13.6228 20.8844 13.5037 20.8847H6.08279C6.0504 20.7877 6.03301 20.6865 6.03111 20.5843L6.04135 20.4059L7.45189 18.9954C8.01043 18.4356 8.01043 17.5291 7.45189 16.9691L7.20036 16.7176C7.06912 16.5864 6.86023 16.5742 6.71446 16.6895L5.72504 17.4729V8.32726C5.72528 8.20817 5.82174 8.11146 5.94084 8.11146ZM1.90525 18.6667C1.90477 18.3956 2.00886 18.1348 2.19607 17.9388L4.99333 15.6219V18.0519L3.29792 19.3946C3.19479 19.4756 3.14286 19.6054 3.16192 19.7352C3.18074 19.8647 3.26767 19.9743 3.38939 20.0224C3.51134 20.0708 3.64972 20.0501 3.75214 19.9684L6.91335 17.4653L6.93431 17.4862C7.20775 17.7604 7.20775 18.2039 6.93431 18.4778L5.42564 19.9867C5.36204 20.0503 5.32417 20.1349 5.31893 20.2246L5.29988 20.5538C5.2994 20.5607 5.29916 20.5679 5.29916 20.575C5.30083 20.8382 5.36085 21.0981 5.47471 21.3353C5.70479 21.8293 5.66168 22.4071 5.36061 22.8614C5.3206 22.9214 5.29916 22.9919 5.29916 23.0643V23.7755C5.29916 23.9775 5.46303 24.1414 5.66502 24.1414C5.86724 24.1414 6.03087 23.9775 6.03087 23.7755V23.1696C6.3074 22.702 6.40982 22.1518 6.32003 21.6161H8.14453V23.0641C8.14382 23.6474 7.67102 24.1202 7.0877 24.1209C6.88572 24.1209 6.72185 24.2845 6.72185 24.4867V26.3165H1.90525V18.6667ZM0.731707 29.0244V27.2921C0.731707 27.1573 0.840797 27.0482 0.97561 27.0482H7.40234C7.53716 27.0482 7.64625 27.1573 7.64625 27.2921V29.0244C7.64625 29.1592 7.53716 29.2683 7.40234 29.2683H0.97561C0.840797 29.2683 0.731707 29.1592 0.731707 29.0244Z" fill="#0D8BFF"/>
<path d="M1.91256 27.2268C1.51979 27.2187 1.16109 27.4492 1.00507 27.8101C0.8493 28.1709 0.927187 28.5901 1.20229 28.8707C1.4774 29.1513 1.89494 29.2378 2.25865 29.0891C2.62259 28.9405 2.8603 28.5866 2.8603 28.1938C2.86483 27.6653 2.4411 27.2327 1.91256 27.2268ZM1.91256 28.4289C1.81562 28.4372 1.72344 28.3853 1.68057 28.2979C1.63746 28.2105 1.65246 28.1057 1.71844 28.034C1.78418 27.9623 1.88731 27.9382 1.97806 27.9737C2.06881 28.009 2.1286 28.0964 2.1286 28.1938C2.1336 28.3181 2.03713 28.4232 1.91256 28.4289Z" fill="#0D8BFF"/>
<path d="M9.72185 17.5438C11.5302 17.5438 12.9962 16.0778 12.9962 14.2695C12.9962 12.4609 11.5302 10.9949 9.72185 10.9949C7.9133 10.9949 6.44727 12.4609 6.44727 14.2695C6.44965 16.0768 7.91425 17.5417 9.72185 17.5438ZM9.72185 11.7263C11.126 11.7263 12.2645 12.8646 12.2645 14.269C12.2645 15.6733 11.126 16.8116 9.72185 16.8116C8.3175 16.8116 7.17897 15.6733 7.17897 14.269C7.18088 12.8653 8.31822 11.728 9.72185 11.7263Z" fill="#0D8BFF"/>
<path d="M8.69212 16.1189C8.71927 16.1189 8.74643 16.1161 8.77286 16.1099C8.78334 16.1075 8.79311 16.1042 8.80335 16.1018C8.80454 16.1018 8.80573 16.1018 8.80692 16.1013C8.98556 16.0665 9.1704 16.1046 9.32069 16.2068C9.7449 16.4934 10.2906 16.5293 10.7491 16.3009L10.9042 16.2235C11.0221 16.1659 11.1002 16.0492 11.1083 15.9181C11.1166 15.7869 11.054 15.6614 10.9442 15.5892C10.8344 15.517 10.6943 15.5094 10.5774 15.569L10.4221 15.6464C10.2003 15.7569 9.93593 15.7395 9.73061 15.6009C9.68917 15.573 9.64653 15.5473 9.60247 15.524C9.7268 15.3291 9.79778 15.105 9.80826 14.8742C9.80969 14.8442 9.81016 14.8144 9.81112 14.7844H9.97356C10.1758 14.7844 10.3394 14.6207 10.3394 14.4185C10.3394 14.2165 10.1758 14.0527 9.97356 14.0527H9.78777C9.77658 13.9298 9.76134 13.8078 9.74252 13.6863L9.73799 13.6573C9.71727 13.5358 9.76705 13.4129 9.86638 13.34C9.96594 13.2671 10.0979 13.2569 10.2077 13.3131C10.3173 13.3696 10.3856 13.4829 10.3842 13.6063V13.7418C10.3842 13.9441 10.5481 14.1077 10.75 14.1077C10.9523 14.1077 11.1159 13.9441 11.1159 13.7418V13.6063C11.1188 13.2071 10.8963 12.8403 10.5409 12.6581C10.1858 12.4759 9.758 12.5095 9.4355 12.7448C9.11276 12.9799 8.95031 13.3769 9.0151 13.7709L9.01986 13.8C9.03296 13.8836 9.04416 13.9679 9.05297 14.0524H8.83289C8.63091 14.0524 8.46703 14.2163 8.46703 14.4183C8.46703 14.6203 8.63091 14.7841 8.83289 14.7841H9.07846C9.07798 14.8032 9.07846 14.8225 9.0775 14.8415C9.06464 15.11 8.87433 15.337 8.61209 15.3958C8.43011 15.4365 8.30793 15.6078 8.32841 15.7931C8.34889 15.9784 8.50538 16.1187 8.69188 16.1187L8.69212 16.1189Z" fill="#0D8BFF"/>
<path d="M29.0244 0H22.5977C22.0589 0.000714561 21.6226 0.437071 21.6221 0.97561V2.70794C21.6228 3.22647 22.0289 3.65377 22.5467 3.68093V5.18507C21.7186 5.35942 21.1252 6.0897 21.124 6.93598V8.38415H16.4968C15.9735 8.38462 15.5495 8.80835 15.5488 9.33165V21.673C15.5495 22.1961 15.9733 22.62 16.4963 22.6205H24.0592C24.5823 22.62 25.0062 22.1961 25.0067 21.673V15.328L28.2863 12.6119C28.2958 12.6041 28.3051 12.5955 28.3139 12.5867C28.6433 12.2528 28.8275 11.8024 28.8265 11.3334V3.68355H29.0244C29.563 3.68307 29.9993 3.24671 30 2.70794V0.97561C29.9993 0.437071 29.563 0.000714561 29.0244 0ZM24.0592 21.8886H16.4963C16.3772 21.8886 16.2808 21.7919 16.2805 21.6728V9.33141C16.2808 9.21208 16.3772 9.11561 16.4963 9.11538H23.9173C23.9496 9.21232 23.967 9.31355 23.9689 9.41573L23.9587 9.59413L22.5482 11.0049C21.9896 11.5646 21.9896 12.4712 22.5482 13.0312L22.7997 13.2827C22.9312 13.4139 23.1401 13.4261 23.2856 13.3108L24.275 12.5272V21.6728C24.2748 21.7919 24.1783 21.8886 24.0592 21.8886ZM28.0948 11.3334C28.0953 11.6044 27.9912 11.8652 27.804 12.0613L25.0067 14.3781V11.9479L26.7021 10.6055C26.8053 10.5245 26.8572 10.3947 26.8381 10.2649C26.8193 10.1353 26.7324 10.0257 26.6107 9.97761C26.4887 9.92926 26.3503 9.94998 26.2479 10.0317L23.0867 12.5348L23.0657 12.5138C22.7923 12.2397 22.7923 11.7962 23.0657 11.5222L24.5746 10.0133C24.638 9.94974 24.6761 9.86519 24.6811 9.77539L24.7002 9.44622C24.7006 9.43931 24.7009 9.43216 24.7009 9.42502C24.6995 9.16158 24.6394 8.90172 24.5253 8.66425C24.2953 8.17049 24.3386 7.59265 24.6394 7.13843C24.6795 7.07841 24.7009 7.00767 24.7009 6.9355V6.22475C24.7009 6.02253 24.537 5.8589 24.335 5.8589C24.1328 5.8589 23.9692 6.02253 23.9692 6.22475V6.83046C23.6926 7.29802 23.5902 7.84823 23.68 8.38391H21.8558V6.93598C21.8562 6.35266 22.329 5.87986 22.9123 5.87914C23.1143 5.87914 23.2782 5.71551 23.2782 5.51329V3.68355H28.0948V11.3334ZM29.2683 2.70794C29.2683 2.84275 29.1593 2.95184 29.0244 2.95184H22.5977C22.4629 2.95184 22.3538 2.84275 22.3538 2.70794V0.97561C22.3538 0.840796 22.4629 0.731707 22.5977 0.731707H29.0244C29.1593 0.731707 29.2683 0.840796 29.2683 0.97561V2.70794Z" fill="#0D8BFF"/>
<path d="M28.0866 0.839318C27.6936 0.83122 27.3348 1.06178 27.1791 1.42264C27.0231 1.78325 27.1009 2.20246 27.3761 2.48304C27.6512 2.76386 28.0687 2.85008 28.4324 2.70169C28.7964 2.55307 29.0341 2.19912 29.0341 1.80611C29.0388 1.27782 28.6149 0.845273 28.0866 0.839318ZM28.0866 2.04144C27.9894 2.04978 27.8972 1.99785 27.8543 1.91044C27.8112 1.82303 27.8265 1.71822 27.8922 1.64653C27.9579 1.57484 28.0611 1.55078 28.1518 1.58603C28.2426 1.62152 28.3024 1.70894 28.3024 1.80611C28.3074 1.93069 28.2109 2.03573 28.0866 2.04144Z" fill="#0D8BFF"/>
<path d="M20.2782 12.4562C18.4699 12.4562 17.0039 13.9222 17.0039 15.7305C17.0039 17.5391 18.4699 19.0051 20.2782 19.0051C22.0868 19.0051 23.5528 17.5391 23.5528 15.7305C23.5504 13.9232 22.0858 12.4583 20.2782 12.4562ZM20.2782 18.2736C18.8741 18.2736 17.7356 17.1353 17.7356 15.731C17.7356 14.3267 18.8741 13.1884 20.2782 13.1884C21.6826 13.1884 22.8211 14.3267 22.8211 15.731C22.8192 17.1346 21.6819 18.272 20.2782 18.2736Z" fill="#0D8BFF"/>
<path d="M20.7345 14.4829H20.9886C21.1906 14.4829 21.3545 14.3191 21.3545 14.1171C21.3545 13.9149 21.1906 13.7512 20.9886 13.7512H20.7345C19.9758 13.7522 19.2946 14.2154 19.0152 14.9207H18.702C18.5 14.9207 18.3362 15.0846 18.3362 15.2866C18.3362 15.4888 18.5 15.6524 18.702 15.6524H18.8866C18.8876 15.6901 18.8897 15.7272 18.8926 15.7639H18.7018C18.4998 15.7639 18.3359 15.9278 18.3359 16.1297C18.3359 16.332 18.4998 16.4956 18.7018 16.4956H19.1169C19.4428 17.0839 20.0618 17.4491 20.7342 17.4495H20.9884C21.1904 17.4495 21.3542 17.2857 21.3542 17.0837C21.3542 16.8815 21.1904 16.7178 20.9884 16.7178H20.7342C20.4941 16.7176 20.2605 16.6397 20.0683 16.4956H20.6823C20.8845 16.4956 21.0482 16.332 21.0482 16.1297C21.0482 15.9278 20.8845 15.7639 20.6823 15.7639H19.6302C19.6248 15.727 19.6212 15.6898 19.6195 15.6524H20.6825C20.8848 15.6524 21.0484 15.4888 21.0484 15.2866C21.0484 15.0846 20.8848 14.9207 20.6825 14.9207H19.8494C20.0602 14.6451 20.3874 14.4832 20.7345 14.4829Z" fill="#0D8BFF"/>
<path d="M19.5059 29.592C19.5059 29.794 19.6697 29.9579 19.8717 29.9579C20.0737 29.9579 20.2376 29.794 20.2376 29.592V27.3355C20.2376 27.1332 20.0737 26.9696 19.8717 26.9696C19.6697 26.9696 19.5059 27.1332 19.5059 27.3355V29.592Z" fill="#0D8BFF"/>
<path d="M19.8717 26.1702C20.0737 26.1702 20.2376 26.0063 20.2376 25.8043V25.1884C20.2376 24.9864 20.0737 24.8225 19.8717 24.8225C19.6697 24.8225 19.5059 24.9864 19.5059 25.1884V25.8043C19.5059 26.0063 19.6697 26.1702 19.8717 26.1702Z" fill="#0D8BFF"/>
<path d="M22.5547 28.3725C22.5547 28.5745 22.7186 28.7384 22.9205 28.7384C23.1225 28.7384 23.2864 28.5745 23.2864 28.3725V26.7257C23.2864 26.5235 23.1225 26.3599 22.9205 26.3599C22.7186 26.3599 22.5547 26.5235 22.5547 26.7257V28.3725Z" fill="#0D8BFF"/>
<path d="M22.9205 25.5604C23.1225 25.5604 23.2864 25.3966 23.2864 25.1946V23.9689C23.2864 23.7669 23.1225 23.603 22.9205 23.603C22.7186 23.603 22.5547 23.7669 22.5547 23.9689V25.1946C22.5547 25.3966 22.7186 25.5604 22.9205 25.5604Z" fill="#0D8BFF"/>
<path d="M16.457 28.3725C16.457 28.5745 16.6209 28.7384 16.8229 28.7384C17.0249 28.7384 17.1887 28.5745 17.1887 28.3725V27.2135C17.1887 27.0113 17.0249 26.8477 16.8229 26.8477C16.6209 26.8477 16.457 27.0113 16.457 27.2135V28.3725Z" fill="#0D8BFF"/>
<path d="M16.8229 26.2921C17.0249 26.2921 17.1887 26.1283 17.1887 25.9263V23.9689C17.1887 23.7669 17.0249 23.603 16.8229 23.603C16.6209 23.603 16.457 23.7669 16.457 23.9689V25.9263C16.457 26.1283 16.6209 26.2921 16.8229 26.2921Z" fill="#0D8BFF"/>
<path d="M9.91725 0.760995C9.91725 0.559014 9.75362 0.395142 9.5514 0.395142C9.34942 0.395142 9.18555 0.559014 9.18555 0.760995V3.01757C9.18555 3.21955 9.34942 3.38342 9.5514 3.38342C9.75362 3.38342 9.91725 3.21955 9.91725 3.01757V0.760995Z" fill="#0D8BFF"/>
<path d="M9.5514 4.18298C9.34942 4.18298 9.18555 4.34662 9.18555 4.54884V5.16455C9.18555 5.36677 9.34942 5.5304 9.5514 5.5304C9.75362 5.5304 9.91725 5.36677 9.91725 5.16455V4.54884C9.91725 4.34662 9.75362 4.18298 9.5514 4.18298Z" fill="#0D8BFF"/>
<path d="M6.86843 1.98048C6.86843 1.7785 6.70479 1.61462 6.50257 1.61462C6.30059 1.61462 6.13672 1.7785 6.13672 1.98048V3.6273C6.13672 3.82928 6.30059 3.99315 6.50257 3.99315C6.70479 3.99315 6.86843 3.82928 6.86843 3.6273V1.98048Z" fill="#0D8BFF"/>
<path d="M6.50257 4.79272C6.30059 4.79272 6.13672 4.95636 6.13672 5.15858V6.38405C6.13672 6.58627 6.30059 6.7499 6.50257 6.7499C6.70479 6.7499 6.86843 6.58627 6.86843 6.38405V5.15858C6.86843 4.95636 6.70479 4.79272 6.50257 4.79272Z" fill="#0D8BFF"/>
<path d="M12.9661 1.98048C12.9661 1.7785 12.8024 1.61462 12.6002 1.61462C12.3982 1.61462 12.2344 1.7785 12.2344 1.98048V3.13949C12.2344 3.34147 12.3982 3.50534 12.6002 3.50534C12.8024 3.50534 12.9661 3.34147 12.9661 3.13949V1.98048Z" fill="#0D8BFF"/>
<path d="M12.6002 4.06104C12.3982 4.06104 12.2344 4.22467 12.2344 4.42689V6.38406C12.2344 6.58628 12.3982 6.74992 12.6002 6.74992C12.8024 6.74992 12.9661 6.58628 12.9661 6.38406V4.42689C12.9661 4.22467 12.8024 4.06104 12.6002 4.06104Z" fill="#0D8BFF"/>
</g>
<defs>
<clipPath id="clip0_6398_4519">
<rect width="30" height="30" fill="white"/>
</clipPath>
</defs>
</svg>
