<svg width="30" height="30" viewBox="0 0 30 30" fill="none" xmlns="http://www.w3.org/2000/svg">
<path d="M27.8255 11.5246H11.1959V9.3306C11.1959 9.0006 10.9284 8.73301 10.5983 8.73301H9.71695V6.23176C9.71695 3.96055 7.8692 2.11279 5.59799 2.11279C3.32678 2.11279 1.47902 3.96055 1.47902 6.23176V8.73301H0.597598C0.267539 8.73295 0 9.00055 0 9.33055V17.5706C0 17.9006 0.267539 18.1682 0.597598 18.1682H3.45363V25.7127C3.45363 26.9117 4.4291 27.8872 5.62816 27.8872H27.8255C29.0245 27.8872 30 26.9117 30 25.7127V13.6992C30 12.5001 29.0245 11.5246 27.8255 11.5246ZM2.67416 6.23176C2.67416 4.61961 3.98572 3.30799 5.59793 3.30799C7.21014 3.30799 8.5217 4.61955 8.5217 6.23176V8.73301H2.67416V6.23176ZM1.1952 16.973V9.9282H10.0007V16.973H1.1952V16.973ZM28.8048 25.7127C28.8048 26.2527 28.3655 26.692 27.8255 26.692H5.62816C5.08816 26.692 4.64889 26.2527 4.64889 25.7127V24.4926H28.8048V25.7127ZM28.8048 23.2974H4.64889V21.0258H28.8048V23.2974ZM28.8048 19.8306H4.64889V18.1683H10.5983V18.1682C10.9284 18.1682 11.1959 17.9006 11.1959 17.5706V12.7198H27.8255C28.3655 12.7198 28.8047 13.1592 28.8047 13.6992L28.8048 19.8306Z" fill="#0D8BFF"/>
<path d="M5.5976 11.9022C5.26754 11.9022 5 12.1698 5 12.4998V14.0492C5 14.3792 5.26754 14.6468 5.5976 14.6468C5.92766 14.6468 6.1952 14.3792 6.1952 14.0492V12.4998C6.1952 12.1699 5.92766 11.9022 5.5976 11.9022Z" fill="#0D8BFF"/>
<path d="M27.1906 17.8088H17.9277C17.5976 17.8088 17.3301 18.0764 17.3301 18.4064C17.3301 18.7364 17.5976 19.004 17.9277 19.004H27.1906C27.5207 19.004 27.7882 18.7364 27.7882 18.4064C27.7882 18.0765 27.5207 17.8088 27.1906 17.8088Z" fill="#0D8BFF"/>
<path d="M15.9566 17.8088H15.7773C15.4472 17.8088 15.1797 18.0764 15.1797 18.4064C15.1797 18.7364 15.4472 19.004 15.7773 19.004H15.9566C16.2866 19.004 16.5542 18.7364 16.5542 18.4064C16.5542 18.0765 16.2866 17.8088 15.9566 17.8088Z" fill="#0D8BFF"/>
</svg>
