<svg width="30" height="30" viewBox="0 0 30 30" fill="none" xmlns="http://www.w3.org/2000/svg">
<path d="M11.9186 9.00391H22.125C22.5935 9.00391 23.0188 9.27744 23.213 9.70444L25.3468 14.3949H8.47656L9.81616 10.5039C10.1247 9.60634 10.9693 9.00391 11.9186 9.00391Z" fill="white" stroke="#0D8BFF" stroke-width="1.22115" stroke-miterlimit="10" stroke-linecap="round" stroke-linejoin="round"/>
<path d="M0.753906 20.5572L0.853227 19.2661C1.06449 16.5177 3.35618 14.3949 6.11313 14.3949H27.6278C28.5225 14.3949 29.2474 15.1199 29.2474 16.0145V20.5572H0.753906Z" fill="white" stroke="#0D8BFF" stroke-width="1.22115" stroke-miterlimit="10" stroke-linecap="round" stroke-linejoin="round"/>
<path d="M6.71419 23.2323C8.3038 23.2323 9.59244 21.9437 9.59244 20.3541C9.59244 18.7645 8.3038 17.4758 6.71419 17.4758C5.12457 17.4758 3.83594 18.7645 3.83594 20.3541C3.83594 21.9437 5.12457 23.2323 6.71419 23.2323Z" fill="white" stroke="#0D8BFF" stroke-width="1.22115" stroke-miterlimit="10" stroke-linecap="round" stroke-linejoin="round"/>
<path d="M23.9837 23.2323C25.5733 23.2323 26.862 21.9437 26.862 20.3541C26.862 18.7645 25.5733 17.4758 23.9837 17.4758C22.3941 17.4758 21.1055 18.7645 21.1055 20.3541C21.1055 21.9437 22.3941 23.2323 23.9837 23.2323Z" fill="white" stroke="#0D8BFF" stroke-width="1.22115" stroke-miterlimit="10" stroke-linecap="round" stroke-linejoin="round"/>
<path d="M15 9.00383H19.6656L19.2272 6.76709H15.4388L15 9.00383Z" fill="white" stroke="#0D8BFF" stroke-width="1.22115" stroke-miterlimit="10" stroke-linecap="round" stroke-linejoin="round"/>
<path d="M17.332 9.00391V14.3949" stroke="#0D8BFF" stroke-width="1.22115" stroke-miterlimit="10" stroke-linecap="round" stroke-linejoin="round"/>
<path d="M18.5977 16.3162V16.941" stroke="#0D8BFF" stroke-width="1.22115" stroke-miterlimit="10" stroke-linecap="round" stroke-linejoin="round"/>
<path d="M16.668 16.3162V16.941" stroke="#0D8BFF" stroke-width="1.22115" stroke-miterlimit="10" stroke-linecap="round" stroke-linejoin="round"/>
<path d="M14.7344 16.3162V16.941" stroke="#0D8BFF" stroke-width="1.22115" stroke-miterlimit="10" stroke-linecap="round" stroke-linejoin="round"/>
<path d="M12.8008 16.3162V16.941" stroke="#0D8BFF" stroke-width="1.22115" stroke-miterlimit="10" stroke-linecap="round" stroke-linejoin="round"/>
<path d="M17.6289 18.0112V18.6356" stroke="#0D8BFF" stroke-width="1.22115" stroke-miterlimit="10" stroke-linecap="round" stroke-linejoin="round"/>
<path d="M15.6992 18.0112V18.6356" stroke="#0D8BFF" stroke-width="1.22115" stroke-miterlimit="10" stroke-linecap="round" stroke-linejoin="round"/>
<path d="M13.7656 18.0112V18.6356" stroke="#0D8BFF" stroke-width="1.22115" stroke-miterlimit="10" stroke-linecap="round" stroke-linejoin="round"/>
</svg>
