<svg width="30" height="30" viewBox="0 0 30 30" fill="none" xmlns="http://www.w3.org/2000/svg">
<path d="M26.4669 13.902C25.4461 13.3917 23.5321 13.3857 23.4512 13.3857C23.2085 13.3857 23.0117 13.5825 23.0117 13.8252C23.0117 14.0679 23.2085 14.2646 23.4512 14.2646C23.9451 14.2647 25.379 14.3408 26.0739 14.6882C26.137 14.7197 26.204 14.7346 26.2701 14.7346C26.4312 14.7346 26.5865 14.6456 26.6635 14.4916C26.772 14.2746 26.684 14.0106 26.4669 13.902Z" fill="#0D8BFF"/>
<path d="M28.6589 20.1587L26.844 19.6401C26.7656 19.6178 26.7109 19.5452 26.7109 19.4637V18.8579C26.8586 18.7556 26.9994 18.6411 27.1311 18.5133C27.7692 17.8941 28.1205 17.0635 28.1205 16.1746V15.3386L28.296 14.9877C28.4886 14.6024 28.5904 14.1711 28.5904 13.7404V11.4758C28.5904 11.2331 28.3937 11.0363 28.151 11.0363H23.9221C22.3843 11.0363 21.1332 12.2874 21.1332 13.8252V13.8514C21.1332 14.2095 21.2179 14.5681 21.378 14.8884L21.6031 15.3385V16.0563C21.6031 17.1938 22.1637 18.2145 23.0128 18.8287L23.0129 19.4636C23.0129 19.5615 23.0129 19.602 22.65 19.7058L21.7644 19.9588L19.2026 19.0272C19.2118 18.9064 19.1711 18.7834 19.0829 18.6908L18.2643 17.8308V16.387C18.3508 16.3157 18.4361 16.2425 18.5188 16.165C19.5515 15.197 20.1438 13.8304 20.1438 12.4155V11.2625C20.4556 10.5839 20.6136 9.86588 20.6136 9.12637V4.42773C20.6136 4.18504 20.4169 3.98828 20.1742 3.98828H13.5959C11.2809 3.98828 9.3975 5.87172 9.3975 8.1867V9.12648C9.3975 9.866 9.55553 10.5841 9.86736 11.2626V12.2547C9.86736 13.8974 10.5978 15.3774 11.7469 16.3531V17.8308L10.9283 18.6909C10.8401 18.7835 10.7993 18.9064 10.8085 19.0273L8.10469 20.0104C7.90875 20.0817 7.7267 20.1782 7.56141 20.2951L7.13684 20.0828C8.4007 19.5327 8.80107 18.7589 8.82029 18.7205C8.88217 18.5968 8.88217 18.4512 8.82029 18.3275C8.50348 17.6938 8.4651 16.5324 8.43428 15.5993C8.42402 15.2886 8.4143 14.9951 8.39572 14.7338C8.2459 12.6259 6.64348 11.0363 4.66828 11.0363C2.69309 11.0363 1.09061 12.6259 0.94084 14.7338C0.922266 14.9952 0.912539 15.2887 0.902285 15.5994C0.871465 16.5325 0.833027 17.6938 0.51627 18.3274C0.454395 18.4511 0.454395 18.5968 0.51627 18.7204C0.535488 18.7589 0.935039 19.531 2.20143 20.0818L1.02211 20.6714C0.391641 20.9869 0 21.6206 0 22.3254V25.572C0 25.8147 0.196758 26.0115 0.439453 26.0115C0.682148 26.0115 0.878906 25.8147 0.878906 25.572V22.3254C0.878906 21.9556 1.08439 21.6231 1.41516 21.4577L2.88369 20.7234L3.39451 21.2089C3.7517 21.5483 4.2099 21.7179 4.66828 21.7179C5.12654 21.7179 5.58498 21.5482 5.94205 21.2089L6.45281 20.7235L6.93164 20.9629C6.70617 21.3237 6.5782 21.7467 6.5782 22.1898V25.5722C6.5782 25.8149 6.77496 26.0116 7.01766 26.0116C7.26035 26.0116 7.45711 25.8149 7.45711 25.5722V22.1898C7.45711 21.5866 7.83803 21.0427 8.40504 20.8365L11.2557 19.7999L12.4424 21.5801C12.5941 21.8076 12.8372 21.9536 13.1094 21.9805C13.1398 21.9835 13.1699 21.985 13.2001 21.985C13.4402 21.985 13.6702 21.8905 13.8421 21.7186L14.5661 20.9946V25.5722C14.5661 25.8149 14.7628 26.0117 15.0055 26.0117C15.2482 26.0117 15.445 25.8149 15.445 25.5722V20.9946L16.1689 21.7186C16.3408 21.8905 16.5708 21.9851 16.811 21.9851C16.841 21.9851 16.8713 21.9836 16.9015 21.9806C17.1738 21.9537 17.4169 21.8077 17.5686 21.5801L18.7553 19.8L21.606 20.8366C22.1729 21.0428 22.5539 21.5867 22.5539 22.19V25.5723C22.5539 25.815 22.7507 26.0117 22.9934 26.0117C23.2361 26.0117 23.4328 25.815 23.4328 25.5723V22.19C23.4328 21.5789 23.1901 21.0059 22.7828 20.5821L22.8914 20.5511C23.0009 20.5198 23.1503 20.477 23.3003 20.4034L24.4223 21.5254V25.5723C24.4223 25.815 24.6191 26.0117 24.8618 26.0117C25.1045 26.0117 25.3013 25.815 25.3013 25.5723V21.5254L26.4155 20.4112C26.4747 20.4413 26.5369 20.4668 26.6024 20.4855L28.4174 21.004C28.8317 21.1224 29.1211 21.506 29.1211 21.9369V25.5723C29.1211 25.815 29.3179 26.0117 29.5605 26.0117C29.8032 26.0117 30 25.815 30 25.5723V21.9369C30 21.1155 29.4485 20.3843 28.6589 20.1587ZM2.81924 19.3825C1.99723 19.0867 1.5849 18.6924 1.40889 18.477C1.52889 18.1633 1.6067 17.804 1.65937 17.4248C1.90172 18.0058 2.3076 18.5019 2.81924 18.8558V19.3825ZM5.33672 20.5718C4.96189 20.928 4.37473 20.9279 4.00002 20.5718L3.59133 20.1834C3.66029 20.0542 3.6982 19.9077 3.6982 19.7543V19.2859C4.00477 19.3817 4.33066 19.4334 4.6684 19.4334C5.00572 19.4334 5.33145 19.3814 5.63854 19.2862L5.63848 19.7542C5.63848 19.9077 5.67633 20.0543 5.74535 20.1835L5.33672 20.5718ZM4.66852 18.5545C3.35625 18.5545 2.28873 17.4869 2.28873 16.1747C2.28873 15.932 2.09197 15.7352 1.84928 15.7352C1.82467 15.7352 1.80064 15.7377 1.77715 15.7417C1.77844 15.7039 1.77967 15.666 1.78096 15.6286C1.79074 15.3264 1.80018 15.041 1.81758 14.7962C1.87371 14.0066 2.18924 13.279 2.70604 12.7473C3.22746 12.2108 3.92438 11.9154 4.6684 11.9154C5.41242 11.9154 6.10928 12.2108 6.63076 12.7473C7.14756 13.279 7.46309 14.0066 7.51922 14.7962C7.53656 15.0409 7.54605 15.3263 7.55602 15.6284C7.55689 15.6544 7.55777 15.6807 7.55865 15.7068C7.08053 14.9702 6.34213 14.4273 5.38805 14.1207C4.50662 13.8375 3.74854 13.8551 3.71654 13.8559C3.60146 13.8591 3.49225 13.9073 3.41238 13.9901L2.61949 14.8124C2.45104 14.9871 2.45607 15.2654 2.6308 15.4338C2.80553 15.6023 3.08373 15.5972 3.25219 15.4225L3.91195 14.7383C4.48014 14.7661 6.30809 14.9787 7.019 16.5441C6.84012 17.6977 5.84859 18.5545 4.66852 18.5545ZM6.51732 19.384L6.51738 18.8598C7.02861 18.5079 7.43508 18.0128 7.6776 17.4273C7.73027 17.8057 7.80803 18.1642 7.92779 18.4772C7.75277 18.6904 7.33852 19.0883 6.51732 19.384ZM10.7463 12.2546V11.1643C10.7463 11.0982 10.7313 11.0328 10.7026 10.9732C10.4198 10.3877 10.2764 9.76633 10.2764 9.12648V8.18676C10.2764 6.35635 11.7656 4.86725 13.5959 4.86725H19.7347V9.12654C19.7347 9.76639 19.5913 10.3877 19.3086 10.9733C19.2798 11.0329 19.2649 11.0982 19.2649 11.1644V12.4156C19.2649 13.6057 18.7864 14.7096 17.9177 15.5239C17.8093 15.6255 17.6967 15.7207 17.5804 15.8095C17.5778 15.8113 17.5753 15.8132 17.5728 15.815C16.759 16.4329 15.7622 16.7332 14.7212 16.6657C12.4922 16.5214 10.7463 14.5838 10.7463 12.2546ZM13.2206 21.0971C13.2176 21.1001 13.2105 21.1073 13.1961 21.1058C13.1818 21.1044 13.1762 21.096 13.1738 21.0924L11.8071 19.0423L12.2469 18.5802L14.3203 19.9974L13.2206 21.0971ZM15.0056 19.4012L12.6258 17.7745V16.9542C13.2415 17.2871 13.931 17.4953 14.6643 17.5427C14.7802 17.5502 14.8953 17.5539 15.0101 17.5539C15.8504 17.5539 16.6591 17.353 17.3854 16.9718V17.7745L15.0056 19.4012ZM16.8373 21.0925C16.8349 21.0961 16.8293 21.1045 16.815 21.1059C16.8006 21.1077 16.7936 21.1002 16.7905 21.0972L15.6909 19.9976L17.7642 18.5803L18.2041 19.0424L16.8373 21.0925ZM24.8618 20.7217L23.8645 19.7245C23.8819 19.6455 23.8918 19.5589 23.8917 19.4635L23.8917 19.278C24.1684 19.3688 24.4601 19.4228 24.7619 19.4318C24.7958 19.4328 24.8293 19.4333 24.8631 19.4333C25.1966 19.4333 25.5221 19.3829 25.832 19.2868V19.4637C25.832 19.5514 25.843 19.6373 25.8637 19.7198L24.8618 20.7217ZM26.519 17.8826C26.0532 18.3346 25.4379 18.5733 24.7883 18.5533C23.5166 18.5151 22.482 17.395 22.482 16.0564V15.2349C22.482 15.1666 22.4661 15.0994 22.4356 15.0384L22.1641 14.4954C22.0647 14.2965 22.0121 14.0738 22.0121 13.8514V13.8252C22.0121 12.7721 22.869 11.9153 23.9221 11.9153H27.7115V13.7405C27.7115 14.0355 27.6418 14.3308 27.5099 14.5947L27.288 15.0384C27.2575 15.0994 27.2416 15.1666 27.2416 15.2349V16.1746C27.2416 16.8238 26.985 17.4304 26.519 17.8826Z" fill="#0D8BFF"/>
<path d="M27.6816 22.3134C27.4389 22.3134 27.2422 22.5101 27.2422 22.7528V25.572C27.2422 25.8147 27.4389 26.0115 27.6816 26.0115C27.9243 26.0115 28.1211 25.8147 28.1211 25.572V22.7528C28.1211 22.5102 27.9243 22.3134 27.6816 22.3134Z" fill="#0D8BFF"/>
<path d="M2.32227 22.8943C2.07957 22.8943 1.88281 23.091 1.88281 23.3337V25.5721C1.88281 25.8148 2.07957 26.0115 2.32227 26.0115C2.56496 26.0115 2.76172 25.8148 2.76172 25.5721V23.3337C2.76172 23.0911 2.56496 22.8943 2.32227 22.8943Z" fill="#0D8BFF"/>
<path d="M18.6058 9.28562C16.9437 7.62355 13.4662 7.9413 12.0481 8.15505C11.6015 8.22237 11.2773 8.60036 11.2773 9.05382V10.0662C11.2773 10.3089 11.4741 10.5057 11.7168 10.5057C11.9595 10.5057 12.1562 10.3089 12.1562 10.0662V9.05376C12.1562 9.03882 12.1661 9.02605 12.1792 9.02405C12.7456 8.93868 13.8696 8.80696 15.0342 8.8846C16.4046 8.97583 17.3972 9.31983 17.9843 9.90706C18.156 10.0787 18.4342 10.0787 18.6058 9.90706C18.7774 9.73544 18.7774 9.45718 18.6058 9.28562Z" fill="#0D8BFF"/>
<path d="M9.83789 23.2532C9.5952 23.2532 9.39844 23.4499 9.39844 23.6926V25.5721C9.39844 25.8148 9.5952 26.0116 9.83789 26.0116C10.0806 26.0116 10.2773 25.8148 10.2773 25.5721V23.6926C10.2773 23.45 10.0806 23.2532 9.83789 23.2532Z" fill="#0D8BFF"/>
<path d="M20.1738 23.2532C19.9311 23.2532 19.7344 23.4499 19.7344 23.6926V25.5721C19.7344 25.8148 19.9311 26.0116 20.1738 26.0116C20.4165 26.0116 20.6133 25.8148 20.6133 25.5721V23.6926C20.6133 23.45 20.4165 23.2532 20.1738 23.2532Z" fill="#0D8BFF"/>
</svg>
