<svg width="30" height="30" viewBox="0 0 30 30" fill="none" xmlns="http://www.w3.org/2000/svg">
<g clip-path="url(#clip0_7265_19967)">
<path d="M26.3112 16.4516C26.3112 14.0507 24.3574 12.0968 21.9564 12.0968C19.5554 12.0968 17.6016 14.0507 17.6016 16.4516C17.6016 18.8526 19.5554 20.8065 21.9564 20.8065C24.3574 20.8065 26.3112 18.8526 26.3112 16.4516ZM21.9564 19.8387C20.0887 19.8387 18.5693 18.3194 18.5693 16.4516C18.5693 14.5839 20.0887 13.0645 21.9564 13.0645C23.8241 13.0645 25.3435 14.5839 25.3435 16.4516C25.3435 18.3194 23.8241 19.8387 21.9564 19.8387Z" fill="#0D8BFF"/>
<path d="M26.9403 21.1505C27.488 20.9598 27.9496 20.5829 28.2394 20.0806C28.5361 19.5668 28.6323 18.9639 28.5119 18.3827C28.4886 18.2714 28.5225 18.1437 28.599 18.0585C28.9938 17.6153 29.2115 17.0448 29.2115 16.4516C29.2115 15.8584 28.9938 15.2879 28.5985 14.8447C28.5225 14.7595 28.4882 14.6323 28.5114 14.521C28.6323 13.9398 28.5356 13.3369 28.239 12.8231C27.9423 12.3092 27.4686 11.924 26.9049 11.7377C26.7965 11.7019 26.7032 11.6085 26.6673 11.5006C26.4811 10.9364 26.0959 10.4627 25.582 10.1661C25.0682 9.86999 24.4653 9.77274 23.8841 9.8937C23.7728 9.91548 23.6451 9.88306 23.5599 9.80661C22.674 9.01596 21.2325 9.01596 20.3461 9.80661C20.2614 9.88257 20.1341 9.91645 20.0223 9.8937C19.4407 9.77225 18.8383 9.86999 18.3244 10.1661C17.8106 10.4627 17.4254 10.9364 17.2391 11.5002C17.2033 11.6085 17.1099 11.7019 17.002 11.7377C16.4378 11.924 15.9641 12.3092 15.6675 12.8231C15.3709 13.3369 15.2746 13.9398 15.3951 14.521C15.4183 14.6323 15.3844 14.76 15.308 14.8452C14.9132 15.2879 14.6954 15.8584 14.6954 16.4516C14.6954 17.0448 14.9132 17.6153 15.3085 18.0585C15.3844 18.1437 15.4188 18.271 15.3956 18.3823C15.2746 18.9634 15.3714 19.5663 15.668 20.0802C15.9578 20.5829 16.4194 20.9593 16.9672 21.15L14.4922 28.0645H15.7561L17.7854 27.2526L18.7014 30H19.8912L21.8301 23.6985C21.8717 23.7005 21.9119 23.7097 21.9535 23.7097C21.9951 23.7097 22.0353 23.7005 22.0769 23.6985L24.0153 30H25.2051L26.1211 27.2526L28.1509 28.0645H29.4148L26.9403 21.1505ZM19.2835 28.6853L18.3791 25.9732L15.9157 26.9584L17.6393 22.1419C17.827 22.3795 18.0569 22.5832 18.324 22.7376C18.8378 23.0337 19.4407 23.1319 20.0219 23.01C20.1332 22.9877 20.2609 23.0206 20.3461 23.0971C20.5111 23.2442 20.6978 23.3579 20.8928 23.4537L19.2835 28.6853ZM20.9911 22.3747C20.7438 22.154 20.423 22.0345 20.0964 22.0345C20.0059 22.0345 19.9154 22.0437 19.8254 22.0626C19.4775 22.1347 19.1156 22.0771 18.8083 21.8995C18.5006 21.7219 18.2698 21.4379 18.1585 21.0997C18.0259 20.6985 17.707 20.3797 17.3054 20.2471C16.9672 20.1358 16.6832 19.9045 16.5061 19.5973C16.3285 19.289 16.2704 18.9281 16.343 18.5797C16.4291 18.1655 16.3125 17.73 16.0304 17.4145C15.7938 17.1489 15.6632 16.8068 15.6632 16.4516C15.6632 16.0964 15.7938 15.7543 16.0304 15.4892C16.312 15.1737 16.4286 14.7377 16.343 14.3235C16.2709 13.9752 16.3285 13.6142 16.5061 13.3064C16.6836 12.9987 16.9677 12.7679 17.3059 12.6566C17.707 12.524 18.0259 12.2052 18.1585 11.8035C18.2698 11.4653 18.5011 11.1813 18.8083 11.0042C19.1156 10.8261 19.477 10.7681 19.8254 10.8411C20.2401 10.9277 20.6751 10.8106 20.9906 10.5285C21.5219 10.0548 22.3851 10.0548 22.9159 10.5285C23.2314 10.8102 23.6654 10.9268 24.0815 10.8411C24.4294 10.769 24.7909 10.8266 25.0986 11.0042C25.4064 11.1818 25.6372 11.4658 25.7485 11.804C25.8811 12.2052 26.1999 12.524 26.6015 12.6566C26.9398 12.7679 27.2238 12.9992 27.4009 13.3064C27.5785 13.6142 27.6365 13.9752 27.564 14.3235C27.4778 14.7377 27.5944 15.1732 27.8765 15.4887C28.1132 15.7543 28.2438 16.0964 28.2438 16.4516C28.2438 16.8068 28.1132 17.1489 27.8765 17.414C27.5949 17.7295 27.4783 18.1655 27.564 18.5797C27.6361 18.9276 27.5785 19.289 27.4009 19.5968C27.2233 19.9045 26.9393 20.1353 26.6011 20.2466C26.1999 20.3792 25.8811 20.6981 25.7485 21.0997C25.6372 21.4379 25.4059 21.7219 25.0986 21.899C24.7909 22.0766 24.429 22.1337 24.0815 22.0621C23.6673 21.976 23.2319 22.0931 22.9164 22.3747C22.3851 22.8484 21.5214 22.8484 20.9911 22.3747ZM25.5278 25.9732L24.6235 28.6853L23.0136 23.4532C23.2086 23.3574 23.3954 23.2437 23.5604 23.0966C23.6456 23.0202 23.7728 22.9873 23.8841 23.0095C24.4653 23.131 25.0682 23.0332 25.582 22.7371C25.8491 22.5827 26.079 22.379 26.2667 22.1414L27.9903 26.9579L25.5278 25.9732Z" fill="#0D8BFF"/>
<path d="M20.5078 15.4839H21.4756V18.871H22.4433V14.5161H20.5078V15.4839Z" fill="#0D8BFF"/>
<path d="M14.698 20.8064H12.6754L11.818 16.5194L11.9273 16.3006L12.4112 16.7845L13.7302 14.1464V13.0645H12.7625V13.9181L12.146 15.151L11.0273 14.0323H9.65893L8.54022 15.151L7.92377 13.9181V13.0645H6.95603V13.6626L4.38232 14.3647C2.74732 14.8103 1.51103 16.1787 1.2328 17.85L0.578125 21.7742H14.698V20.8064ZM8.01087 20.8064H5.09458L5.49958 17.9719L4.54151 17.8345L4.11716 20.8064H1.72103L2.187 18.0092C2.40377 16.709 3.36522 15.6455 4.63683 15.2985L7.18442 14.6037L8.27506 16.785L8.75893 16.3011L8.86829 16.5198L8.01087 20.8064ZM8.99796 20.8064L9.88248 16.3839L9.48038 15.5792L10.0596 15H10.6267L11.2059 15.5792L10.8038 16.3839L11.6883 20.8064H8.99796Z" fill="#0D8BFF"/>
<path d="M5.62507 9.59806C5.74023 9.96532 5.93233 10.306 6.21249 10.5861L8.26555 12.6392C8.53894 12.9135 8.90378 13.0645 9.29184 13.0645H11.3933C11.7809 13.0645 12.1457 12.9135 12.4201 12.6392L14.4731 10.5861C14.7422 10.3171 14.9299 9.99242 15.047 9.6421C15.947 9.47661 16.6327 8.68935 16.6327 7.74194C16.6327 7.02871 16.2407 6.41129 15.6649 6.07548V3.87097C15.6649 2.90565 14.9546 2.10339 14.0294 1.95871C13.3147 0.74371 12.0238 0 10.5978 0H10.3423C7.40765 0 5.01975 2.3879 5.01975 5.32258V6.18145C4.48943 6.51194 4.13281 7.09597 4.13281 7.76613C4.13281 8.66806 4.77394 9.4229 5.62507 9.59806ZM15.181 6.90871C15.4689 7.07661 15.6649 7.38532 15.6649 7.74194C15.6649 8.09855 15.4689 8.40726 15.181 8.57516V6.90871ZM14.2138 8.87613C14.2133 9.2579 14.0585 9.63194 13.7885 9.90194L11.7354 11.955C11.6439 12.0465 11.522 12.0968 11.3928 12.0968H9.29136C9.16217 12.0968 9.04023 12.0465 8.94878 11.955L6.89572 9.90194C6.6262 9.63194 6.47136 9.2579 6.47136 8.87564V6.77419H8.25539C9.41862 6.77419 10.5122 6.32129 11.3347 5.49871L11.7427 5.09129C12.3615 5.88774 13.2431 6.43984 14.2138 6.66339V8.87613ZM5.98749 5.32258C5.98749 2.92161 7.94136 0.967742 10.3423 0.967742H10.5978C11.748 0.967742 12.7825 1.60694 13.2968 2.63565L13.4304 2.90323H13.7294C14.2631 2.90323 14.6972 3.33726 14.6972 3.87097V5.76726C13.8189 5.63855 13.0099 5.16968 12.4714 4.45161L11.8462 3.61839L10.6501 4.81452C10.0104 5.45419 9.15975 5.80645 8.25491 5.80645H5.98749V5.32258ZM5.50362 7.01468V8.51758C5.26072 8.35548 5.10055 8.07919 5.10055 7.76613C5.10055 7.45306 5.2612 7.17677 5.50362 7.01468Z" fill="#0D8BFF"/>
</g>
<defs>
<clipPath id="clip0_7265_19967">
<rect width="30" height="30" fill="white"/>
</clipPath>
</defs>
</svg>
