<svg width="30" height="30" viewBox="0 0 30 30" fill="none" xmlns="http://www.w3.org/2000/svg">
<path d="M15 7.8125C15.5178 7.8125 15.9375 8.23224 15.9375 8.75V16.25C15.9375 16.7677 15.5178 17.1875 15 17.1875C14.4822 17.1875 14.0625 16.7677 14.0625 16.25V8.75C14.0625 8.23224 14.4822 7.8125 15 7.8125Z" fill="#0D8BFF"/>
<path d="M16.25 20C16.25 20.6904 15.6904 21.25 15 21.25C14.3096 21.25 13.75 20.6904 13.75 20C13.75 19.3096 14.3096 18.75 15 18.75C15.6904 18.75 16.25 19.3096 16.25 20Z" fill="#0D8BFF"/>
<path fill-rule="evenodd" clip-rule="evenodd" d="M15 1.5625C14.1193 1.5625 13.3149 1.80449 12.4357 2.21296C11.5851 2.6082 10.6005 3.1913 9.36821 3.92106L8.42685 4.47854C7.19416 5.20853 6.20964 5.79155 5.45095 6.3493C4.66644 6.92604 4.06471 7.51639 3.62918 8.29015C3.19435 9.06267 2.99801 9.88869 2.90383 10.8688C2.81249 11.8192 2.81249 12.9831 2.8125 14.445V15.555C2.81249 17.0169 2.81249 18.1807 2.90383 19.1311C2.99801 20.1114 3.19435 20.9374 3.62918 21.7099C4.06471 22.4836 4.66644 23.074 5.45095 23.6508C6.20964 24.2085 7.19416 24.7915 8.42685 25.5215L9.36825 26.079C10.6005 26.8087 11.5851 27.3919 12.4357 27.787C13.3149 28.1955 14.1193 28.4375 15 28.4375C15.8807 28.4375 16.6851 28.1955 17.5642 27.787C18.4149 27.3918 19.3995 26.8087 20.6318 26.079L21.5731 25.5215C22.8057 24.7915 23.7904 24.2085 24.549 23.6508C25.3336 23.074 25.9353 22.4836 26.3709 21.7099C26.8056 20.9374 27.002 20.1114 27.0961 19.1311C27.1875 18.1807 27.1875 17.0169 27.1875 15.5551V14.445C27.1875 12.9832 27.1875 11.8192 27.0961 10.8688C27.002 9.88869 26.8056 9.06267 26.3709 8.29015C25.9353 7.51639 25.3336 6.92604 24.549 6.3493C23.7904 5.79155 22.8059 5.20854 21.5731 4.47856L20.6318 3.92106C19.3995 3.19129 18.4149 2.6082 17.5642 2.21296C16.6851 1.80449 15.8807 1.5625 15 1.5625ZM10.2815 5.5593C11.5655 4.79896 12.4701 4.26451 13.2259 3.91336C13.9627 3.57095 14.4884 3.4375 15 3.4375C15.5116 3.4375 16.0373 3.57095 16.7741 3.91336C17.5299 4.26451 18.4345 4.79896 19.7185 5.5593L20.5761 6.06724C21.8599 6.82746 22.7636 7.36394 23.4385 7.86C24.0959 8.34334 24.4762 8.74682 24.7369 9.20985C24.9982 9.67411 25.1499 10.2174 25.2297 11.0482C25.3115 11.8986 25.3125 12.9725 25.3125 14.4921V15.5079C25.3125 17.0275 25.3115 18.1015 25.2297 18.9517C25.1499 19.7826 24.9982 20.3259 24.7369 20.7901C24.4762 21.2531 24.0959 21.6566 23.4385 22.14C22.7636 22.6361 21.8599 23.1725 20.5761 23.9328L19.7185 24.4408C18.4345 25.201 17.5299 25.7355 16.7741 26.0866C16.0373 26.429 15.5116 26.5625 15 26.5625C14.4884 26.5625 13.9627 26.429 13.2259 26.0866C12.4701 25.7355 11.5655 25.201 10.2815 24.4408L9.42386 23.9328C8.14012 23.1725 7.23633 22.6361 6.56155 22.14C5.90408 21.6566 5.52375 21.2531 5.26312 20.7901C5.00181 20.3259 4.85006 19.7826 4.77023 18.9517C4.6885 18.1015 4.6875 17.0275 4.6875 15.5079V14.4921C4.6875 12.9725 4.6885 11.8986 4.77023 11.0482C4.85006 10.2174 5.00181 9.67411 5.26312 9.20985C5.52375 8.74682 5.90408 8.34334 6.56155 7.86C7.23633 7.36394 8.14012 6.82746 9.42386 6.06724L10.2815 5.5593Z" fill="#0D8BFF"/>
</svg>
