<svg width="30" height="30" viewBox="0 0 30 30" fill="none" xmlns="http://www.w3.org/2000/svg">
<path d="M14.5312 29.0625C16.4362 29.0625 18.2203 28.313 19.5534 26.9522L18.8836 26.2964C17.7281 27.4753 16.1822 28.125 14.5312 28.125C11.1712 28.125 8.4375 25.3912 8.4375 22.0312C8.4375 18.6712 11.1712 15.9375 14.5312 15.9375C16.4095 15.9375 18.1547 16.7845 19.3195 18.2616L20.0555 17.6813C18.712 15.9773 16.6987 15 14.5312 15C10.6542 15 7.5 18.1542 7.5 22.0312C7.5 25.9083 10.6542 29.0625 14.5312 29.0625Z" fill="#0D8BFF"/>
<path d="M14.5312 18.75C15.3066 18.75 15.9375 19.3809 15.9375 20.1562H16.875C16.875 19.0247 16.0683 18.0778 15 17.8598V16.875H14.0625V17.8598C12.9942 18.0778 12.1875 19.0242 12.1875 20.1562C12.1875 21.4486 13.2389 22.5 14.5312 22.5C15.3066 22.5 15.9375 23.1309 15.9375 23.9062C15.9375 24.6816 15.3066 25.3125 14.5312 25.3125C13.7559 25.3125 13.125 24.6816 13.125 23.9062H12.1875C12.1875 25.0378 12.9942 25.9847 14.0625 26.2027V27.1875H15V26.2027C16.0683 25.9847 16.875 25.0383 16.875 23.9062C16.875 22.6139 15.8236 21.5625 14.5312 21.5625C13.7559 21.5625 13.125 20.9316 13.125 20.1562C13.125 19.3809 13.7559 18.75 14.5312 18.75Z" fill="#0D8BFF"/>
<path d="M18.75 19.6875H19.6875V20.625H18.75V19.6875Z" fill="#0D8BFF"/>
<path d="M21.0938 19.2188H22.0312V20.1562H21.0938V19.2188Z" fill="#0D8BFF"/>
<path d="M22.9688 20.625H23.9062V21.5625H22.9688V20.625Z" fill="#0D8BFF"/>
<path d="M24.8438 22.0312H25.7812V22.9688H24.8438V22.0312Z" fill="#0D8BFF"/>
<path d="M26.25 18.2812H27.1875V19.2188H26.25V18.2812Z" fill="#0D8BFF"/>
<path d="M28.125 20.625H29.0625V21.5625H28.125V20.625Z" fill="#0D8BFF"/>
<path d="M27.1875 22.9688H28.125V23.9062H27.1875V22.9688Z" fill="#0D8BFF"/>
<path d="M23.4375 17.3438H24.375V18.2812H23.4375V17.3438Z" fill="#0D8BFF"/>
<path d="M25.7812 25.3125H26.7188V26.25H25.7812V25.3125Z" fill="#0D8BFF"/>
<path d="M23.4375 26.7188H24.375V27.6562H23.4375V26.7188Z" fill="#0D8BFF"/>
<path d="M21.0938 25.7812H22.0312V26.7188H21.0938V25.7812Z" fill="#0D8BFF"/>
<path d="M19.2188 22.5H20.1562V23.4375H19.2188V22.5Z" fill="#0D8BFF"/>
<path d="M22.0312 23.4375H22.9688V24.375H22.0312V23.4375Z" fill="#0D8BFF"/>
<path d="M17.8125 24.375H18.75V25.3125H17.8125V24.375Z" fill="#0D8BFF"/>
<path d="M0.9375 21.9178C0.9375 22.4189 1.13297 22.8895 1.48687 23.2434L1.60031 23.3573C1.7775 23.5341 1.875 23.7694 1.875 24.0197V27.6562C1.875 28.4316 2.50594 29.0625 3.28125 29.0625H5.625C5.88375 29.0625 6.09375 28.8525 6.09375 28.5938V28.125C6.09375 27.3497 5.46281 26.7188 4.6875 26.7188V24.0202C4.6875 23.7698 4.785 23.5341 4.96219 23.3569L5.07609 23.2434C5.42484 22.8947 5.625 22.4114 5.625 21.9178V17.8125C5.625 17.4684 5.54625 17.1436 5.41219 16.8492C6.58312 16.7194 7.5 15.7359 7.5 14.5312C7.5 13.2389 6.44859 12.1875 5.15625 12.1875C3.86391 12.1875 2.8125 13.2389 2.8125 14.5312C2.8125 14.8753 2.89125 15.2002 3.02531 15.4945C1.85438 15.6244 0.9375 16.6078 0.9375 17.8125V21.9178ZM5.15625 13.125C5.93156 13.125 6.5625 13.7559 6.5625 14.5312C6.5625 15.3066 5.93156 15.9375 5.15625 15.9375C4.38094 15.9375 3.75 15.3066 3.75 14.5312C3.75 13.7559 4.38094 13.125 5.15625 13.125ZM1.875 17.8125C1.875 17.0372 2.50594 16.4062 3.28125 16.4062C4.05656 16.4062 4.6875 17.0372 4.6875 17.8125V21.9178C4.6875 22.1644 4.58766 22.4062 4.41328 22.5806L4.29938 22.6945C3.945 23.048 3.75 23.5191 3.75 24.0202V27.1875C3.75 27.4462 3.96 27.6562 4.21875 27.6562H4.6875C4.94578 27.6562 5.15625 27.8667 5.15625 28.125H3.28125C3.02297 28.125 2.8125 27.9145 2.8125 27.6562V24.0197C2.8125 23.5186 2.61703 23.048 2.26313 22.6941L2.14969 22.5802C1.9725 22.4034 1.875 22.1681 1.875 21.9178V17.8125Z" fill="#0D8BFF"/>
<path d="M25.2825 10.148C25.2239 9.99188 25.0866 9.87844 24.9216 9.85032C24.7566 9.82126 24.5897 9.88407 24.4833 10.0125L23.6522 11.0095L19.9795 8.07141C19.7934 7.92188 19.5239 7.93735 19.3552 8.1061L17.3081 10.1531L5.9175 1.04016L5.33203 1.77235L17.0508 11.1473C17.2369 11.2969 17.5064 11.2814 17.6752 11.1127L19.7222 9.06563L23.0527 11.73L22.14 12.825C22.0369 12.9488 22.0041 13.1175 22.0542 13.2708C22.1044 13.4241 22.23 13.5408 22.3861 13.5802L26.1361 14.5177C26.1736 14.5266 26.2116 14.5313 26.2495 14.5313C26.3812 14.5313 26.5092 14.4755 26.5992 14.3747C26.7155 14.2449 26.7497 14.0616 26.6883 13.898L25.2825 10.148ZM23.3377 12.8517L24.6872 11.2317L25.4972 13.3913L23.3377 12.8517Z" fill="#0D8BFF"/>
</svg>
