<svg width="30" height="30" viewBox="0 0 30 30" fill="none" xmlns="http://www.w3.org/2000/svg">
<g clip-path="url(#clip0_6398_4553)">
<path d="M30 24V0.5C30 0.2 29.8 0 29.5 0H7.5C7.2 0 7 0.2 7 0.5V29.5C7 29.8 7.2 30 7.5 30H24C24.15 30 24.25 29.95 24.35 29.85L29.85 24.35C29.9 24.3 29.9 24.25 29.95 24.2V24.15C30 24.1 30 24.05 30 24ZM8 1H29V23.5H24C23.7 23.5 23.5 23.7 23.5 24V29H8V1ZM24.5 28.3V24.5H28.3L26.4 26.4L24.5 28.3Z" fill="#0D8BFF"/>
<path d="M16.5 18.5V15.5V8H19.8L22.9 11.5H19.5V12.5H23.5V18.5H24.5V12C24.5 11.85 24.45 11.75 24.35 11.65L20.35 7.15C20.3 7.05 20.15 7 20 7H16.5V3.5C16.5 3.2 16.3 3 16 3H10V4H15.5V7.5V15H10V16H15.5V18H10V19H16C16.3 19 16.5 18.8 16.5 18.5Z" fill="#0D8BFF"/>
<path d="M20 17C18.35 17 17 18.35 17 20C17 21.65 18.35 23 20 23C21.65 23 23 21.65 23 20C23 18.35 21.65 17 20 17ZM20 22C18.9 22 18 21.1 18 20C18 18.9 18.9 18 20 18C21.1 18 22 18.9 22 20C22 21.1 21.1 22 20 22Z" fill="#0D8BFF"/>
<path d="M21 14H19.5V15H21V14Z" fill="#0D8BFF"/>
<path d="M20 21C20.5523 21 21 20.5523 21 20C21 19.4477 20.5523 19 20 19C19.4477 19 19 19.4477 19 20C19 20.5523 19.4477 21 20 21Z" fill="#0D8BFF"/>
<path d="M27 3H22.5V4H27V3Z" fill="#0D8BFF"/>
<path d="M27 5H21V6H27V5Z" fill="#0D8BFF"/>
<path d="M13 21.5H10V22.5H13V21.5Z" fill="#0D8BFF"/>
<path d="M17 24H10V25H17V24Z" fill="#0D8BFF"/>
<path d="M17 26.5H10V27.5H17V26.5Z" fill="#0D8BFF"/>
<path d="M12 6H11V7H12V6Z" fill="#0D8BFF"/>
<path d="M14 6H13V7H14V6Z" fill="#0D8BFF"/>
<path d="M12 8H11V9H12V8Z" fill="#0D8BFF"/>
<path d="M14 8H13V9H14V8Z" fill="#0D8BFF"/>
<path d="M12 10H11V11H12V10Z" fill="#0D8BFF"/>
<path d="M14 10H13V11H14V10Z" fill="#0D8BFF"/>
<path d="M12 12H11V13H12V12Z" fill="#0D8BFF"/>
<path d="M14 12H13V13H14V12Z" fill="#0D8BFF"/>
<path d="M4.45 0.35C4.4 0.15 4.2 0 4 0C3.8 0 3.6 0.15 3.55 0.35L2.1 4.7C2.05 4.75 2 4.85 2 4.95V5V24V26.5H1V12H0V27C0 27.3 0.2 27.5 0.5 27.5H2V29.5C2 29.8 2.2 30 2.5 30H5.5C5.8 30 6 29.8 6 29.5V24V5C6 4.9 5.95 4.75 5.9 4.7L4.45 0.35ZM3 5.5H5V23.5H3V5.5ZM4 2.1L4.8 4.5H3.2L4 2.1ZM5 29H3V24.5H5V29Z" fill="#0D8BFF"/>
</g>
<defs>
<clipPath id="clip0_6398_4553">
<rect width="30" height="30" fill="white"/>
</clipPath>
</defs>
</svg>
