<svg width="30" height="30" viewBox="0 0 30 30" fill="none" xmlns="http://www.w3.org/2000/svg">
<g clip-path="url(#clip0_7088_11613)">
<path d="M25.4219 5.64023L12.6571 0.622441L12.6545 0L11.7353 0.00386719L11.7382 0.682031L3.65873 4.7209H1.42578V5.64012H3.8757L11.7424 1.70742L11.7451 2.35547H10.8093V6.56602H11.7286V4.86246L13.1536 6.28752V6.56602H14.0728V2.35553H12.6644L12.6613 1.61186L25.2478 6.55945H27.2257V5.64023H25.4219ZM13.1537 3.27469V4.9875L11.7286 3.56244V3.27475L13.1537 3.27469Z" fill="#0D8BFF"/>
<path d="M0.0234375 6.10352V11.2454H8.44453V6.10352H0.0234375ZM7.52525 10.3261H0.942656V7.02273H7.52525V10.3261Z" fill="#0D8BFF"/>
<path d="M27.9421 7.04968H8.90234V7.9689H11.0916L9.62088 9.43966H8.90234V10.3589H29.8897L27.9421 7.04968ZM10.9209 9.43972L12.3917 7.96896H12.4907L13.9615 9.43972H10.9209ZM13.7908 7.9689H16.2492L15.0201 9.19802L13.7908 7.9689ZM16.0784 9.43972L17.5492 7.96896H17.6483L19.119 9.43972H16.0784ZM18.9484 7.9689H21.4067L20.1776 9.19802L18.9484 7.9689ZM21.2359 9.43972L22.7067 7.96896H22.8058L24.2765 9.43972H21.2359ZM24.1058 7.9689H26.5642L25.3351 9.19802L24.1058 7.9689ZM27.5824 8.25074L28.2821 9.43966H26.3935L27.5824 8.25074Z" fill="#0D8BFF"/>
<path d="M8.47264 11.7681H0.015625V12.6873H8.47264V11.7681Z" fill="#0D8BFF"/>
<path d="M13.1529 10.7857V12.4893L11.7278 11.0641V10.7856H10.8086V23.9139H11.7278V21.76L13.1529 20.3349V23.9139H14.0721V10.7857H13.1529ZM13.1529 19.0349L11.7278 20.4599V17.5218L13.1529 18.9468V19.0349ZM13.1529 17.6467L11.9182 16.4121L13.1529 15.1774V17.6467ZM13.1529 13.8774L11.7278 15.3025V12.3642L13.1529 13.7893V13.8774Z" fill="#0D8BFF"/>
<path d="M9.40234 24.3921V30H15.479V24.3921H9.40234ZM14.5598 29.0808H10.3216V25.3113H14.5598V29.0808Z" fill="#0D8BFF"/>
<path d="M24.4036 17.3455H23.4844V20.6547H24.4036V17.3455Z" fill="#0D8BFF"/>
<path d="M24.8359 17.8354V18.7547H29.0645V19.2449H24.8359V20.1642H29.9837V17.8354H24.8359Z" fill="#0D8BFF"/>
<path d="M22.9954 18.7547V17.8354H17.8477V20.1642H22.9954V19.2449H18.7669V18.7547H22.9954Z" fill="#0D8BFF"/>
<path d="M22.5078 10.7878V11.7071H23.4883V16.8548H24.4075V11.7071H25.3268V10.7878H22.5078Z" fill="#0D8BFF"/>
</g>
<defs>
<clipPath id="clip0_7088_11613">
<rect width="30" height="30" fill="white"/>
</clipPath>
</defs>
</svg>
