<svg width="14" height="14" viewBox="0 0 14 14" fill="none" xmlns="http://www.w3.org/2000/svg">
<g clip-path="url(#clip0_7171_8726)">
<path d="M9.73047 6.64453C10.108 6.64453 10.4141 6.33848 10.4141 5.96094C10.4141 5.5834 10.108 5.27734 9.73047 5.27734C9.35293 5.27734 9.04688 5.5834 9.04688 5.96094C9.04688 6.33848 9.35293 6.64453 9.73047 6.64453Z" fill="#7F7F7F"/>
<path d="M6.99609 6.64453C7.37363 6.64453 7.67969 6.33848 7.67969 5.96094C7.67969 5.5834 7.37363 5.27734 6.99609 5.27734C6.61856 5.27734 6.3125 5.5834 6.3125 5.96094C6.3125 6.33848 6.61856 6.64453 6.99609 6.64453Z" fill="#7F7F7F"/>
<path d="M4.26172 6.64453C4.63926 6.64453 4.94531 6.33848 4.94531 5.96094C4.94531 5.5834 4.63926 5.27734 4.26172 5.27734C3.88418 5.27734 3.57812 5.5834 3.57812 5.96094C3.57812 6.33848 3.88418 6.64453 4.26172 6.64453Z" fill="#7F7F7F"/>
<path d="M13.4531 0H0.546875C0.244836 0 0 0.244836 0 0.546875V11.375C0 11.677 0.244836 11.9219 0.546875 11.9219H5.38609L6.53762 13.7452C6.63783 13.9038 6.81237 14 7 14C7.18763 14 7.36217 13.9038 7.46238 13.7452L8.61391 11.9219H13.4531C13.7552 11.9219 14 11.677 14 11.375V0.546875C14 0.244836 13.7552 0 13.4531 0ZM12.9062 10.8281H8.3125C8.12487 10.8281 7.95033 10.9243 7.85012 11.083L7 12.429L6.14988 11.083C6.04967 10.9243 5.87513 10.8281 5.6875 10.8281H1.09375V1.09375H12.9062V10.8281Z" fill="#7F7F7F"/>
</g>
<defs>
<clipPath id="clip0_7171_8726">
<rect width="14" height="14" fill="white"/>
</clipPath>
</defs>
</svg>
