<svg width="32" height="30" viewBox="0 0 32 30" fill="none" xmlns="http://www.w3.org/2000/svg">
<path d="M15.0465 1.01605C15.341 0.0846252 16.659 0.0846243 16.9535 1.01605L19.8204 10.0846C19.9519 10.5005 20.3377 10.7832 20.7739 10.7832H30.1085C31.0706 10.7832 31.4777 12.0088 30.7068 12.5844L23.1082 18.2585C22.7673 18.513 22.6248 18.9555 22.7531 19.3612L25.6443 28.5065C25.9371 29.4327 24.8708 30.1904 24.0925 29.6092L16.5983 24.0132C16.2435 23.7482 15.7565 23.7482 15.4017 24.0132L7.90753 29.6092C7.12924 30.1904 6.06293 29.4327 6.35573 28.5065L9.24692 19.3612C9.37518 18.9555 9.23268 18.513 8.89175 18.2585L1.2932 12.5844C0.522324 12.0088 0.929439 10.7832 1.89152 10.7832H11.2261C11.6623 10.7832 12.0481 10.5005 12.1796 10.0846L15.0465 1.01605Z" fill="#D9D9D9"/>
</svg>
