<svg width="19" height="24" viewBox="0 0 19 24" fill="none" xmlns="http://www.w3.org/2000/svg">
<path d="M15.1025 15.8347C14.5272 15.8347 14.0625 16.3002 14.0625 16.8756C14.0625 17.4492 14.5272 17.9147 15.1025 17.9147C15.677 17.9147 16.1425 17.4492 16.1425 16.8756C16.1425 16.3007 15.6766 15.8347 15.1025 15.8347Z" fill="#0D8BFF"/>
<path d="M15.8202 21.0659C15.5718 20.7223 15.0926 20.6445 14.7477 20.8933C14.4041 21.1421 14.3268 21.6222 14.5755 21.9658L15.816 23.6818C15.9662 23.8897 16.2008 24 16.4392 24C16.5948 24 16.7524 23.9526 16.8885 23.854C17.2321 23.6052 17.3095 23.1255 17.0607 22.7819L15.8202 21.0659Z" fill="#0D8BFF"/>
<path d="M17.6444 8.90578L17.5765 8.48269C17.5687 8.43338 17.5597 8.38556 17.5513 8.33695C17.5489 8.31895 17.5456 8.30123 17.542 8.28352C17.1117 5.85956 16.0484 4.33772 14.3705 3.73739L15.1825 3.09005C15.3764 2.93569 15.4837 2.69648 15.4708 2.44856C15.4575 2.20106 15.3252 1.97475 15.1155 1.84162L12.404 0.119813C12.2808 0.0415781 12.1386 0 11.9925 0H6.80958C6.66398 0 6.5213 0.0415781 6.39816 0.119391L3.68583 1.8412C3.47658 1.97433 3.34388 2.20064 3.33056 2.44856C3.31767 2.69648 3.42459 2.93569 3.61927 3.09047L4.43123 3.73753C2.75513 4.33739 1.69214 5.85684 1.26136 8.27667C1.25733 8.29608 1.25372 8.31553 1.25119 8.33531C1.24266 8.38463 1.23356 8.43305 1.22555 8.48311L1.15772 8.90578C0.618562 12.2642 0 16.2594 0 17.3511C0 19.0758 1.45767 20.5335 3.18323 20.5335H15.6188C17.3444 20.5335 18.802 19.0758 18.802 17.3511C18.8021 16.2594 18.1835 12.2641 17.6444 8.90578ZM7.03256 1.53628H11.7696L13.3828 2.56087L12.2757 3.44362H6.52673L5.41847 2.56087L7.03256 1.53628ZM6.2588 4.97995H12.5438C13.8567 4.97995 15.4211 5.37788 16.0031 8.403C15.0132 11.9755 12.6742 13.9403 9.40088 13.9403C6.12713 13.9403 3.7883 11.9753 2.7998 8.40192C3.38194 5.37773 4.94564 4.97995 6.2588 4.97995ZM15.6188 18.9976H3.18328C2.30592 18.9976 1.53548 18.2284 1.53548 17.3511C1.53548 16.5552 1.97695 13.5817 2.33034 11.3175C3.82195 13.992 6.29461 15.4761 9.40083 15.4761C12.5063 15.4761 14.9794 13.9919 16.4719 11.3175C16.8251 13.5817 17.2666 16.5552 17.2666 17.351C17.2666 18.2284 16.4962 18.9976 15.6188 18.9976Z" fill="#0D8BFF"/>
<path d="M3.69627 17.9156C4.27065 17.9156 4.73628 17.45 4.73628 16.8756C4.73628 16.3012 4.27065 15.8356 3.69627 15.8356C3.12188 15.8356 2.65625 16.3012 2.65625 16.8756C2.65625 17.45 3.12188 17.9156 3.69627 17.9156Z" fill="#0D8BFF"/>
<path d="M4.05117 20.8933C3.70631 20.6449 3.22706 20.7231 2.97914 21.0663L1.73943 22.7823C1.49067 23.126 1.56843 23.606 1.91208 23.8544C2.04811 23.9525 2.20537 24 2.36095 24C2.59931 24 2.83434 23.8897 2.98411 23.6817L4.22381 21.9657C4.47258 21.6221 4.39476 21.142 4.05117 20.8933Z" fill="#0D8BFF"/>
<path d="M5.58045 7.19142H13.2141C13.6384 7.19142 13.982 6.84741 13.982 6.42347C13.982 5.99953 13.6384 5.65552 13.2141 5.65552H5.58045C5.15614 5.65552 4.8125 5.99953 4.8125 6.42347C4.8125 6.84741 5.15614 7.19142 5.58045 7.19142Z" fill="#0D8BFF"/>
<path d="M13.4825 21.8459H5.32264C4.89833 21.8459 4.55469 22.19 4.55469 22.6143C4.55469 23.0386 4.89833 23.3823 5.32264 23.3823H13.4825C13.9068 23.3823 14.2505 23.0386 14.2505 22.6143C14.2505 22.19 13.9069 21.8459 13.4825 21.8459Z" fill="#0D8BFF"/>
</svg>
