<svg width="16" height="16" viewBox="0 0 16 16" fill="none" xmlns="http://www.w3.org/2000/svg">
<g clip-path="url(#clip0_6398_3658)">
<path d="M13.3061 0H2.69391C1.20964 0 0 1.20964 0 2.70045V8C0 8.32366 0.264814 8.58848 0.588476 8.58848H9.63466L8.33674 9.88639C8.10789 10.1152 8.10789 10.4879 8.33674 10.7201C8.45117 10.8345 8.60155 10.8933 8.75194 10.8933C8.90233 10.8933 9.05272 10.8345 9.16714 10.7201L11.4687 8.41847C11.6976 8.18962 11.6976 7.81692 11.4687 7.5848L9.16714 5.2832C8.93829 5.05435 8.56559 5.05435 8.33347 5.2832C8.10462 5.51206 8.10462 5.88476 8.33347 6.11688L9.63466 7.41152H1.17695V2.70045C1.17695 1.86024 1.85697 1.17695 2.69391 1.17695H13.3061C14.143 1.17695 14.823 1.86024 14.823 2.70045V13.2996C14.823 14.1398 14.143 14.823 13.3061 14.823H2.69391C1.85697 14.823 1.17695 14.1398 1.17695 13.2996V11.9264C1.17695 11.6028 0.912137 11.338 0.588476 11.338C0.264814 11.338 0 11.6028 0 11.9264V13.2996C0 14.7871 1.20964 16 2.69391 16H13.3061C14.7904 16 16 14.7904 16 13.2996V2.70045C16 1.21291 14.7904 0 13.3061 0Z" fill="#0D8BFF"/>
</g>
<defs>
<clipPath id="clip0_6398_3658">
<rect width="16" height="16" fill="white"/>
</clipPath>
</defs>
</svg>
