<svg width="17" height="16" viewBox="0 0 17 16" fill="none" xmlns="http://www.w3.org/2000/svg">
<g clip-path="url(#clip0_8002_369)">
<path d="M13.8061 0H3.19391C1.70964 0 0.5 1.20964 0.5 2.70045V8C0.5 8.32366 0.764814 8.58848 1.08848 8.58848H10.1347L8.83674 9.88639C8.60789 10.1152 8.60789 10.4879 8.83674 10.7201C8.95117 10.8345 9.10155 10.8933 9.25194 10.8933C9.40233 10.8933 9.55272 10.8345 9.66714 10.7201L11.9687 8.41847C12.1976 8.18962 12.1976 7.81692 11.9687 7.5848L9.66714 5.2832C9.43829 5.05435 9.06559 5.05435 8.83347 5.2832C8.60462 5.51206 8.60462 5.88476 8.83347 6.11688L10.1347 7.41152H1.67695V2.70045C1.67695 1.86024 2.35697 1.17695 3.19391 1.17695H13.8061C14.643 1.17695 15.323 1.86024 15.323 2.70045V13.2996C15.323 14.1398 14.643 14.823 13.8061 14.823H3.19391C2.35697 14.823 1.67695 14.1398 1.67695 13.2996V11.9264C1.67695 11.6028 1.41214 11.338 1.08848 11.338C0.764814 11.338 0.5 11.6028 0.5 11.9264V13.2996C0.5 14.7871 1.70964 16 3.19391 16H13.8061C15.2904 16 16.5 14.7904 16.5 13.2996V2.70045C16.5 1.21291 15.2904 0 13.8061 0Z" fill="white"/>
</g>
<defs>
<clipPath id="clip0_8002_369">
<rect width="16" height="16" fill="white" transform="translate(0.5)"/>
</clipPath>
</defs>
</svg>
