<svg width="33" height="33" viewBox="0 0 33 33" fill="none" xmlns="http://www.w3.org/2000/svg">
<g clip-path="url(#clip0_7171_8629)">
<rect x="4" y="3" width="24" height="27" fill="#0D8BFF"/>
<path d="M16.5029 12.8948C18.3028 12.889 19.7364 11.4437 19.7299 9.63972C19.7227 7.83569 18.2867 6.39871 16.4861 6.39734C14.6704 6.39563 13.2204 7.85833 13.2345 9.67882C13.2479 11.476 14.6975 12.9023 16.5029 12.8948Z" fill="white"/>
<path d="M30.8896 0H2.07456C1.12743 0 0.359375 0.767715 0.359375 1.71518V30.5302C0.359375 31.4777 1.12743 32.2454 2.07456 32.2454H30.8896C31.8371 32.2454 32.6048 31.4777 32.6048 30.5302V1.71518C32.6048 0.767715 31.8371 0 30.8896 0ZM16.5095 3.00706C20.1797 3.01632 23.1263 6.01926 23.1082 9.73125C23.0886 13.3571 20.0939 16.2963 16.4296 16.2839C12.8016 16.2716 9.82683 13.2642 9.84741 9.6304C9.86902 5.95682 12.8459 2.99608 16.5095 3.00706ZM23.9441 18.8917C23.1325 19.7256 22.1556 20.328 21.0702 20.7496C20.0442 21.1461 18.92 21.3471 17.8072 21.4802C17.9753 21.6634 18.0546 21.7523 18.1588 21.8583C19.6696 23.3762 21.1865 24.888 22.6921 26.4104C23.2046 26.9287 23.313 27.5719 23.0299 28.1753C22.7209 28.8356 22.0297 29.2689 21.3511 29.2222C20.9216 29.192 20.5868 28.9783 20.2898 28.6795C19.1495 27.5321 17.9877 26.4062 16.8714 25.2385C16.5466 24.8983 16.3901 24.9617 16.1027 25.2578C14.9559 26.4385 13.7913 27.601 12.6191 28.7567C12.0926 29.2761 11.4665 29.369 10.8549 29.073C10.2059 28.7584 9.79356 28.096 9.82546 27.4295C9.84741 26.9795 10.069 26.6357 10.3781 26.327C11.8724 24.8344 13.3632 23.3381 14.8547 21.8428C14.9538 21.744 15.0458 21.638 15.1895 21.4844C13.1557 21.272 11.3218 20.7719 9.75239 19.5438C9.55789 19.3911 9.35653 19.2436 9.17815 19.0728C8.49139 18.4128 8.42244 17.6578 8.96615 16.8788C9.43062 16.2126 10.2121 16.0335 11.0233 16.416C11.1808 16.4897 11.3304 16.5827 11.4737 16.6819C14.3992 18.692 18.4185 18.748 21.3552 16.7731C21.6458 16.5512 21.9569 16.3673 22.3178 16.276C23.0193 16.0959 23.6718 16.3529 24.0484 16.9662C24.4796 17.665 24.4738 18.3483 23.9441 18.8917Z" fill="white"/>
</g>
<defs>
<clipPath id="clip0_7171_8629">
<rect width="32.2454" height="32.2454" fill="white" transform="translate(0.359375)"/>
</clipPath>
</defs>
</svg>
