<svg width="33" height="33" viewBox="0 0 33 33" fill="none" xmlns="http://www.w3.org/2000/svg">
<rect width="22" height="22" transform="translate(7 4)" fill="#0D8BFF"/>
<g clip-path="url(#clip0_7171_8616)">
<path d="M23.2724 11.4229L15.0957 18.1065L14.7109 18.4216C14.6264 18.4886 14.5712 18.5858 14.557 18.6928L14.4709 19.4036L14.2346 21.4007C14.2367 21.4249 14.2292 21.4491 14.2136 21.4678C14.1979 21.4866 14.1755 21.4983 14.1512 21.5005C14.1269 21.5027 14.1027 21.4951 14.084 21.4795C14.0653 21.4639 14.0535 21.4414 14.0513 21.4171L13.3863 19.4201L12.6992 17.3773C12.6699 17.2858 12.6737 17.1868 12.7098 17.0978C12.746 17.0087 12.8123 16.9352 12.8971 16.89L21.4055 12.0128L23.0068 11.0968C23.2395 10.9612 23.4776 11.2543 23.2724 11.4229Z" fill="white"/>
<path d="M28.528 0H5.07679C3.9106 0 2.79218 0.463265 1.96757 1.28788C1.14295 2.1125 0.679688 3.23092 0.679688 4.3971L0.679688 27.8483C0.679688 29.0145 1.14295 30.1329 1.96757 30.9575C2.79218 31.7821 3.9106 32.2454 5.07679 32.2454H28.528C29.6942 32.2454 30.8126 31.7821 31.6372 30.9575C32.4618 30.1329 32.9251 29.0145 32.9251 27.8483V4.3971C32.9251 3.23092 32.4618 2.1125 31.6372 1.28788C30.8126 0.463265 29.6942 0 28.528 0ZM26.8589 9.33284L23.7113 23.2405C23.5629 23.8927 22.7348 24.1877 22.154 23.7901L17.4015 20.5656L14.9813 22.8539C14.8826 22.9465 14.7628 23.0137 14.6323 23.0495C14.5018 23.0853 14.3645 23.0887 14.2324 23.0595C14.1002 23.0303 13.9772 22.9692 13.874 22.8817C13.7708 22.7941 13.6905 22.6827 13.6401 22.5571L12.7662 19.9921L11.8923 17.4272L7.20755 16.1447C7.07656 16.1161 6.9587 16.045 6.87227 15.9425C6.78585 15.84 6.73571 15.7118 6.72965 15.5779C6.72359 15.444 6.76195 15.3118 6.83876 15.2019C6.91558 15.092 7.02655 15.0106 7.15442 14.9703L25.2521 8.44976L25.5856 8.33067C26.2873 8.08517 27.0128 8.65313 26.8589 9.33284Z" fill="white"/>
</g>
<defs>
<clipPath id="clip0_7171_8616">
<rect width="32.2454" height="32.2454" fill="white" transform="translate(0.679688)"/>
</clipPath>
</defs>
</svg>
