<svg width="33" height="33" viewBox="0 0 33 33" fill="none" xmlns="http://www.w3.org/2000/svg">
<rect width="24" height="20" transform="translate(4 7)" fill="#0D8BFF"/>
<g clip-path="url(#clip0_7171_8609)">
<path d="M29.6997 0H2.54569C1.87053 0 1.22302 0.268206 0.745615 0.745615C0.268206 1.22302 0 1.87053 0 2.54569L0 29.6997C0 30.3749 0.268206 31.0224 0.745615 31.4998C1.22302 31.9772 1.87053 32.2454 2.54569 32.2454H29.6997C30.3749 32.2454 31.0224 31.9772 31.4998 31.4998C31.9772 31.0224 32.2454 30.3749 32.2454 29.6997V2.54569C32.2454 1.87053 31.9772 1.22302 31.4998 0.745615C31.0224 0.268206 30.3749 0 29.6997 0ZM23.5731 17.6925C24.0865 18.2271 24.6465 18.7045 25.1599 19.2433C25.6287 19.7376 26.1336 20.2849 26.4327 20.9107C26.6003 21.2735 26.5685 21.6978 26.1888 21.8887C25.9839 21.9757 25.7618 22.0141 25.5396 22.0011L23.0342 22.0414C22.9409 22.0414 22.8497 22.0414 22.7585 22.0542C22.3589 22.0654 21.9651 21.9568 21.6278 21.7423C20.9913 21.3689 20.4992 20.7643 20.0282 20.2064C19.774 19.8578 19.4514 19.5647 19.0799 19.3451C18.732 19.1775 18.469 19.3451 18.259 19.6315C18.041 19.971 17.9192 20.3632 17.9068 20.7665C17.8792 21.0974 17.9683 21.5471 17.6947 21.7975C17.3658 22.1008 16.7591 22.0096 16.3497 22.0096C15.6986 22.0402 15.0463 21.9875 14.4086 21.8526C13.5071 21.5981 12.6591 21.1827 11.9053 20.6264C11.4023 20.2774 10.9404 19.8724 10.5285 19.4194C9.46539 18.1877 8.53398 16.8481 7.7495 15.4226C7.27219 14.5741 6.8182 13.7255 6.40453 12.8557C6.19239 12.3996 5.95267 11.9372 5.76811 11.4641C5.64931 11.1395 5.71083 10.8574 6.06935 10.7619C6.39182 10.7092 6.71948 10.6956 7.0452 10.7216H8.53018C8.80789 10.7067 9.08619 10.7067 9.36389 10.7216C9.52355 10.7351 9.67683 10.7905 9.80829 10.8821C9.93975 10.9737 10.0448 11.0984 10.1128 11.2435C10.3016 11.6805 10.4882 12.1132 10.6961 12.5396C10.9804 13.1188 11.2795 13.6979 11.5893 14.2643C11.7833 14.6309 12.0076 14.9808 12.2596 15.3102C12.4718 15.5711 12.7857 15.9466 13.1358 15.9997C13.56 16.0591 13.7022 15.6411 13.7722 15.2975C13.8471 14.9181 13.8946 14.5338 13.9143 14.1477C13.9422 13.6846 13.9352 13.2201 13.8931 12.7581C13.8818 12.3685 13.8006 11.9841 13.6534 11.6232C13.5901 11.4997 13.5021 11.3906 13.3948 11.3026C13.2875 11.2146 13.1632 11.1497 13.0297 11.1119C12.9194 11.0759 12.6266 11.0801 12.6054 10.9528C12.5842 10.8255 12.8706 10.6113 12.9639 10.5434C13.4285 10.2125 14.1243 10.2188 14.661 10.1955C15.4948 10.1594 16.4367 10.1021 17.247 10.3419C18.0956 10.5964 17.9195 11.7102 17.8835 12.406C17.8538 13.2227 17.7922 14.0649 17.8368 14.8838C17.8559 15.2169 17.8856 15.7578 18.2399 15.9275C18.5941 16.0972 18.9357 15.673 19.1499 15.446C19.7049 14.7976 20.1806 14.0855 20.567 13.3246C20.7947 12.9116 21.0069 12.4873 21.2035 12.0517C21.3053 11.8247 21.405 11.5935 21.4983 11.3623C21.549 11.1598 21.6582 10.9768 21.8123 10.8362C22.0245 10.6792 22.3851 10.7364 22.6439 10.7343H24.061H25.2723C25.6436 10.7343 26.3203 10.6049 26.4879 11.0568C26.6215 11.4153 26.3479 11.9053 26.193 12.2129C25.8055 12.9229 25.3591 13.5992 24.8587 14.2346C24.3792 14.8711 23.8595 15.4884 23.4182 16.1566C23.3043 16.2974 23.2188 16.4581 23.1657 16.6297C23.1191 16.7804 23.1063 16.9438 23.1558 17.0936C23.232 17.3239 23.4025 17.5156 23.5731 17.6925Z" fill="white"/>
</g>
<defs>
<clipPath id="clip0_7171_8609">
<rect width="32.2454" height="32.2454" fill="white"/>
</clipPath>
</defs>
</svg>
