<svg width="24" height="24" viewBox="0 0 24 24" fill="none" xmlns="http://www.w3.org/2000/svg">
<g clip-path="url(#clip0_6398_3694)">
<rect width="24" height="24" rx="6" fill="#0D8BFF"/>
<path d="M22.1053 0H1.89474C1.39222 0 0.910288 0.199623 0.554956 0.554956C0.199623 0.910288 0 1.39222 0 1.89474L0 22.1053C0 22.6078 0.199623 23.0897 0.554956 23.445C0.910288 23.8004 1.39222 24 1.89474 24H22.1053C22.6078 24 23.0897 23.8004 23.445 23.445C23.8004 23.0897 24 22.6078 24 22.1053V1.89474C24 1.39222 23.8004 0.910288 23.445 0.554956C23.0897 0.199623 22.6078 0 22.1053 0ZM17.5453 13.1684C17.9274 13.5663 18.3442 13.9216 18.7263 14.3226C19.0753 14.6905 19.4511 15.0979 19.6737 15.5637C19.7984 15.8337 19.7747 16.1495 19.4921 16.2916C19.3396 16.3563 19.1743 16.385 19.0089 16.3753L17.1442 16.4053C17.0747 16.4053 17.0068 16.4053 16.9389 16.4147C16.6415 16.4231 16.3484 16.3423 16.0974 16.1826C15.6237 15.9047 15.2574 15.4547 14.9068 15.0395C14.7177 14.78 14.4775 14.5618 14.2011 14.3984C13.9421 14.2737 13.7463 14.3984 13.59 14.6116C13.4277 14.8642 13.3372 15.1562 13.3279 15.4563C13.3074 15.7026 13.3737 16.0374 13.17 16.2237C12.9253 16.4495 12.4737 16.3816 12.1689 16.3816C11.6844 16.4044 11.1988 16.3651 10.7242 16.2647C10.0532 16.0753 9.42204 15.7661 8.86105 15.3521C8.48664 15.0923 8.14287 14.7909 7.83632 14.4537C7.04502 13.5369 6.35177 12.5399 5.76789 11.4789C5.41263 10.8474 5.07474 10.2158 4.76684 9.56842C4.60895 9.22895 4.43053 8.88474 4.29316 8.53263C4.20474 8.29105 4.25053 8.08105 4.51737 8.01C4.75738 7.97075 5.00125 7.96068 5.24368 7.98H6.34895C6.55564 7.96895 6.76278 7.96895 6.96947 7.98C7.08831 7.99009 7.20239 8.0313 7.30023 8.09948C7.39808 8.16767 7.47624 8.26043 7.52684 8.36842C7.66737 8.69368 7.80632 9.01579 7.96105 9.33316C8.17263 9.76421 8.39526 10.1953 8.62579 10.6168C8.77025 10.8897 8.93714 11.1501 9.12474 11.3953C9.28263 11.5895 9.51632 11.8689 9.77684 11.9084C10.0926 11.9526 10.1984 11.6416 10.2505 11.3858C10.3063 11.1034 10.3416 10.8174 10.3563 10.53C10.3771 10.1854 10.3718 9.83964 10.3405 9.49579C10.3321 9.2058 10.2717 8.91967 10.1621 8.65105C10.115 8.55913 10.0495 8.47791 9.96964 8.41244C9.88977 8.34696 9.79726 8.29866 9.69789 8.27053C9.61579 8.24368 9.39789 8.24684 9.3821 8.15211C9.36631 8.05737 9.57947 7.89789 9.64895 7.84737C9.99474 7.60105 10.5126 7.60579 10.9121 7.58842C11.5326 7.56158 12.2337 7.51895 12.8368 7.69737C13.4684 7.88684 13.3374 8.71579 13.3105 9.23368C13.2884 9.84158 13.2426 10.4684 13.2758 11.0779C13.29 11.3258 13.3121 11.7284 13.5758 11.8547C13.8395 11.9811 14.0937 11.6653 14.2532 11.4963C14.6662 11.0138 15.0203 10.4837 15.3079 9.91737C15.4774 9.61 15.6353 9.29421 15.7816 8.97C15.8574 8.80105 15.9316 8.62895 16.0011 8.45684C16.0387 8.30617 16.12 8.16996 16.2347 8.06526C16.3926 7.94842 16.6611 7.99105 16.8537 7.98947H17.9084H18.81C19.0863 7.98947 19.59 7.89316 19.7147 8.22947C19.8142 8.49632 19.6105 8.86105 19.4953 9.09C19.2068 9.61844 18.8746 10.1218 18.5021 10.5947C18.1453 11.0684 17.7584 11.5279 17.43 12.0253C17.358 12.1142 17.3013 12.2138 17.2616 12.32C17.2064 12.4678 17.1936 12.6344 17.2563 12.7792C17.3199 12.9259 17.4326 13.0515 17.5453 13.1684Z" fill="white"/>
</g>
<defs>
<clipPath id="clip0_6398_3694">
<rect width="24" height="24" rx="6" fill="white"/>
</clipPath>
</defs>
</svg>
