<svg width="37" height="33" viewBox="0 0 37 33" fill="none" xmlns="http://www.w3.org/2000/svg">
<path d="M35.3405 7.81462C34.9449 6.32516 33.7794 5.15211 32.2996 4.75402C29.6173 4.03064 18.8616 4.03064 18.8616 4.03064C18.8616 4.03064 8.10603 4.03064 5.42367 4.75402C3.94385 5.15217 2.77836 6.32516 2.38278 7.81462C1.66406 10.5144 1.66406 16.1471 1.66406 16.1471C1.66406 16.1471 1.66406 21.7798 2.38278 24.4796C2.77836 25.969 3.94385 27.0932 5.42367 27.4913C8.10603 28.2147 18.8616 28.2147 18.8616 28.2147C18.8616 28.2147 29.6172 28.2147 32.2996 27.4913C33.7794 27.0932 34.9449 25.969 35.3405 24.4796C36.0592 21.7798 36.0592 16.1471 36.0592 16.1471C36.0592 16.1471 36.0592 10.5144 35.3405 7.81462ZM15.3439 21.2612V11.033L24.3335 16.1472L15.3439 21.2612Z" fill="#0D8BFF"/>
</svg>
