<svg width="18" height="18" viewBox="0 0 18 18" fill="none" xmlns="http://www.w3.org/2000/svg">
<path d="M6.7804 2.11753C6.51042 1.44258 5.85672 1 5.12977 1H2.68421C1.75405 1 1 1.75408 1 2.68425C1 10.5907 7.40958 17 15.316 17C16.2461 17 17 16.246 17 15.3159L16.9999 12.8703C16.9999 12.1433 16.5573 11.4897 15.8823 11.2197L13.5397 10.2826C12.9334 10.0401 12.2431 10.1494 11.7415 10.5674L11.1361 11.0718C10.4297 11.6604 9.39109 11.6133 8.74093 10.9632L7.03677 9.25913C6.3866 8.60897 6.33975 7.57027 6.92839 6.86391L7.43273 6.25865C7.85076 5.75701 7.96002 5.06661 7.71751 4.46033L6.7804 2.11753Z" stroke="#0D8BFF" stroke-width="1.5" stroke-linecap="round" stroke-linejoin="round"/>
</svg>
