<svg width="19" height="21" viewBox="0 0 19 21" fill="none" xmlns="http://www.w3.org/2000/svg">
<path d="M8.87272 10.0137L0.078125 19.2277C0.278244 19.937 0.794972 20.5139 1.47799 20.7907C2.16101 21.0675 2.93361 21.0131 3.57106 20.6432L13.4666 15.0073L8.87272 10.0137Z" fill="#EA4335"/>
<path d="M17.7679 8.44705L13.4886 5.99609L8.67188 10.223L13.5082 14.9938L17.7548 12.5691C18.5216 12.1676 19.0021 11.3736 19.0021 10.5081C19.0021 9.64252 18.5216 8.84853 17.7548 8.44705H17.7679Z" fill="#FBBC04"/>
<path d="M0.0786906 1.74316C0.0255291 1.93969 -0.000922063 2.14248 2.45323e-05 2.34607V18.6246C0.000582125 18.8281 0.0270078 19.0307 0.0786906 19.2275L9.17474 10.2494L0.0786906 1.74316Z" fill="#0D8BFF"/>
<path d="M8.93825 10.4854L13.4863 5.99632L3.60383 0.33423C3.23204 0.116489 2.8092 0.00116722 2.37835 4.71122e-06C1.30903 -0.00210962 0.368954 0.707635 0.078125 1.73665L8.93825 10.4854Z" fill="#34A853"/>
</svg>
