<svg width="24" height="24" viewBox="0 0 24 24" fill="none" xmlns="http://www.w3.org/2000/svg">
<g clip-path="url(#clip0_7131_9477)">
<path d="M6.734 0C1.804 0 0 1.803 0 6.733V17.268C0 22.198 1.803 24 6.734 24H17.263C22.193 24 24 22.197 24 17.268V6.733C24 1.803 22.197 0 17.266 0H6.734ZM8 4H8.565C8.56606 4.91069 8.9283 5.78378 9.57226 6.42774C10.2162 7.0717 11.0893 7.43394 12 7.435C12.9107 7.43394 13.7838 7.0717 14.4277 6.42774C15.0717 5.78378 15.4339 4.91069 15.435 4H16C16 6.206 14.206 8 12 8C9.794 8 8 6.206 8 4ZM14.468 12H14.988L15.701 14.16L16.397 12.002H17.057L15.965 15.142H15.433L14.719 13.079L14.005 15.142H13.477L12.382 12.002H13.06L13.754 14.16L14.468 12ZM20.704 12H21.333V15.138H20.704V12ZM2.666 12H3.304V13.267H4.743V12H5.38V15.142H4.743V13.866H3.303V15.142H2.666V12ZM8.334 12H8.971V13.772C8.971 14.672 8.475 15.189 7.611 15.189C6.755 15.189 6.264 14.682 6.264 13.799V12.002H6.9V13.777C6.9 14.301 7.155 14.582 7.619 14.582C8.079 14.582 8.333 14.309 8.333 13.798L8.334 12ZM10.678 12H11.241L12.619 15.14H11.951L11.669 14.486H10.23L9.944 15.14H9.293L10.678 12ZM17.571 12.002H19.883V12.574H18.2V13.217H19.36V13.79H18.2V14.567H19.944V15.14H17.57L17.571 12.002ZM10.948 12.795L10.468 13.919H11.432L10.948 12.795Z" fill="#0D8BFF"/>
</g>
<defs>
<clipPath id="clip0_7131_9477">
<rect width="24" height="24" fill="white"/>
</clipPath>
</defs>
</svg>
