<svg width="18" height="18" viewBox="0 0 18 18" fill="none" xmlns="http://www.w3.org/2000/svg">
<path d="M1 9V9.75H17V9V8.25H1V9ZM9 17V16.25C4.99594 16.25 1.75 13.0041 1.75 9H1H0.25C0.25 13.8325 4.16751 17.75 9 17.75V17ZM1 9H1.75C1.75 4.99594 4.99594 1.75 9 1.75V1V0.25C4.16751 0.25 0.25 4.16751 0.25 9H1ZM9 1V1.75C13.0041 1.75 16.25 4.99594 16.25 9H17H17.75C17.75 4.16751 13.8325 0.25 9 0.25V1ZM17 9H16.25C16.25 13.0041 13.0041 16.25 9 16.25V17V17.75C13.8325 17.75 17.75 13.8325 17.75 9H17ZM9 17V16.25C8.75312 16.25 8.46145 16.1405 8.13306 15.828C7.8008 15.5118 7.46746 15.0188 7.1712 14.3523C6.57953 13.021 6.19444 11.1293 6.19444 9H5.44444H4.69444C4.69444 11.289 5.10529 13.3973 5.80048 14.9615C6.14766 15.7426 6.58048 16.4212 7.09898 16.9146C7.62135 17.4117 8.26504 17.75 9 17.75V17ZM5.44444 9H6.19444C6.19444 6.87068 6.57953 4.979 7.1712 3.64775C7.46746 2.98118 7.8008 2.48818 8.13306 2.17198C8.46145 1.85945 8.75312 1.75 9 1.75V1V0.25C8.26504 0.25 7.62135 0.588263 7.09898 1.08538C6.58048 1.57883 6.14766 2.2574 5.80048 3.03854C5.10529 4.60272 4.69444 6.71104 4.69444 9H5.44444ZM9 1V1.75C9.24688 1.75 9.53855 1.85945 9.86694 2.17198C10.1992 2.48818 10.5325 2.98118 10.8288 3.64775C11.4205 4.979 11.8056 6.87068 11.8056 9H12.5556H13.3056C13.3056 6.71104 12.8947 4.60272 12.1995 3.03854C11.8523 2.2574 11.4195 1.57883 10.901 1.08538C10.3787 0.588263 9.73496 0.25 9 0.25V1ZM12.5556 9H11.8056C11.8056 11.1293 11.4205 13.021 10.8288 14.3523C10.5325 15.0188 10.1992 15.5118 9.86694 15.828C9.53855 16.1405 9.24688 16.25 9 16.25V17V17.75C9.73496 17.75 10.3787 17.4117 10.901 16.9146C11.4195 16.4212 11.8523 15.7426 12.1995 14.9615C12.8947 13.3973 13.3056 11.289 13.3056 9H12.5556Z" fill="#0D8BFF"/>
</svg>
