<svg width="126" height="21" viewBox="0 0 126 21" fill="none" xmlns="http://www.w3.org/2000/svg">
<path d="M33.3103 14.8968L30.2278 10.4616L31.5934 9.61618L35.2222 14.8968H33.3103ZM27.2883 14.8968V5.79228H28.9531V14.8968H27.2883ZM28.4459 11.0599V9.60317H31.5154V11.0599H28.4459ZM31.7495 10.5396L30.2017 10.3315L33.3103 5.79228H35.1052L31.7495 10.5396ZM36.37 14.8968V5.79228H40.1158C40.9222 5.79228 41.6116 5.92235 42.1838 6.18247C42.7648 6.4426 43.2114 6.81545 43.5235 7.30103C43.8357 7.7866 43.9917 8.36322 43.9917 9.03089C43.9917 9.69855 43.8357 10.2752 43.5235 10.7607C43.2114 11.2463 42.7648 11.6192 42.1838 11.8793C41.6116 12.1394 40.9222 12.2695 40.1158 12.2695H37.3064L38.0608 11.4761V14.8968H36.37ZM38.0608 11.6582L37.3064 10.8388H40.0378C40.7835 10.8388 41.3428 10.6827 41.7156 10.3706C42.0971 10.0497 42.2879 9.60317 42.2879 9.03089C42.2879 8.44993 42.0971 8.00338 41.7156 7.69122C41.3428 7.37907 40.7835 7.22299 40.0378 7.22299H37.3064L38.0608 6.39058V11.6582ZM47.1521 9.57716H51.6783V10.9688H47.1521V9.57716ZM47.2822 13.4791H52.4197V14.8968H45.5913V5.79228H52.2376V7.20998H47.2822V13.4791ZM60.3526 14.1164V7.22299H56.7889L56.7238 8.83579C56.6978 9.44276 56.6588 10.0194 56.6068 10.5656C56.5634 11.1032 56.4897 11.5932 56.3857 12.0354C56.2903 12.4776 56.1559 12.8461 55.9825 13.1409C55.809 13.4357 55.5966 13.6308 55.3452 13.7262L53.5242 13.4661C53.8537 13.4834 54.1225 13.3707 54.3306 13.1279C54.5474 12.8851 54.7165 12.547 54.8379 12.1134C54.9593 11.6799 55.0503 11.1726 55.111 10.5917C55.1717 10.002 55.2151 9.36472 55.2411 8.67971L55.3452 5.79228H62.0175V14.1164H60.3526ZM53.2121 16.8348L53.2251 13.4661H63.3311V16.8348H61.7703V14.8968H54.7859V16.8348H53.2121ZM64.9362 14.8968V5.79228H66.601V12.2565L71.4914 5.79228H73.0652V14.8968H71.4004V8.4456L66.51 14.8968H64.9362ZM77.5299 14.8968V6.80678L77.9331 7.22299H74.5254V5.79228H82.2252V7.22299H78.8175L79.2077 6.80678V14.8968H77.5299ZM87.8845 8.87481C88.9684 8.87481 89.8052 9.1176 90.3948 9.60317C90.9844 10.0887 91.2792 10.8171 91.2792 11.7883C91.2792 12.8114 90.9541 13.5875 90.3037 14.1164C89.6621 14.6367 88.7647 14.8968 87.6114 14.8968H83.6965V5.79228H85.3613V8.87481H87.8845ZM87.5334 13.5962C88.1837 13.5962 88.6866 13.4444 89.0421 13.1409C89.4063 12.8374 89.5884 12.3952 89.5884 11.8143C89.5884 11.242 89.4106 10.8258 89.0551 10.5656C88.6996 10.2968 88.1924 10.1624 87.5334 10.1624H85.3613V13.5962H87.5334ZM92.5929 14.8968V5.79228H94.2577V14.8968H92.5929ZM97.1291 14.9878C96.8343 14.9878 96.5828 14.8881 96.3747 14.6887C96.1666 14.4806 96.0626 14.2205 96.0626 13.9083C96.0626 13.5788 96.1666 13.3187 96.3747 13.1279C96.5828 12.9285 96.8343 12.8288 97.1291 12.8288C97.4239 12.8288 97.6754 12.9285 97.8835 13.1279C98.0916 13.3187 98.1956 13.5788 98.1956 13.9083C98.1956 14.2205 98.0916 14.4806 97.8835 14.6887C97.6754 14.8881 97.4239 14.9878 97.1291 14.9878ZM99.9923 14.8968V5.79228H103.738C104.545 5.79228 105.234 5.92235 105.806 6.18247C106.387 6.4426 106.834 6.81545 107.146 7.30103C107.458 7.7866 107.614 8.36322 107.614 9.03089C107.614 9.69855 107.458 10.2752 107.146 10.7607C106.834 11.2463 106.387 11.6192 105.806 11.8793C105.234 12.1394 104.545 12.2695 103.738 12.2695H100.929L101.683 11.4761V14.8968H99.9923ZM101.683 11.6582L100.929 10.8388H103.66C104.406 10.8388 104.965 10.6827 105.338 10.3706C105.72 10.0497 105.91 9.60317 105.91 9.03089C105.91 8.44993 105.72 8.00338 105.338 7.69122C104.965 7.37907 104.406 7.22299 103.66 7.22299H100.929L101.683 6.39058V11.6582ZM109.141 13.4661C109.617 13.6308 110.038 13.6742 110.402 13.5962C110.766 13.5181 111.092 13.2536 111.378 12.8028L111.82 12.1134L111.989 11.9313L115.163 5.79228H116.827L112.873 13.1409C112.553 13.7566 112.171 14.2248 111.729 14.5456C111.287 14.8664 110.81 15.0442 110.298 15.0789C109.795 15.1222 109.271 15.0269 108.724 14.7927L109.141 13.4661ZM111.95 13.388L107.892 5.79228H109.7L112.873 12.0874L111.95 13.388Z" fill="#29323B"/>
<path d="M0 0H12.5187C15.4818 0 17.8839 2.40207 17.8839 5.36516H5.36516C2.40207 5.36516 0 2.9631 0 0Z" fill="#0D8BFF"/>
<path d="M0 7.74969H12.5187C15.4818 7.74969 17.8839 10.1518 17.8839 13.1148H5.36516C2.40207 13.1148 0 10.7128 0 7.74969Z" fill="#0D8BFF"/>
<path d="M0 15.4994H6.25935C6.45102 17.416 7.35663 19.1904 8.79629 20.4701L9.24 20.8645H5.36516C2.40206 20.8645 0 18.4625 0 15.4994Z" fill="#0D8BFF"/>
<path d="M119.668 6.60485L123.394 2.87904M123.394 2.87904H120.413M123.394 2.87904V5.85969" stroke="#0D8BFF" stroke-width="1.21935" stroke-linecap="round" stroke-linejoin="round"/>
</svg>
