<svg width="37" height="33" viewBox="0 0 37 33" fill="none" xmlns="http://www.w3.org/2000/svg">
<g clip-path="url(#clip0_7171_10088)">
<path d="M14.8342 0.412109L9.13419 23.5541L7.76619 16.9421C9.97019 16.9421 11.7942 17.6261 13.2382 18.9941C14.6822 20.3621 15.4042 22.1861 15.4042 24.4661C15.4042 26.7461 14.6822 28.6081 13.2382 30.0521C11.7942 31.4961 10.0082 32.2181 7.88019 32.2181C5.67619 32.2181 3.85219 31.4961 2.40819 30.0521C0.964188 28.5321 0.242188 26.6701 0.242188 24.4661C0.242188 23.7061 0.280188 22.9841 0.356188 22.3001C0.508188 21.6161 0.736188 20.8181 1.04019 19.9061C1.34419 18.9181 1.76219 17.7401 2.29419 16.3721L7.65219 0.412109H14.8342ZM36.3802 0.412109L30.6802 23.5541L29.3122 16.9421C31.5162 16.9421 33.3402 17.6261 34.7842 18.9941C36.2282 20.3621 36.9502 22.1861 36.9502 24.4661C36.9502 26.7461 36.2282 28.6081 34.7842 30.0521C33.3402 31.4961 31.5542 32.2181 29.4262 32.2181C27.2222 32.2181 25.3982 31.4961 23.9542 30.0521C22.5102 28.5321 21.7882 26.6701 21.7882 24.4661C21.7882 23.7061 21.8262 22.9841 21.9022 22.3001C22.0542 21.6161 22.2822 20.8181 22.5862 19.9061C22.8902 18.9181 23.3082 17.7401 23.8402 16.3721L29.1982 0.412109H36.3802Z" fill="#0D8BFF"/>
</g>
<defs>
<clipPath id="clip0_7171_10088">
<rect width="37" height="33" fill="white"/>
</clipPath>
</defs>
</svg>
