<svg width="24" height="24" viewBox="0 0 24 24" fill="none" xmlns="http://www.w3.org/2000/svg">
<path fill-rule="evenodd" clip-rule="evenodd" d="M11.52 24C6.08943 24 3.37413 24 1.68707 22.3129C3.17891e-07 20.6259 2.81929e-07 17.9105 4.25056e-08 12.4799L1.80288e-10 11.5199C-2.3924e-07 6.08933 -3.17891e-07 3.37403 1.68707 1.68697C3.37413 3.17891e-07 6.08942 2.77129e-07 11.52 4.17824e-08L12.48 1.75791e-10C17.9106 -2.35178e-07 20.6259 -4.76837e-07 22.3129 1.68697C24 3.37403 24 6.08933 24 11.5199V12.4799C24 17.9105 24 20.6259 22.3129 22.3129C20.6259 24 17.9106 24 12.48 24H11.52Z" fill="#0077FF"/>
<path d="M13.8813 14.7903C13.2347 14.6288 12.7812 14.0504 12.7812 13.387V5.57119C12.7812 4.81766 13.4933 4.26502 14.2277 4.4485L18.8788 5.61036C19.5254 5.77189 19.9788 6.35032 19.9788 7.01372V14.8295C19.9788 15.5831 19.2668 16.1357 18.5324 15.9522L13.8813 14.7903Z" fill="white"/>
<path d="M5.12346 18.3894C4.47683 18.2279 4.02344 17.6495 4.02344 16.9861V9.17028C4.02344 8.41675 4.73546 7.86415 5.46992 8.04762L10.121 9.20948C10.7677 9.37102 11.2211 9.94942 11.2211 10.6128V18.4286C11.2211 19.1821 10.509 19.7347 9.77453 19.5513L5.12346 18.3894Z" fill="white"/>
<path d="M9.50625 16.5901C8.85965 16.4286 8.40625 15.8502 8.40625 15.1868V7.371C8.40625 6.61747 9.11825 6.06483 9.85272 6.2483L14.5038 7.4102C15.1504 7.57167 15.6039 8.15013 15.6039 8.81353V16.6293C15.6039 17.3829 14.8918 17.9355 14.1574 17.752L9.50625 16.5901Z" fill="white"/>
<path d="M12.544 17.3526C12.3403 17.3007 12.1953 17.1206 12.1882 16.9105L11.9858 10.9416C11.9273 10.1517 11.3409 9.52338 10.7281 9.33838C10.6937 9.32798 10.657 9.34198 10.6366 9.37158C10.6159 9.40164 10.6239 9.44331 10.6528 9.46564C10.8041 9.58278 11.2206 9.96504 11.2206 10.6244L11.2194 17.0169L12.544 17.3526Z" fill="#0077FF"/>
<path d="M16.919 15.5514C16.7155 15.5005 16.5704 15.3209 16.5632 15.1113L16.3608 9.14285C16.3024 8.35285 15.7159 7.72458 15.1031 7.53951C15.0687 7.52918 15.032 7.54318 15.0116 7.57278C14.9909 7.60285 14.9989 7.64445 15.0278 7.66685C15.1791 7.78398 15.5956 8.16625 15.5956 8.82558L15.5944 15.2202L16.919 15.5514Z" fill="#0077FF"/>
</svg>
