<svg width="61" height="98" viewBox="0 0 61 98" fill="none" xmlns="http://www.w3.org/2000/svg">
    <path d="M1.40578 0.725448C1.09627 0.501096 0.663495 0.570126 0.439141 0.879635C0.214787 1.18914 0.283819 1.62192 0.593327 1.84628L1.40578 0.725448ZM4.74793 4.00295L5.15416 3.44254L5.15416 3.44253L4.74793 4.00295ZM55.5474 91.9902L54.8589 92.0618L55.5474 91.9902ZM55.5901 97.1324C55.8869 97.3733 56.3228 97.3279 56.5637 97.0311L60.4893 92.1942C60.7302 91.8974 60.6849 91.4615 60.3881 91.2206C60.0913 90.9797 59.6553 91.0251 59.4145 91.3219L55.925 95.6213L51.6256 92.1319C51.3287 91.891 50.8928 91.9363 50.652 92.2332C50.4111 92.53 50.4564 92.9659 50.7532 93.2068L55.5901 97.1324ZM0.593327 1.84628L1.53042 2.52555L2.34288 1.40472L1.40578 0.725448L0.593327 1.84628ZM3.40461 3.88409L4.3417 4.56336L5.15416 3.44253L4.21706 2.76326L3.40461 3.88409ZM4.3417 4.56336C4.7118 4.83163 5.08018 5.10178 5.44684 5.37379L6.27163 4.262C5.90087 3.98696 5.52838 3.7138 5.15416 3.44254L4.3417 4.56336ZM7.62787 7.02942C8.34949 7.58987 9.06411 8.15767 9.77165 8.73268L10.6447 7.65839C9.92927 7.07696 9.20667 6.50281 8.47699 5.93611L7.62787 7.02942ZM11.8777 10.4832C12.5739 11.0751 13.263 11.6741 13.9447 12.2801L14.8644 11.2455C14.1751 10.6327 13.4783 10.027 12.7743 9.42849L11.8777 10.4832ZM15.9714 14.1221C16.6406 14.744 17.3024 15.3728 17.9567 16.0084L18.9212 15.0154C18.2596 14.3727 17.5905 13.7369 16.9138 13.1081L15.9714 14.1221ZM19.8997 17.938C20.5406 18.5887 21.1739 19.2461 21.7995 19.91L22.807 18.9606C22.1744 18.2893 21.534 17.6246 20.8859 16.9666L19.8997 17.938ZM23.6553 21.9237C24.2668 22.6021 24.8705 23.287 25.4663 23.9781L26.5148 23.0743C25.9124 22.3754 25.3019 21.6829 24.6835 20.9968L23.6553 21.9237ZM27.2314 26.0721C27.8123 26.7768 28.3851 27.4876 28.9497 28.2044L30.0372 27.3478C29.4662 26.623 28.887 25.9042 28.2996 25.1916L27.2314 26.0721ZM30.6204 30.3742C31.1695 31.1038 31.7103 31.8392 32.2428 32.5803L33.367 31.7726C32.8286 31.0232 32.2817 30.2795 31.7265 29.5418L30.6204 30.3742ZM33.816 34.8217C34.3322 35.5748 34.84 36.3335 35.3394 37.0975L36.4982 36.3403C35.9933 35.5677 35.4798 34.8005 34.9578 34.039L33.816 34.8217ZM36.8121 39.4064C37.2945 40.1815 37.7683 40.9618 38.2334 41.7472L39.4245 41.0419C38.9542 40.2476 38.4751 39.4586 37.9873 38.6749L36.8121 39.4064ZM39.6026 44.1188C40.0503 44.9143 40.4891 45.7148 40.9192 46.5201L42.1403 45.8681C41.7055 45.0538 41.2617 44.2443 40.8091 43.4399L39.6026 44.1188ZM42.1823 48.95C42.5944 49.7644 42.9975 50.5835 43.3916 51.4071L44.6403 50.8097C44.2418 49.9768 43.8342 49.1486 43.4176 48.325L42.1823 48.95ZM44.5461 53.8903C44.9217 54.722 45.2882 55.5581 45.6455 56.3983L46.9194 55.8566C46.5581 55.007 46.1875 54.1615 45.8077 53.3205L44.5461 53.8903ZM46.6892 58.9301C47.0276 59.7775 47.3568 60.629 47.6767 61.4844L48.9733 60.9995C48.6499 60.1345 48.317 59.2736 47.9748 58.4167L46.6892 58.9301ZM48.6076 64.06C48.9082 64.9215 49.1995 65.7868 49.4813 66.6556L50.7981 66.2285C50.5131 65.35 50.2186 64.475 49.9146 63.6039L48.6076 64.06ZM50.2972 69.2696C50.5594 70.1433 50.8121 71.0205 51.0552 71.9009L52.3896 71.5325C52.1438 70.6422 51.8883 69.7552 51.6232 68.8718L50.2972 69.2696ZM51.7548 74.5484C51.978 75.4328 52.1917 76.3203 52.3957 77.2108L53.745 76.9017C53.5388 76.0013 53.3227 75.1038 53.097 74.2095L51.7548 74.5484ZM52.9776 79.8869C53.1615 80.7804 53.3357 81.6766 53.5002 82.5755L54.8619 82.3264C54.6956 81.4175 54.5194 80.5112 54.3334 79.6078L52.9776 79.8869ZM53.9632 85.2747C54.1074 86.1749 54.2418 87.0777 54.3664 87.9829L55.7378 87.7942C55.6118 86.8789 55.4759 85.966 55.3301 85.0557L53.9632 85.2747ZM54.7097 90.6995C54.7619 91.1531 54.8117 91.6072 54.8589 92.0618L56.2358 91.9186C56.188 91.4589 56.1377 90.9997 56.0849 90.5411L54.7097 90.6995ZM54.8589 92.0618L54.9787 93.213L56.3556 93.0698L56.2358 91.9186L54.8589 92.0618ZM55.2181 95.5154L55.3378 96.6665L56.7147 96.5233L56.595 95.3722L55.2181 95.5154ZM1.40578 0.725448C1.09627 0.501096 0.663495 0.570126 0.439141 0.879635C0.214787 1.18914 0.283819 1.62192 0.593327 1.84628L1.40578 0.725448ZM4.74793 4.00295L5.15416 3.44254L5.15416 3.44253L4.74793 4.00295ZM55.5474 91.9902L54.8589 92.0618L55.5474 91.9902ZM55.5901 97.1324C55.8869 97.3733 56.3228 97.3279 56.5637 97.0311L60.4893 92.1942C60.7302 91.8974 60.6849 91.4615 60.3881 91.2206C60.0913 90.9797 59.6553 91.0251 59.4145 91.3219L55.925 95.6213L51.6256 92.1319C51.3287 91.891 50.8928 91.9363 50.652 92.2332C50.4111 92.53 50.4564 92.9659 50.7532 93.2068L55.5901 97.1324ZM0.593327 1.84628L1.53042 2.52555L2.34288 1.40472L1.40578 0.725448L0.593327 1.84628ZM3.40461 3.88409L4.3417 4.56336L5.15416 3.44253L4.21706 2.76326L3.40461 3.88409ZM4.3417 4.56336C4.7118 4.83163 5.08018 5.10178 5.44684 5.37379L6.27163 4.262C5.90087 3.98696 5.52838 3.7138 5.15416 3.44254L4.3417 4.56336ZM7.62787 7.02942C8.34949 7.58987 9.06411 8.15767 9.77165 8.73268L10.6447 7.65839C9.92927 7.07696 9.20667 6.50281 8.47699 5.93611L7.62787 7.02942ZM11.8777 10.4832C12.5739 11.0751 13.263 11.6741 13.9447 12.2801L14.8644 11.2455C14.1751 10.6327 13.4783 10.027 12.7743 9.42849L11.8777 10.4832ZM15.9714 14.1221C16.6406 14.744 17.3024 15.3728 17.9567 16.0084L18.9212 15.0154C18.2596 14.3727 17.5905 13.7369 16.9138 13.1081L15.9714 14.1221ZM19.8997 17.938C20.5406 18.5887 21.1739 19.2461 21.7995 19.91L22.807 18.9606C22.1744 18.2893 21.534 17.6246 20.8859 16.9666L19.8997 17.938ZM23.6553 21.9237C24.2668 22.6021 24.8705 23.287 25.4663 23.9781L26.5148 23.0743C25.9124 22.3754 25.3019 21.6829 24.6835 20.9968L23.6553 21.9237ZM27.2314 26.0721C27.8123 26.7768 28.3851 27.4876 28.9497 28.2044L30.0372 27.3478C29.4662 26.623 28.887 25.9042 28.2996 25.1916L27.2314 26.0721ZM30.6204 30.3742C31.1695 31.1038 31.7103 31.8392 32.2428 32.5803L33.367 31.7726C32.8286 31.0232 32.2817 30.2795 31.7265 29.5418L30.6204 30.3742ZM33.816 34.8217C34.3322 35.5748 34.84 36.3335 35.3394 37.0975L36.4982 36.3403C35.9933 35.5677 35.4798 34.8005 34.9578 34.039L33.816 34.8217ZM36.8121 39.4064C37.2945 40.1815 37.7683 40.9618 38.2334 41.7472L39.4245 41.0419C38.9542 40.2476 38.4751 39.4586 37.9873 38.6749L36.8121 39.4064ZM39.6026 44.1188C40.0503 44.9143 40.4891 45.7148 40.9192 46.5201L42.1403 45.8681C41.7055 45.0538 41.2617 44.2443 40.8091 43.4399L39.6026 44.1188ZM42.1823 48.95C42.5944 49.7644 42.9975 50.5835 43.3916 51.4071L44.6403 50.8097C44.2418 49.9768 43.8342 49.1486 43.4176 48.325L42.1823 48.95ZM44.5461 53.8903C44.9217 54.722 45.2882 55.5581 45.6455 56.3983L46.9194 55.8566C46.5581 55.007 46.1875 54.1615 45.8077 53.3205L44.5461 53.8903ZM46.6892 58.9301C47.0276 59.7775 47.3568 60.629 47.6767 61.4844L48.9733 60.9995C48.6499 60.1345 48.317 59.2736 47.9748 58.4167L46.6892 58.9301ZM48.6076 64.06C48.9082 64.9215 49.1995 65.7868 49.4813 66.6556L50.7981 66.2285C50.5131 65.35 50.2186 64.475 49.9146 63.6039L48.6076 64.06ZM50.2972 69.2696C50.5594 70.1433 50.8121 71.0205 51.0552 71.9009L52.3896 71.5325C52.1438 70.6422 51.8883 69.7552 51.6232 68.8718L50.2972 69.2696ZM51.7548 74.5484C51.978 75.4328 52.1917 76.3203 52.3957 77.2108L53.745 76.9017C53.5388 76.0013 53.3227 75.1038 53.097 74.2095L51.7548 74.5484ZM52.9776 79.8869C53.1615 80.7804 53.3357 81.6766 53.5002 82.5755L54.8619 82.3264C54.6956 81.4175 54.5194 80.5112 54.3334 79.6078L52.9776 79.8869ZM53.9632 85.2747C54.1074 86.1749 54.2418 87.0777 54.3664 87.9829L55.7378 87.7942C55.6118 86.8789 55.4759 85.966 55.3301 85.0557L53.9632 85.2747ZM54.7097 90.6995C54.7619 91.1531 54.8117 91.6072 54.8589 92.0618L56.2358 91.9186C56.188 91.4589 56.1377 90.9997 56.0849 90.5411L54.7097 90.6995ZM54.8589 92.0618L54.9787 93.213L56.3556 93.0698L56.2358 91.9186L54.8589 92.0618ZM55.2181 95.5154L55.3378 96.6665L56.7147 96.5233L56.595 95.3722L55.2181 95.5154Z" fill="#0d8bff" />
</svg>