<svg width="34" height="34" viewBox="0 0 34 34" fill="none" xmlns="http://www.w3.org/2000/svg">
<path d="M21.2495 18.4171L15.5828 24.0837L12.7495 21.2504M23.8702 28.3337H10.1292C7.55251 28.3337 6.26432 28.3338 5.51953 27.7926C4.8699 27.3206 4.45077 26.5951 4.36683 25.7965C4.2706 24.8809 4.9146 23.7653 6.20296 21.5338L13.0734 9.63381C14.3618 7.4023 15.0058 6.28639 15.8468 5.91195C16.5804 5.58534 17.4184 5.58534 18.1519 5.91195C18.993 6.28639 19.6374 7.4023 20.9258 9.63381L27.7963 21.5338C29.0846 23.7653 29.7286 24.8809 29.6324 25.7965C29.5484 26.5951 29.1293 27.3206 28.4797 27.7926C27.7349 28.3338 26.4469 28.3337 23.8702 28.3337Z" stroke="#0D8BFF" stroke-width="2" stroke-linecap="round" stroke-linejoin="round"/>
</svg>
